<svg id="Layer_1" data-name="Layer 1" xmlns="http://www.w3.org/2000/svg" xmlns:xlink="http://www.w3.org/1999/xlink" width="1430" height="1070" viewBox="0 0 1430 1070"><defs><style>.cls-1,.cls-2{fill:#5f2000;}.cls-2,.cls-21,.cls-3,.cls-4{stroke:#100015;}.cls-13,.cls-2,.cls-21,.cls-22,.cls-27,.cls-28,.cls-29,.cls-3,.cls-4,.cls-5{stroke-miterlimit:10;}.cls-29,.cls-4,.cls-8{fill:#fff;}.cls-5{fill:#940004;}.cls-13,.cls-5{stroke:#ffb1aa;stroke-width:13px;}.cls-6{fill:#e5ad5c;}.cls-7{fill:#ffeb94;}.cls-9{fill:#efbb67;}.cls-10{fill:#ef5b6d;}.cls-11{fill:#b7b4a7;}.cls-12{fill:#d3afce;}.cls-13{fill:#ffb1aa;}.cls-14{fill:url(#linear-gradient);}.cls-15{fill:#b4cfd6;}.cls-16{fill:#020000;}.cls-17{fill:#c1272d;stroke:#c1272d;}.cls-17,.cls-18,.cls-19,.cls-24{stroke-linejoin:round;}.cls-17,.cls-18{stroke-width:5px;}.cls-18{fill:#8a1b00;stroke:#8a0f00;}.cls-19,.cls-21{fill:none;}.cls-19,.cls-29{stroke:#000;}.cls-19{stroke-width:15px;}.cls-20{fill:#100015;}.cls-22,.cls-24{fill:#ffdeaa;stroke:#ffdeaa;}.cls-22{stroke-width:7px;}.cls-23{fill:#df1900;}.cls-24{stroke-width:6px;}.cls-25{fill:#c9f4f3;}.cls-26{fill:#7dadf9;}.cls-27{fill:#ff2c1f;stroke:#ff2c1f;stroke-width:29px;}.cls-28{fill:#fcfcfc;stroke:#fff;}.cls-29{stroke-width:2px;}.cls-30{fill:url(#linear-gradient-2);}</style><linearGradient id="linear-gradient" x1="498.84" y1="556.62" x2="498.84" y2="426.59" gradientTransform="matrix(1.07, -0.08, -0.08, 1.09, -405.27, 441.36)" gradientUnits="userSpaceOnUse"><stop offset="0" stop-color="#cce0f4"/><stop offset="0.15" stop-color="#c3e0f5"/><stop offset="0.4" stop-color="#a9e0f9"/><stop offset="0.72" stop-color="#80e0ff"/><stop offset="0.73" stop-color="#7fe0ff"/><stop offset="0.89" stop-color="#2ad2ff"/><stop offset="0.99" stop-color="#3fc6ff"/></linearGradient><linearGradient id="linear-gradient-2" x1="1143.47" y1="1685.13" x2="1143.47" y2="1561.9" gradientTransform="matrix(1.15, 0.11, 0.11, 1.13, -1236.96, -1008.56)" xlink:href="#linear-gradient"/></defs><title>Alle animation</title><path class="cls-1" d="M1332.9,237.7c3.61-.47,7.34,4,9.58,10.65,7.5-12.71,17-20.9,21.33-18.38s1.91,15.26-5.66,28.37-17.3,21.65-21.74,19.08a3.63,3.63,0,0,1-1.38-1.49c-3.84-2.11-7.31-9.07-8.42-17.67C1325.23,247.53,1328,238.33,1332.9,237.7Z"/><rect class="cls-2" x="1151.27" y="282.95" width="93.81" height="109.6"/><rect class="cls-3" x="1141.06" y="314.07" width="113.78" height="23.69"/><rect class="cls-3" x="1141.06" y="295.03" width="113.78" height="10.22"/><path class="cls-3" d="M1146.17,296c0-29,24-52.48,51.93-52.48S1250.5,267,1250.5,296"/><ellipse class="cls-4" cx="1173.57" cy="325.91" rx="11.61" ry="6.27"/><ellipse class="cls-4" cx="1220.94" cy="325.91" rx="11.61" ry="6.27"/><ellipse class="cls-3" cx="1177.28" cy="327.54" rx="3.72" ry="1.86"/><ellipse class="cls-3" cx="1226.51" cy="327.54" rx="3.72" ry="1.86"/><ellipse class="cls-5" cx="1201.9" cy="362.6" rx="16.72" ry="11.84"/><rect class="cls-3" x="1112.73" y="392.55" width="171.83" height="146.29"/><path class="cls-1" d="M1069.1,238.16c-3.61-.46-7.34,4-9.58,10.66-7.5-12.71-17-20.91-21.33-18.39s-1.91,15.27,5.66,28.37,17.3,21.65,21.74,19.09a3.66,3.66,0,0,0,1.38-1.5c3.84-2.1,7.31-9.07,8.42-17.67C1076.77,248,1074,238.79,1069.1,238.16Z"/><rect class="cls-3" x="1081.61" y="262.05" width="27.4" height="155.58" transform="translate(-45.76 454.53) rotate(-22.98)"/><rect class="cls-3" x="1290.13" y="262.52" width="27.4" height="155.58" transform="translate(272.95 -527.49) rotate(25.46)"/><path class="cls-6" d="M1266.75,722.71c0,57.1-14.81,103.39-46.18,103.39s-50.33-46.29-50.33-103.39"/><circle class="cls-7" cx="1245.97" cy="750.87" r="17.78"/><circle class="cls-7" cx="1205.33" cy="750.87" r="17.78"/><rect class="cls-7" x="1221.96" y="749.49" width="6.93" height="2.77"/><ellipse class="cls-8" cx="1208.33" cy="755.03" rx="7.16" ry="2.77"/><ellipse class="cls-8" cx="1240.19" cy="755.03" rx="7.16" ry="2.77"/><circle cx="1212.72" cy="755.95" r="0.92"/><circle cx="1236.27" cy="755.95" r="0.92"/><path class="cls-9" d="M1240,732.64c0-.39-6.2-.7-13.85-.7s-13.85.31-13.85.7,6.2-.24,13.85-.24S1240,733,1240,732.64Z"/><path class="cls-9" d="M1234.42,734.43c0-.32-3.3-.57-7.38-.57s-7.39.25-7.39.57,3.3-.19,7.39-.19S1234.42,734.74,1234.42,734.43Z"/><path class="cls-9" d="M1240.89,729.34c0-.51-6.2-.91-13.85-.91s-13.86.4-13.86.91,6.2-.31,13.86-.31S1240.89,729.84,1240.89,729.34Z"/><path class="cls-10" d="M1247.1,792.7c2.24,2.92-9.4,6.66-21,6.66s-23.11-3.66-21-6.66c10.55-14.9,21.6-.09,21,.91C1224.73,796,1234.63,776.49,1247.1,792.7Z"/><path class="cls-11" d="M1289.37,709.32c0-7.14-4.86-12.93-10.85-12.93a9.42,9.42,0,0,0-4.1,1c-.89-6-5.21-10.51-10.45-10.64h0c0-7.14-4.86-12.93-10.86-12.93a9.58,9.58,0,0,0-5.82,2c-.51-6.57-5.15-11.71-10.8-11.71a9.9,9.9,0,0,0-7.21,3.26c-1.87-3.88-5.38-6.5-9.41-6.5-4.69,0-8.68,3.54-10.2,8.5a9.89,9.89,0,0,0-17.51.06,10.38,10.38,0,0,0-8.77-5.32c-6,0-10.85,5.78-10.85,12.92,0,.13,0,.25,0,.37A9,9,0,0,0,1170,677c-6,0-10.85,5.79-10.85,12.93a14.94,14.94,0,0,0,1.06,5.58,13.59,13.59,0,0,0-5.22,11c0,5.41,2.8,10,6.76,12,2.6,4.71,10.06,8.11,18.87,8.11a29.67,29.67,0,0,0,11.59-2.22,39.38,39.38,0,0,0,12.88,2c6.56,0,12.38-1.34,16.05-3.4a36,36,0,0,0,16,3.4,42.78,42.78,0,0,0,7.13-.59c3.76,2.35,9.21,3.82,15.27,3.82,8.74,0,16.21-3.07,19.17-7.39C1284.64,722.08,1289.37,716.36,1289.37,709.32Zm-84.27,0h-.22a1.11,1.11,0,0,0,.07-.16l.25.16Z"/><rect class="cls-2" x="1351.02" y="859.15" width="7.85" height="164.85"/><path class="cls-6" d="M1356.07,868.87c1.56-1.49.93-4.84-1.31-8.38,8.63,1.31,15.93,0,16.4-2.91s-6.28-6.58-15.12-8-16.39-.15-16.88,2.84a2.22,2.22,0,0,0,.17,1.2c-.47,2.54,1.43,6.74,5,10.46C1348.69,868.71,1354,870.86,1356.07,868.87Z"/><ellipse class="cls-12" cx="1293.07" cy="844.61" rx="11.54" ry="54.49" transform="translate(213.54 1949.15) rotate(-78.81)"/><path class="cls-6" d="M1054.12,874.41c-1.56-1.49-.93-4.84,1.31-8.38-8.63,1.31-15.93,0-16.41-2.91s6.29-6.58,15.13-8S1070.54,855,1071,858a2.22,2.22,0,0,1-.17,1.2c.46,2.54-1.43,6.74-5,10.46C1061.5,874.25,1056.22,876.4,1054.12,874.41Z"/><ellipse class="cls-12" cx="1117.6" cy="844.61" rx="54.49" ry="11.54" transform="translate(-181.49 320.44) rotate(-15.11)"/><rect class="cls-13" x="1183.86" y="912.72" width="7.85" height="91.43"/><rect class="cls-13" x="1230.5" y="912.72" width="7.85" height="91.43"/><ellipse class="cls-12" cx="1205.33" cy="881.09" rx="76.65" ry="68.34"/><rect class="cls-13" x="1226.34" y="1004.14" width="35.09" height="18.01"/><rect class="cls-13" x="1162.62" y="1004.14" width="35.09" height="18.01"/><rect x="623.14" y="897.5" width="11.86" height="84.5"/><rect x="520.85" y="897.5" width="11.86" height="84.5"/><rect x="546.83" y="887.04" width="11.86" height="112.99" transform="translate(1133.73 17.11) rotate(62.46)"/><rect x="578.67" y="897.5" width="11.86" height="84.5"/><rect x="559.39" y="897.5" width="11.86" height="84.5"/><rect x="540.12" y="897.5" width="11.86" height="84.5"/><rect x="405.45" y="917.83" width="7.44" height="52.99" transform="translate(-538.7 543.43) rotate(-43.65)"/><rect x="405.45" y="917.83" width="7.44" height="52.99" transform="translate(810.07 -3.54) rotate(46.35)"/><polygon class="cls-14" points="152.03 961.72 108.56 951.12 122.82 993.52 95.45 959.71 83.42 1006.66 80.82 960.37 46.32 996.95 69.33 952.88 23.32 967.49 64.63 939.62 21.71 927.62 68.2 924.81 42 890 78.91 913.14 77.75 866.58 93.37 908.32 117.62 864.79 106.98 911.88 148.93 885.21 115.42 922.69 161.76 921.34 116.01 937.32 152.03 961.72"/><ellipse class="cls-15" cx="861" cy="706.21" rx="43" ry="44.63"/><circle class="cls-16" cx="749.49" cy="748.44" r="10.33"/><circle class="cls-16" cx="995.82" cy="777.85" r="8.18"/><polyline class="cls-16" points="798.5 760.33 951.9 748.39 853.13 936.16"/><path class="cls-16" d="M995.71,775.25c-1.73,7.49-24.08,18.66-53.58,11.85s-55.81-30.16-54.08-37.65,27-12.35,56.53-5.54S997.44,767.77,995.71,775.25Z"/><path class="cls-16" d="M745.19,743.84c1.1-7,27.23-16.59,55.95-12.05s52,27.81,50.89,34.77S808.92,778,780.2,773.4,744.09,750.81,745.19,743.84Z"/><path class="cls-17" d="M821.61,684.75c0-18.82,17.65-41.68,39.41-41.68s39.42,22.86,39.42,41.68"/><rect class="cls-18" x="815.63" y="684.75" width="91.27" height="13.25"/><line class="cls-19" x1="825.32" y1="684.35" x2="825.32" y2="698.48"/><line class="cls-19" x1="837.92" y1="684.35" x2="837.92" y2="698.48"/><line class="cls-19" x1="863.45" y1="684.35" x2="863.45" y2="698.48"/><line class="cls-19" x1="876.21" y1="684.35" x2="876.21" y2="698.48"/><line class="cls-19" x1="850.85" y1="684.35" x2="850.85" y2="698.48"/><line class="cls-19" x1="888.97" y1="684.35" x2="888.97" y2="698.48"/><line class="cls-19" x1="901.89" y1="684.35" x2="901.89" y2="698.48"/><rect class="cls-20" x="867.34" y="701.79" width="22.4" height="5.42"/><rect class="cls-20" x="838.02" y="701.79" width="22.4" height="5.42"/><path class="cls-21" d="M858.5,706.11a7.73,7.73,0,1,1-15.46,0"/><path class="cls-21" d="M884,706.11a7.74,7.74,0,0,1-15.47,0"/><line class="cls-22" x1="818.95" y1="699.03" x2="818.95" y2="722.93"/><line class="cls-22" x1="904.59" y1="699.03" x2="904.59" y2="722.93"/><circle class="cls-23" cx="853.18" cy="709.93" r="1.51"/><circle class="cls-23" cx="874.67" cy="709.93" r="1.51"/><path class="cls-24" d="M909.06,722.22c-4.94-6.41-16.38-5.88-25.57,1.2a27,27,0,0,0-8.44,10.6,17.55,17.55,0,0,0-22.88-.33A27.26,27.26,0,0,0,844,723.62c-9.18-7.08-20.63-7.61-25.57-1.2s-1.51,17.35,7.67,24.42a29.19,29.19,0,0,0,5.64,3.42,4.14,4.14,0,0,0-.1.93c0,4.33,6,7.83,13.45,7.83a22.4,22.4,0,0,0,3.33-.24,3.36,3.36,0,0,0-1.12,2.35c0,2.83,4.49,5.12,10,5.12a18.48,18.48,0,0,0,3.22-.27.2.2,0,0,0,0,.07c0,2,2.83,3.62,6.33,3.62s6.32-1.62,6.32-3.62v0c6.19-.23,11.05-2.38,11.05-5a2.84,2.84,0,0,0-1.06-2c.38,0,.77,0,1.16,0,6.15,0,11.14-3.5,11.14-7.83a6.22,6.22,0,0,0-.08-1,29.17,29.17,0,0,0,6-3.59C910.57,739.57,914,728.63,909.06,722.22ZM873.12,756a16.48,16.48,0,0,0,1.42-1.07,8.19,8.19,0,0,0,1.27,1.3C875,756.14,874.05,756.07,873.12,756Z"/><path class="cls-23" d="M867.34,724.89c0,6.32-1.66,11.44-3.72,11.44s-3.71-5.12-3.71-11.44"/><path class="cls-16" d="M773.55,707.67c5.93-25.31,5-46.81-1.7-48.38s-26.47,12.77-32.4,38.07-.08,51.71,6.63,53.28S767.63,733,773.55,707.67Z"/><ellipse class="cls-17" cx="780.4" cy="652.69" rx="18.36" ry="6.6" transform="translate(-234.33 725.93) rotate(-44.04)"/><ellipse class="cls-17" cx="781.49" cy="665.51" rx="12.77" ry="4.02"/><circle class="cls-25" cx="788.8" cy="656.62" r="9.18"/><path class="cls-16" d="M996.14,774.8c5.71,1.92,8.16,23.53.43,46.6s-22.7,38.84-28.41,36.93-14.22-35.5-6.49-58.57S990.43,772.89,996.14,774.8Z"/><ellipse class="cls-17" cx="965.22" cy="868.62" rx="18.36" ry="6.6" transform="translate(-166.95 1504.49) rotate(-71.3)"/><ellipse class="cls-17" cx="961.86" cy="860.03" rx="12.77" ry="4.02" transform="translate(-328.4 853.57) rotate(-41.51)"/><path class="cls-26" d="M911,908.66c12.67,16.45,9.11,39.61.33,46.37s-26.16-1.1-38.83-17.55-15.83-35.27-7-42S898.35,892.21,911,908.66Z"/><circle class="cls-26" cx="911.38" cy="953.88" r="13.75"/><ellipse class="cls-26" cx="900.19" cy="988.89" rx="33.28" ry="12.66" transform="translate(-290.88 1596.83) rotate(-74.73)"/><path class="cls-26" d="M856.23,940.76c-14.08,18.31-39.38,21.55-48.74,14.35s-5.52-27.88,8.57-46.19,33.09-27.31,42.45-20.11S870.32,922.46,856.23,940.76Z"/><circle class="cls-26" cx="809" cy="958.59" r="13.75"/><ellipse class="cls-26" cx="780.4" cy="943.87" rx="12.66" ry="33.28" transform="translate(-427.21 1147.78) rotate(-60)"/><ellipse class="cls-17" cx="749.56" cy="940.02" rx="17.73" ry="8.08" transform="translate(-450.82 1007.57) rotate(-54.65)"/><ellipse class="cls-17" cx="905.05" cy="1016.08" rx="17.73" ry="8.08"/><rect class="cls-17" x="836.62" y="883.25" width="44.43" height="7.18"/><circle class="cls-27" cx="143.5" cy="743.5" r="63"/><rect class="cls-28" x="112" y="724.97" width="24.09" height="39.84"/><polyline class="cls-28" points="147.21 769.9 147.21 723.58 172.22 705.98 172.22 769.9 172.22 780.1"/><circle class="cls-27" cx="136.5" cy="540.5" r="63"/><rect class="cls-28" x="105" y="521.97" width="24.09" height="39.84"/><polyline class="cls-28" points="140.21 566.9 140.21 520.58 165.22 502.98 165.22 566.9 165.22 577.1"/><rect x="123.66" y="485.06" width="19.37" height="110.57" transform="translate(-343.03 252.55) rotate(-45)"/><path class="cls-29" d="M583.56,631.48c60.83-16,6.87,5.95-10.29-59.31s-154-214.5-214.88-198.51-96.22,81.86-79.07,147.13S522.74,647.47,583.56,631.48Z"/><path d="M341.92,409.9l11.22,8.67-28,36.26-11.23-8.68Z"/><path d="M359.68,422.63l10.76,8.31-6.4,8.29q-3.54,4.57-7.49,5.76t-10.11-.36l1.05-6.22a14.15,14.15,0,0,0,6,.39,6.89,6.89,0,0,0,3.62-2.2l-5.15-4Z"/><path d="M366.94,445.18l9.4,7.26-3,3.84a16.44,16.44,0,0,1,6.73-.25,14.19,14.19,0,0,1,5.78,2.84,12.12,12.12,0,0,1,4.12,5,10.43,10.43,0,0,1,.43,5.63,19.21,19.21,0,0,1,7-.17,14.11,14.11,0,0,1,5.53,2.8q4.23,3.26,4.66,7.6c.28,2.9-1,6.12-3.7,9.69l-12.74,16.49-10.09-7.79,11.56-15a5.34,5.34,0,0,0,1.35-3.18,3.84,3.84,0,0,0-1.46-3.3,4.51,4.51,0,0,0-3.85-.92c-1.39.3-2.81,1.4-4.28,3.29L374,492.56l-10.09-7.8,11.18-14.47a11,11,0,0,0,1.61-2.5,4,4,0,0,0,.12-2.46,3.79,3.79,0,0,0-1.39-2,4.51,4.51,0,0,0-3.87-.89c-1.42.3-2.9,1.44-4.44,3.44l-10.35,13.4-10.1-7.79Z"/><path d="M414.94,524.19l28-36.25,18.67,14.42a34.2,34.2,0,0,1,7.26,7,10.7,10.7,0,0,1,1.87,6.72,12.64,12.64,0,0,1-2.85,7.17,12.22,12.22,0,0,1-11.59,5,17,17,0,0,1-5-1.6,14,14,0,0,1,1.88,3.59,14.33,14.33,0,0,1,.32,3.29,18.39,18.39,0,0,1-.17,3.46l-2.69,14.7L437.94,542l2.57-15.71a10.7,10.7,0,0,0,.13-4.36,5.93,5.93,0,0,0-2.09-3l-1-.76-11.37,14.71Zm27.91-12.87,4.72,3.64a20.58,20.58,0,0,0,3.35,1.8,3.71,3.71,0,0,0,2.7.27,4.3,4.3,0,0,0,2.33-1.56,4.24,4.24,0,0,0,1-3.55q-.39-1.8-3.46-4.17l-4.92-3.8Z"/><path d="M461.06,539a16.59,16.59,0,0,1,11.7-6.78q7.07-.75,14,4.57,7.89,6.09,8.38,13.78A18.08,18.08,0,0,1,479.66,569q-7,.76-14.11-4.72-6.33-4.89-7.76-11.12A16.28,16.28,0,0,1,461.06,539Zm10.11,7.77c-1.81,2.34-2.68,4.43-2.59,6.29a5.88,5.88,0,0,0,7.13,5.54q2.67-.57,5.5-4.24,2.64-3.41,2.52-6.17a5.57,5.57,0,0,0-2.2-4.36,5.78,5.78,0,0,0-4.95-1.11Q473.84,543.28,471.17,546.74Z"/><path d="M514.34,543.09l10.09,7.79-28,36.26-10.09-7.8Z"/><path d="M534.35,574.49l4.8,3.71-5.7,7.37-4.8-3.71-14.59,18.9L504,593l14.59-18.89-3.75-2.91,5.69-7.37,3.76,2.91.91-1.19a26.21,26.21,0,0,1,3.08-3.27,9,9,0,0,1,3.74-2.15,8.47,8.47,0,0,1,4.2.09,16.39,16.39,0,0,1,5.61,3.13,86.08,86.08,0,0,1,7.21,6.56l-5.81,5.22a23.45,23.45,0,0,0-2.69-2.55,4.06,4.06,0,0,0-2.3-1,3.13,3.13,0,0,0-2,.8A15.72,15.72,0,0,0,534.35,574.49Z"/><polygon class="cls-30" points="329.8 994.9 283.19 976.78 305.22 1021.67 271.17 983.1 266.91 1027.98 256.22 981.22 227.02 1011.85 243.09 971.74 198.22 978.38 235.94 957.66 189.65 938.21 237.06 943.46 204.04 904.09 246.07 933.64 236.81 886.86 260.13 931.32 277.56 891.97 274.76 937.24 313.36 917.82 285.33 949.52 332.83 956.19 288.47 964.26 329.8 994.9"/><rect class="cls-27" x="101.5" y="141.01" width="530" height="146.01" rx="12" ry="12"/><path class="cls-8" d="M199.27,227.76l24.89-1.56q.81,6.06,3.29,9.24,4.05,5.13,11.55,5.13,5.59,0,8.63-2.62a7.88,7.88,0,0,0,3-6.09,7.78,7.78,0,0,0-2.89-5.89q-2.9-2.61-13.4-4.91-17.2-3.87-24.54-10.28a20.67,20.67,0,0,1-7.39-16.34,22.21,22.21,0,0,1,3.78-12.33A25.1,25.1,0,0,1,217.61,173q7.59-3.31,20.81-3.32,16.23,0,24.75,6t10.13,19.2l-24.66,1.44q-1-5.72-4.12-8.31c-2.1-1.74-5-2.6-8.7-2.6q-4.56,0-6.87,1.93a5.93,5.93,0,0,0-2.31,4.71,4.72,4.72,0,0,0,1.91,3.64q1.84,1.66,8.78,3.11,17.14,3.7,24.57,7.48t10.8,9.39a23.79,23.79,0,0,1,3.37,12.53,26.84,26.84,0,0,1-4.5,15A28.12,28.12,0,0,1,259,253.65q-8.09,3.55-20.38,3.56-21.6,0-29.92-8.32T199.27,227.76Z"/><path class="cls-8" d="M316,171.11v23.33H329v17.2H316v21.73q0,3.91.75,5.19a4.32,4.32,0,0,0,4.05,2,25.78,25.78,0,0,0,7.27-1.5l1.74,16.22a76.69,76.69,0,0,1-16.29,1.91q-8.78,0-12.93-2.25a13.65,13.65,0,0,1-6.15-6.84q-2-4.58-2-14.85V211.64h-8.66v-17.2h8.66V183.18Z"/><path class="cls-8" d="M361.6,214.3l-22.47-2.37a25.34,25.34,0,0,1,3.67-9.27,20.34,20.34,0,0,1,6.9-5.86,29.17,29.17,0,0,1,8.89-2.77,72.32,72.32,0,0,1,12.25-1,97.19,97.19,0,0,1,17,1.18,21.85,21.85,0,0,1,10.69,4.94,17.29,17.29,0,0,1,4.73,7.36,26.51,26.51,0,0,1,1.73,9.1v27.08a33.13,33.13,0,0,0,.55,6.79,31,31,0,0,0,2.4,6.26H385.85a22.07,22.07,0,0,1-1.73-3.61,26.38,26.38,0,0,1-.81-3.89,30.5,30.5,0,0,1-9.18,6.35,38.32,38.32,0,0,1-14.5,2.54q-11,0-16.66-5.08a16.16,16.16,0,0,1-5.69-12.53,16.46,16.46,0,0,1,4.1-11.5q4.11-4.5,15.13-6.69,13.23-2.65,17.15-3.73a78.36,78.36,0,0,0,8.32-2.8q0-4.33-1.79-6.06T373.9,207q-5.77,0-8.67,1.85Q363,210.31,361.6,214.3ZM382,226.66q-4.85,1.72-10.11,3.06-7.15,1.91-9.06,3.75a6,6,0,0,0,0,8.87,8.2,8.2,0,0,0,5.69,1.76,14.6,14.6,0,0,0,7.3-1.91,11.6,11.6,0,0,0,4.8-4.65,15.56,15.56,0,0,0,1.41-7.13Z"/><path class="cls-8" d="M419.28,194.44h22v10q3.16-6.53,6.55-9a13.84,13.84,0,0,1,8.34-2.45,24.88,24.88,0,0,1,11.38,3.23L460.28,213a18.53,18.53,0,0,0-6.58-1.73,8.12,8.12,0,0,0-7.16,3.81q-3.63,5.37-3.64,20.09v20.56H419.28Z"/><path class="cls-8" d="M505.79,171.11v23.33h12.93v17.2H505.79v21.73q0,3.91.75,5.19a4.31,4.31,0,0,0,4,2,25.83,25.83,0,0,0,7.28-1.5l1.73,16.22a76.53,76.53,0,0,1-16.28,1.91q-8.79,0-12.94-2.25a13.74,13.74,0,0,1-6.15-6.84q-2-4.58-2-14.85V211.64h-8.66v-17.2h8.66V183.18Z"/></svg>