<svg id="Layer_1" data-name="Layer 1" xmlns="http://www.w3.org/2000/svg" xmlns:xlink="http://www.w3.org/1999/xlink" width="1080" height="1920" viewBox="0 0 1080 1920"><defs><style>.cls-1{fill:url(#linear-gradient);}.cls-2{fill:#b7b4a7;}.cls-3,.cls-6,.cls-7{fill:#fff;}.cls-4{fill:#c1272d;}.cls-4,.cls-5{stroke:#c1272d;}.cls-16,.cls-21,.cls-4,.cls-5{stroke-linejoin:round;}.cls-16,.cls-4{stroke-width:5px;}.cls-5,.cls-9{stroke-width:4px;}.cls-6{opacity:0.52;}.cls-7{opacity:0.6;}.cls-8{fill:#ff1f0a;}.cls-10,.cls-12,.cls-13,.cls-9{fill:none;}.cls-10,.cls-9{stroke:#000;}.cls-10,.cls-12,.cls-13,.cls-15,.cls-9{stroke-miterlimit:10;}.cls-10{stroke-width:2px;}.cls-11{fill:#ff2c1f;}.cls-12{stroke:#ff2c1f;stroke-width:29px;}.cls-13{stroke:#100015;}.cls-14{fill:#df1900;}.cls-15,.cls-21{fill:#ffdeaa;stroke:#ffdeaa;}.cls-15{stroke-width:7px;}.cls-16{fill:#8a1b00;stroke:#8a0f00;}.cls-17{fill:#100015;}.cls-18{fill:#f4f9f9;}.cls-19{fill:#020000;}.cls-20{fill:#7dadf9;}.cls-21{stroke-width:6px;}</style><linearGradient id="linear-gradient" x1="540" y1="1920.5" x2="540" y2="0.5" gradientUnits="userSpaceOnUse"><stop offset="0" stop-color="#cce0f4"/><stop offset="0.15" stop-color="#c3e0f5"/><stop offset="0.4" stop-color="#a9e0f9"/><stop offset="0.72" stop-color="#80e0ff"/><stop offset="0.73" stop-color="#7fe0ff"/><stop offset="0.89" stop-color="#2ad2ff"/><stop offset="0.99" stop-color="#3fc6ff"/></linearGradient></defs><title>Artboard 49</title><rect class="cls-1" x="-0.5" y="0.5" width="1081" height="1920"/><rect class="cls-2" x="390.44" y="135.5" width="674.45" height="918"/><rect class="cls-3" x="431.1" y="213.19" width="155.72" height="160.5"/><rect class="cls-3" x="649.31" y="213.19" width="155.72" height="160.5"/><rect class="cls-3" x="867.51" y="213.19" width="155.72" height="160.5"/><rect class="cls-3" x="431.1" y="415.6" width="155.72" height="160.5"/><rect class="cls-3" x="649.31" y="415.6" width="155.72" height="160.5"/><rect class="cls-3" x="867.51" y="415.6" width="155.72" height="160.5"/><rect class="cls-3" x="431.1" y="618.01" width="155.72" height="160.5"/><rect class="cls-3" x="649.31" y="618.01" width="155.72" height="160.5"/><rect class="cls-3" x="867.51" y="618.01" width="155.72" height="160.5"/><rect class="cls-4" x="649.31" y="830.99" width="155.72" height="218.77"/><ellipse class="cls-5" cx="782.71" cy="973.25" rx="10.41" ry="10.73"/><line x1="1043.99" y1="1078.96" x2="604.01" y2="1729.04"/><line x1="377.34" y1="1084.83" x2="37.5" y2="1281.5"/><path class="cls-3" d="M468.2,141.28c-10.09-20.34-37.35-37.09-67.55-46.93-26.33-18.13-65.73-29.66-97.83-29.85a93.63,93.63,0,0,0-46.56,11.56,182.08,182.08,0,0,0-46.09-6.76c-57-.33-74.52,43-122.93,56.48C.66,150,84.66,207.22,197.76,185c23.54,17.58,81.59,28.9,147.51,12.77C404,183.41,481.57,168.25,468.2,141.28Z"/><circle class="cls-3" cx="37" cy="1804" r="22.5"/><circle class="cls-3" cx="81" cy="1804" r="22.5"/><circle class="cls-3" cx="193" cy="1766" r="22.5"/><circle class="cls-3" cx="148" cy="1766" r="22.5"/><circle class="cls-3" cx="104" cy="1766" r="22.5"/><circle class="cls-3" cx="59" cy="1766" r="22.5"/><circle class="cls-3" cx="216" cy="1804" r="22.5"/><circle class="cls-3" cx="171" cy="1804" r="22.5"/><circle class="cls-3" cx="126" cy="1804" r="22.5"/><circle class="cls-3" cx="125" cy="1640" r="22.5"/><circle class="cls-3" cx="148" cy="1683" r="22.5"/><circle class="cls-3" cx="103" cy="1683" r="22.5"/><circle class="cls-3" cx="171" cy="1726" r="22.5"/><circle class="cls-3" cx="126" cy="1726" r="22.5"/><circle class="cls-3" cx="81" cy="1726" r="22.5"/><path class="cls-3" d="M1022.06,51.71c-4.36-8.8-16.15-16-29.21-20.3-11.4-7.84-28.44-12.83-42.32-12.91a40.52,40.52,0,0,0-20.14,5,78.46,78.46,0,0,0-19.94-2.92C885.8,20.43,878.22,39.15,857.28,45c-37.45,10.46-1.12,35.22,47.81,25.61,10.18,7.6,35.28,12.5,63.8,5.52C994.28,69.93,1027.84,63.38,1022.06,51.71Z"/><path class="cls-6" d="M461.84,98.79a42.25,42.25,0,0,0-17-24.63c-6.62-9.51-16.52-15.56-24.59-15.66-4.79-.06-8.47,2.45-11.71,6.07A24.39,24.39,0,0,0,397,61c-14.32-.17-18.73,22.53-30.9,29.64-21.77,12.69-.65,42.73,27.78,31.06,5.92,9.23,20.52,15.17,37.09,6.71C445.69,120.9,465.2,112.94,461.84,98.79Z"/><path class="cls-7" d="M932.34,68c-4.4-11.52-16.3-21-29.48-26.57-11.49-10.26-28.68-16.79-42.69-16.9a33.77,33.77,0,0,0-20.32,6.55,62.49,62.49,0,0,0-20.11-3.83c-24.87-.19-32.52,24.31-53.64,32-37.79,13.7-1.13,46.1,48.23,33.52,10.27,10,35.6,16.36,64.37,7.23C904.3,91.82,938.17,83.23,932.34,68Z"/><path class="cls-3" d="M549.5,1919.5c0-90.85,178.92-156.36,390.5-192,162.51-27.38,136.63,170,139.5,192"/><path class="cls-8" d="M974.72,1886.87c9.43.47,20.78-30,15.95-38.89-7-12.8-16-.44-15.91,6.16"/><path class="cls-8" d="M974.72,1886.87c-9.43.47-20.78-30-16-38.89,7-12.8,16-.44,15.91,6.16"/><path class="cls-8" d="M899.08,1886.87c9.42.47,20.78-30,15.94-38.89-7-12.8-16-.44-15.9,6.16"/><path class="cls-8" d="M899.07,1886.87c-9.43.47-20.78-30-15.94-38.89,7-12.8,16-.44,15.9,6.16"/><path class="cls-8" d="M936.9,1886.87c9.43.47,20.78-30,16-38.89-7-12.8-16-.44-15.91,6.16"/><path class="cls-8" d="M936.9,1886.87c-9.43.47-20.79-30-15.95-38.89,7-12.8,16-.44,15.9,6.16"/><rect class="cls-9" x="869.5" y="1830.9" width="136" height="67.6"/><path d="M695.71,1800.84h8.09a5.54,5.54,0,0,1,4,1.26,4.68,4.68,0,0,1,1.31,3.57,4.84,4.84,0,0,1-1.43,3.73,6.21,6.21,0,0,1-4.38,1.34H700.6v5.85h-4.89Zm4.89,6.71h1.19a3.05,3.05,0,0,0,2-.49,1.56,1.56,0,0,0,.57-1.25,1.74,1.74,0,0,0-.5-1.25A2.54,2.54,0,0,0,702,1804H700.6Z"/><path d="M710.22,1810.92a5.71,5.71,0,0,1,1.77-4.31,6.6,6.6,0,0,1,4.75-1.69,6.52,6.52,0,0,1,5.18,2,5.75,5.75,0,0,1,1.41,3.94,5.69,5.69,0,0,1-1.75,4.31,6.62,6.62,0,0,1-4.82,1.69,6.77,6.77,0,0,1-4.45-1.4A5.6,5.6,0,0,1,710.22,1810.92Zm4.39,0a3.45,3.45,0,0,0,.61,2.25,2,2,0,0,0,3.11,0,3.59,3.59,0,0,0,.61-2.31,3.37,3.37,0,0,0-.62-2.21,1.89,1.89,0,0,0-1.51-.72,2,2,0,0,0-1.58.74A3.37,3.37,0,0,0,714.61,1810.91Z"/><path d="M725.6,1800.84H730v3H725.6Zm0,4.34H730v11.41H725.6Z"/><path d="M732.76,1805.18h4.07V1807a6.17,6.17,0,0,1,1.85-1.63,4.8,4.8,0,0,1,2.28-.49,3.72,3.72,0,0,1,2.84,1.08,4.72,4.72,0,0,1,1,3.34v7.25h-4.39v-6.28a2.27,2.27,0,0,0-.4-1.52,1.42,1.42,0,0,0-1.11-.44,1.59,1.59,0,0,0-1.29.6,3.49,3.49,0,0,0-.5,2.16v5.48h-4.37Z"/><path d="M752.71,1800.84v4.34h2.41v3.2h-2.41v4a2.24,2.24,0,0,0,.14,1,.79.79,0,0,0,.75.36,4.71,4.71,0,0,0,1.36-.28l.32,3a14,14,0,0,1-3,.36,5.28,5.28,0,0,1-2.41-.42,2.57,2.57,0,0,1-1.14-1.27,7.44,7.44,0,0,1-.37-2.77v-4h-1.62v-3.2h1.62v-2.1Z"/><line class="cls-10" x1="759.5" y1="1820.5" x2="692.5" y2="1820.5"/><path d="M921.89,1800.84h4.87v11.87h7.59v3.88H921.89Z"/><path d="M936.44,1800.84h4.37v3h-4.37Zm0,4.34h4.37v11.41h-4.37Z"/><path d="M942.31,1805.18h4.55l2.22,7.23,2.29-7.23h4.41l-4.84,11.41h-3.88Z"/><line class="cls-10" x1="967.5" y1="1820.5" x2="907.5" y2="1820.5"/><path class="cls-11" d="M59.86,863c324.91-.79,610.18,79.14,830,216.88q72.5-140,158.1-284.3C760.06,677.52,411.64,626.81,30.39,665A1708.5,1708.5,0,0,0,59.86,863Z"/><path class="cls-12" d="M59.86,863c324.91-.79,610.18,79.14,830,216.88q72.5-140,158.1-284.3C760.06,677.52,411.64,626.81,30.39,665A1708.5,1708.5,0,0,0,59.86,863Z"/><path d="M121.91,683.79h17l10,16.7,10-16.7H175.8l-19.26,28.78v20.75H141.2V712.57Z"/><path d="M172.25,715.48A17.94,17.94,0,0,1,177.79,702q5.53-5.33,15-5.33,10.77,0,16.28,6.25a19.54,19.54,0,0,1-1.06,26q-5.49,5.28-15.19,5.29-8.64,0-14-4.4A17.6,17.6,0,0,1,172.25,715.48Zm13.78,0q0,4.8,1.95,7.1a6.35,6.35,0,0,0,9.76,0q1.9-2.27,1.91-7.26c0-3.11-.64-5.42-1.93-6.95a6,6,0,0,0-4.76-2.28,6.26,6.26,0,0,0-5,2.32C186.69,709.94,186,712.29,186,715.44Z"/><path d="M257.9,733.32H245.06V727.5a19.07,19.07,0,0,1-5.8,5.11,15.44,15.44,0,0,1-7.18,1.52q-5.67,0-8.9-3.4T220,720.27V697.44h13.81v19.73q0,3.38,1.25,4.79a4.45,4.45,0,0,0,3.52,1.42,5,5,0,0,0,4-1.89c1-1.26,1.57-3.52,1.57-6.79V697.44H257.9Z"/><path d="M285.13,683.79h14.54l5.23,27.72,7.66-27.72h14.49l7.67,27.69L340,683.79h14.47l-10.92,49.53h-15l-8.69-31.19-8.65,31.19h-15Z"/><path d="M361.32,683.79h13.75v9.35H361.32Zm0,13.65h13.75v35.88H361.32Z"/><path d="M383.85,697.44h12.81v5.84a19,19,0,0,1,5.81-5.12,15.37,15.37,0,0,1,7.16-1.54q5.72,0,8.94,3.4t3.23,10.49v22.81H408V713.58q0-3.37-1.25-4.78a4.5,4.5,0,0,0-3.52-1.4,5,5,0,0,0-4,1.89q-1.56,1.9-1.56,6.79v17.24H383.85Z"/><path d="M248.81,775h46.52v12.23H279.72v37.3h-15.3v-37.3H248.81Z"/><path d="M303.2,775H317v18.25a18.6,18.6,0,0,1,5.57-4.16,15.88,15.88,0,0,1,6.55-1.25,11.6,11.6,0,0,1,8.84,3.41q3.22,3.42,3.23,10.48v22.8H327.33V804.8q0-3.37-1.25-4.78a4.5,4.5,0,0,0-3.52-1.4,5,5,0,0,0-4.05,1.89c-1,1.26-1.55,3.53-1.55,6.79v17.23H303.2Z"/><path d="M389.19,810H361.62a8.9,8.9,0,0,0,1.79,4.93,6.53,6.53,0,0,0,5.2,2.33,7.89,7.89,0,0,0,3.86-1,9.1,9.1,0,0,0,2.39-2.27l13.55,1.25a19.38,19.38,0,0,1-7.5,7.76q-4.4,2.34-12.6,2.35-7.12,0-11.22-2a16.39,16.39,0,0,1-6.77-6.38,19.3,19.3,0,0,1-2.69-10.29q0-8.42,5.39-13.61t14.88-5.21q7.71,0,12.17,2.33a15.83,15.83,0,0,1,6.79,6.76q2.33,4.43,2.33,11.52Zm-14-6.59q-.4-4-2.14-5.71a6.72,6.72,0,0,0-9.82.88,9.6,9.6,0,0,0-1.59,4.83Z"/><path d="M416,775h46.52v12.23H446.93v37.3h-15.3v-37.3H416Z"/><path d="M470.41,775h13.75v18.25a18.63,18.63,0,0,1,5.58-4.16,15.85,15.85,0,0,1,6.55-1.25,11.6,11.6,0,0,1,8.84,3.41q3.22,3.42,3.22,10.48v22.8H494.54V804.8q0-3.37-1.25-4.78a4.5,4.5,0,0,0-3.52-1.4,5,5,0,0,0-4,1.89c-1,1.26-1.56,3.53-1.56,6.79v17.23H470.41Z"/><path d="M517.07,775h13.75v9.36H517.07Zm0,13.65h13.75v35.88H517.07Z"/><path d="M579.44,810H551.87a8.9,8.9,0,0,0,1.79,4.93,6.53,6.53,0,0,0,5.2,2.33,7.89,7.89,0,0,0,3.86-1,9.1,9.1,0,0,0,2.39-2.27l13.55,1.25a19.38,19.38,0,0,1-7.5,7.76q-4.39,2.34-12.6,2.35-7.12,0-11.22-2a16.39,16.39,0,0,1-6.77-6.38,19.3,19.3,0,0,1-2.69-10.29q0-8.42,5.39-13.61t14.88-5.21q7.71,0,12.17,2.33a15.83,15.83,0,0,1,6.79,6.76q2.32,4.43,2.33,11.52Zm-14-6.59q-.41-4-2.14-5.71a6.72,6.72,0,0,0-9.82.88,9.6,9.6,0,0,0-1.59,4.83Z"/><path d="M601.06,788.65h6.56v10.07h-6.56v25.81H587.28V798.72h-5.14V788.65h5.14V787a27.11,27.11,0,0,1,.47-4.83,9.85,9.85,0,0,1,1.77-4.31,9.3,9.3,0,0,1,3.65-2.7,17.79,17.79,0,0,1,6.88-1,94.21,94.21,0,0,1,10.51.84L609,783.31a25.81,25.81,0,0,0-4-.4,4.48,4.48,0,0,0-2.67.62,3.5,3.5,0,0,0-1.15,2A18.18,18.18,0,0,0,601.06,788.65Z"/><path d="M665.59,806.59v-10.3h23.65v21.12a48.68,48.68,0,0,1-12,6.3,40.89,40.89,0,0,1-12.38,1.67q-8.82,0-14.38-3a20.6,20.6,0,0,1-8.61-9,29.45,29.45,0,0,1-3.06-13.65,28.51,28.51,0,0,1,3.35-14.11,21.68,21.68,0,0,1,9.79-9.1q5-2.4,13.55-2.4,8.22,0,12.28,1.49a15.84,15.84,0,0,1,6.76,4.61,20.44,20.44,0,0,1,4,7.92l-14.77,2.64a8,8,0,0,0-3.09-4.3,9.64,9.64,0,0,0-5.55-1.48,10,10,0,0,0-8,3.5q-3,3.5-3,11.06,0,8,3,11.49a10.62,10.62,0,0,0,8.42,3.44,15.84,15.84,0,0,0,4.9-.74,26.62,26.62,0,0,0,5.34-2.53v-4.67Z"/><path d="M695.73,806.7a18,18,0,0,1,5.54-13.54q5.55-5.31,15-5.32,10.77,0,16.28,6.25a19.54,19.54,0,0,1-1.06,26q-5.49,5.28-15.19,5.29-8.64,0-14-4.4A17.62,17.62,0,0,1,695.73,806.7Zm13.79,0c0,3.2.64,5.57,1.94,7.1a6.37,6.37,0,0,0,9.76,0c1.28-1.51,1.91-3.93,1.91-7.26q0-4.66-1.92-6.95a6,6,0,0,0-4.77-2.28,6.2,6.2,0,0,0-5,2.32Q709.51,801.93,709.52,806.66Z"/><path d="M760.16,775v13.65h7.57v10.07h-7.57v12.71a6.92,6.92,0,0,0,.44,3,2.52,2.52,0,0,0,2.37,1.14,15.16,15.16,0,0,0,4.25-.87l1,9.49a45.1,45.1,0,0,1-9.53,1.12c-3.42,0-6-.44-7.57-1.32a8.06,8.06,0,0,1-3.6-4c-.77-1.79-1.16-4.68-1.16-8.69V798.72h-5.07V788.65h5.07v-6.59Z"/><path d="M605.76,855.81h15.31v17.34h16.72V855.81h15.37v49.53H637.79v-20H621.07v20H605.76Z"/><path d="M702.25,890.82H674.69a8.82,8.82,0,0,0,1.79,4.93,6.51,6.51,0,0,0,5.2,2.33,7.88,7.88,0,0,0,3.85-1,9.27,9.27,0,0,0,2.4-2.27l13.55,1.25a19.38,19.38,0,0,1-7.5,7.76q-4.4,2.34-12.6,2.35c-4.76,0-8.5-.68-11.22-2a16.44,16.44,0,0,1-6.78-6.39,19.29,19.29,0,0,1-2.68-10.29q0-8.41,5.39-13.61T681,868.65q7.71,0,12.16,2.33a15.72,15.72,0,0,1,6.79,6.76q2.34,4.43,2.33,11.52Zm-14-6.59q-.4-4-2.15-5.71a6.71,6.71,0,0,0-9.81.88,9.41,9.41,0,0,0-1.59,4.83Z"/><path d="M721.11,881.09,708,879.7a14.73,14.73,0,0,1,2.14-5.42,11.76,11.76,0,0,1,4-3.43,16.72,16.72,0,0,1,5.2-1.62,41.28,41.28,0,0,1,7.16-.58,56,56,0,0,1,9.94.7,12.79,12.79,0,0,1,6.25,2.88,10.22,10.22,0,0,1,2.77,4.31,15.69,15.69,0,0,1,1,5.32v15.85a19.43,19.43,0,0,0,.32,4,17.51,17.51,0,0,0,1.41,3.66H735.3a12,12,0,0,1-1-2.11,15.22,15.22,0,0,1-.48-2.28,17.62,17.62,0,0,1-5.37,3.72,22.37,22.37,0,0,1-8.48,1.49q-6.42,0-9.75-3a9.43,9.43,0,0,1-3.33-7.33,9.59,9.59,0,0,1,2.4-6.72q2.4-2.64,8.85-3.92,7.74-1.56,10-2.18a47.35,47.35,0,0,0,4.87-1.64,4.84,4.84,0,0,0-1-3.55,5.31,5.31,0,0,0-3.69-1,9.49,9.49,0,0,0-5.06,1.08A5.89,5.89,0,0,0,721.11,881.09ZM733,888.32q-2.85,1-5.92,1.79-4.18,1.11-5.3,2.19a3.52,3.52,0,0,0,0,5.19,4.78,4.78,0,0,0,3.33,1,8.49,8.49,0,0,0,4.27-1.12,6.72,6.72,0,0,0,2.81-2.72,9.09,9.09,0,0,0,.83-4.17Z"/><path d="M792.5,855.81v49.53H779.63V900a17.44,17.44,0,0,1-4.94,4.56,14,14,0,0,1-6.62,1.56q-7.34,0-11.2-5.58A23.17,23.17,0,0,1,753,887q0-8.91,4.28-13.65a14,14,0,0,1,10.86-4.73,15.17,15.17,0,0,1,5.83,1.08,13.3,13.3,0,0,1,4.64,3.25V855.81ZM778.71,887.3c0-2.81-.59-4.91-1.79-6.3a5.72,5.72,0,0,0-4.52-2.08,5,5,0,0,0-4,2q-1.64,2-1.63,6.69c0,2.92.56,5.07,1.68,6.43a5.12,5.12,0,0,0,4.14,2.05A5.55,5.55,0,0,0,777,894Q778.71,892,778.71,887.3Z"/><path d="M798.45,895.38l13.65-1.29a6.66,6.66,0,0,0,2.36,3.48,7,7,0,0,0,4,1,6.87,6.87,0,0,0,4.3-1.18,2.65,2.65,0,0,0,1.18-2.19,2.52,2.52,0,0,0-1.56-2.3,28.37,28.37,0,0,0-5.91-1.41,62.37,62.37,0,0,1-9.95-2.32,10.37,10.37,0,0,1-4.69-3.59,9.29,9.29,0,0,1-1.91-5.77,9.43,9.43,0,0,1,2.06-6.11,12.2,12.2,0,0,1,5.67-3.83,30,30,0,0,1,9.7-1.27,33.7,33.7,0,0,1,9.48,1,12.44,12.44,0,0,1,5.1,3,16,16,0,0,1,3.39,5.58l-13,1.28a4.4,4.4,0,0,0-1.69-2.53,6.89,6.89,0,0,0-3.92-1.08,5.56,5.56,0,0,0-3.39.82,2.47,2.47,0,0,0-1.07,2,2.13,2.13,0,0,0,1.36,2,21.75,21.75,0,0,0,5.87,1.22,39.61,39.61,0,0,1,10.21,2.16,11.26,11.26,0,0,1,5.12,3.94,9.72,9.72,0,0,1,1.77,5.64,11.07,11.07,0,0,1-1.88,6,12.69,12.69,0,0,1-5.91,4.68q-4,1.74-11,1.74-9.84,0-14-2.81A12.59,12.59,0,0,1,798.45,895.38Z"/><path d="M843.14,855.81H856.9v18.25a18.6,18.6,0,0,1,5.57-4.16,15.9,15.9,0,0,1,6.56-1.25,11.59,11.59,0,0,1,8.83,3.41q3.23,3.42,3.23,10.48v22.8H867.27V885.61q0-3.37-1.25-4.78a4.5,4.5,0,0,0-3.52-1.4,5,5,0,0,0-4,1.89c-1,1.26-1.55,3.53-1.55,6.79v17.23H843.14Z"/><path d="M887.61,887.51A17.94,17.94,0,0,1,893.15,874q5.54-5.31,15-5.32,10.77,0,16.28,6.25a19.54,19.54,0,0,1-1.06,26q-5.49,5.28-15.19,5.29-8.65,0-14-4.4A17.62,17.62,0,0,1,887.61,887.51Zm13.78,0q0,4.8,1.94,7.1a6.38,6.38,0,0,0,9.77,0q1.9-2.26,1.91-7.26,0-4.67-1.93-7a6,6,0,0,0-4.76-2.28,6.22,6.22,0,0,0-5,2.32Q901.39,882.74,901.39,887.47Z"/><path d="M952,855.81v13.65h7.57v10.07H952v12.71a6.77,6.77,0,0,0,.44,3,2.52,2.52,0,0,0,2.36,1.14,15.21,15.21,0,0,0,4.26-.87l1,9.49a45,45,0,0,1-9.53,1.12q-5.13,0-7.56-1.32a8.06,8.06,0,0,1-3.6-4c-.78-1.79-1.17-4.68-1.17-8.69V879.53h-5.07V869.46h5.07v-6.58Z"/><path class="cls-13" d="M189.18,1234.19a8.95,8.95,0,1,1-16.92,5.82"/><circle class="cls-14" cx="184.79" cy="1240.37" r="1.74"/><line class="cls-15" x1="143.22" y1="1241.34" x2="152.21" y2="1267.49"/><line class="cls-15" x1="236.94" y1="1209.09" x2="245.94" y2="1235.24"/><circle class="cls-14" cx="208.3" cy="1232.28" r="1.74"/><path class="cls-4" d="M140.76,1224.71c-7.09-20.6,3.62-52.26,27.44-60.45S219.94,1174.43,227,1195"/><rect class="cls-16" x="133.84" y="1209.36" width="105.62" height="15.33" transform="translate(-385.75 126.91) rotate(-18.98)"/><rect class="cls-17" x="197.54" y="1221.75" width="25.92" height="6.27" transform="translate(-387.01 135.1) rotate(-18.98)"/><rect class="cls-17" x="165.45" y="1232.79" width="25.92" height="6.27" transform="translate(-392.35 125.26) rotate(-18.98)"/><path class="cls-13" d="M217.09,1224.59a9,9,0,0,1-16.93,5.82"/><ellipse class="cls-4" cx="86.3" cy="1195.2" rx="29.69" ry="10.67" transform="translate(-1034.24 770.54) rotate(-65.11)"/><ellipse class="cls-4" cx="94.85" cy="1214.81" rx="20.07" ry="6.68" transform="translate(-390.02 96.93) rotate(-18.98)"/><circle class="cls-18" cx="104.35" cy="1188.83" r="16.84"/><circle class="cls-19" cx="366.46" cy="1261" r="9.46"/><path class="cls-19" d="M365.66,1257.55l-.44,0c-2.32-8.68-33.6-18-67.61-14.42-34.84,3.65-60.71,18.49-59.78,27.33a7,7,0,0,0,2.32,3.91l-44.88,19.46c-12.72-7.23-36.21-14-59.2-10a110.9,110.9,0,0,0-40.35,15.68,116.84,116.84,0,0,0,1.08-31.69c-3-29.92-12.15-53.11-20.08-52.3s-24.16,23.93-21.12,53.86c2.13,21,10.78,40.32,18.5,49.77a11.94,11.94,0,0,0,15.6,13.64,10.56,10.56,0,0,0,1.38-.58c8,4.89,20.37,8.1,37.73,5a194.06,194.06,0,0,0,25.79-6.64L269.9,1488l30.23-196.09a105,105,0,0,0,11.06-.53,90.94,90.94,0,0,0,28-7.45,48,48,0,0,0-1.88,13.95c.23,28.15,22.18,61.71,29.15,61.65s17.42-23,17.19-51.11S372.63,1257.5,365.66,1257.55Z"/><ellipse class="cls-4" cx="367.14" cy="1371.86" rx="7.64" ry="21.25" transform="translate(-6.91 1.87) rotate(-0.29)"/><ellipse class="cls-4" cx="360.23" cy="1363.72" rx="14.78" ry="4.65" transform="translate(-1004.07 1005.68) rotate(-60.5)"/><path class="cls-20" d="M351.85,1476.18A15.9,15.9,0,0,0,340,1465.79c-1.35-11.68-7.94-25.42-20.62-33.79-20.06-13.23-47.76-8-54.82,2.7a12.45,12.45,0,0,0-1.15,2.2c-2.78-3.39-5.86-5.8-9-6.84-13-4.36-30.37,12.64-38.89,38-5.85,17.37-6,34.14-1.34,44.38a86.48,86.48,0,0,0-21.73-7.09c-20.88-4.07-39.06-.93-40.61,7s14.13,17.68,35,21.74c10.34,2,20,2.26,27.34,1a15.9,15.9,0,0,0,27.35-15.24,54,54,0,0,0,29.93-32.12,55,55,0,0,0,2.64-21.45,76.88,76.88,0,0,0,14,11.73c12.22,8.06,25.14,12,35,11.37a15.81,15.81,0,0,0,3.84,4.4c-3.06,7.25-4.61,18.51-3.8,31,1.37,21.23,9,38,17.12,37.49s13.5-18.16,12.13-39.39c-.74-11.39-3.3-21.5-6.75-28.35A15.9,15.9,0,0,0,351.85,1476.18Z"/><ellipse class="cls-4" cx="156.72" cy="1527.4" rx="20.51" ry="9.35" transform="translate(-1352.97 1247.45) rotate(-73.64)"/><ellipse class="cls-4" cx="353.59" cy="1549.59" rx="20.51" ry="9.35" transform="translate(-484.86 199.31) rotate(-18.98)"/><rect class="cls-4" x="231.87" y="1427.7" width="51.41" height="8.31" transform="translate(-451.78 161.67) rotate(-18.98)"/><path class="cls-21" d="M250.57,1232.79c-7.82-5.16-20.15-.27-27.53,10.93a31.16,31.16,0,0,0-5.25,14.78,20.29,20.29,0,0,0-25.16,8.26,31.36,31.36,0,0,0-12.78-7.93c-12.71-4.29-25.44-.56-28.44,8.32s4.89,19.54,17.6,23.83a34.59,34.59,0,0,0,7.45,1.62,4.92,4.92,0,0,0,.24,1.06c1.63,4.73,9.54,6.3,17.67,3.5a25.4,25.4,0,0,0,3.56-1.52,3.89,3.89,0,0,0-.35,3c1.07,3.09,6.85,3.91,12.92,1.82a21.78,21.78,0,0,0,3.42-1.5s0,0,0,.07c.75,2.19,4.46,2.89,8.28,1.58s6.32-4.15,5.56-6.34v0c6.69-2.59,11.19-6.76,10.2-9.63a3.27,3.27,0,0,0-1.93-1.85q.64-.16,1.29-.39c6.73-2.31,10.87-8,9.24-12.76a5.84,5.84,0,0,0-.45-1,33.62,33.62,0,0,0,5.23-6.2C258.75,1251.2,258.39,1238,250.57,1232.79ZM224,1283.32a18.79,18.79,0,0,0,1.15-1.7,10.32,10.32,0,0,0,1.88.94A31.22,31.22,0,0,0,224,1283.32Z"/><path class="cls-14" d="M205.91,1251.41c2.38,6.92,2.49,13.16.25,13.93s-6-4.21-8.38-11.13"/></svg>