<svg id="Layer_1" data-name="Layer 1" xmlns="http://www.w3.org/2000/svg" xmlns:xlink="http://www.w3.org/1999/xlink" width="1080" height="1920" viewBox="0 0 1080 1920"><defs><style>.cls-1{fill:url(#linear-gradient);}.cls-2{fill:#b7b4a7;}.cls-3,.cls-6,.cls-7{fill:#fff;}.cls-4{fill:#c1272d;}.cls-4,.cls-5{stroke:#c1272d;}.cls-16,.cls-21,.cls-4,.cls-5{stroke-linejoin:round;}.cls-16,.cls-4{stroke-width:5px;}.cls-5,.cls-9{stroke-width:4px;}.cls-6{opacity:0.52;}.cls-7{opacity:0.6;}.cls-8{fill:#ff1f0a;}.cls-10,.cls-12,.cls-13,.cls-9{fill:none;}.cls-10,.cls-9{stroke:#000;}.cls-10,.cls-12,.cls-13,.cls-15,.cls-9{stroke-miterlimit:10;}.cls-10{stroke-width:2px;}.cls-11{fill:#ff2c1f;}.cls-12{stroke:#ff2c1f;stroke-width:29px;}.cls-13{stroke:#100015;}.cls-14{fill:#df1900;}.cls-15,.cls-21{fill:#ffdeaa;stroke:#ffdeaa;}.cls-15{stroke-width:7px;}.cls-16{fill:#8a1b00;stroke:#8a0f00;}.cls-17{fill:#100015;}.cls-18{fill:#f4f9f9;}.cls-19{fill:#020000;}.cls-20{fill:#7dadf9;}.cls-21{stroke-width:6px;}.cls-22{fill:url(#linear-gradient-2);}</style><linearGradient id="linear-gradient" x1="540.5" y1="1918.5" x2="540.5" y2="-1.5" gradientUnits="userSpaceOnUse"><stop offset="0" stop-color="#cce0f4"/><stop offset="0.15" stop-color="#c3e0f5"/><stop offset="0.4" stop-color="#a9e0f9"/><stop offset="0.72" stop-color="#80e0ff"/><stop offset="0.73" stop-color="#7fe0ff"/><stop offset="0.89" stop-color="#2ad2ff"/><stop offset="0.99" stop-color="#3fc6ff"/></linearGradient><linearGradient id="linear-gradient-2" x1="659.3" y1="407.99" x2="659.3" y2="329.03" gradientTransform="matrix(1.07, -0.08, -0.08, 1.09, 71.94, -78.35)" xlink:href="#linear-gradient"/></defs><title>Artboard 48</title><rect class="cls-1" y="-1.5" width="1081" height="1920"/><rect class="cls-2" x="390.94" y="133.5" width="674.45" height="918"/><rect class="cls-3" x="431.6" y="211.19" width="155.72" height="160.5"/><rect class="cls-3" x="649.81" y="211.19" width="155.72" height="160.5"/><rect class="cls-3" x="868.01" y="211.19" width="155.72" height="160.5"/><rect class="cls-3" x="431.6" y="413.6" width="155.72" height="160.5"/><rect class="cls-3" x="649.81" y="413.6" width="155.72" height="160.5"/><rect class="cls-3" x="868.01" y="413.6" width="155.72" height="160.5"/><rect class="cls-3" x="431.6" y="616.01" width="155.72" height="160.5"/><rect class="cls-3" x="649.81" y="616.01" width="155.72" height="160.5"/><rect class="cls-3" x="868.01" y="616.01" width="155.72" height="160.5"/><rect class="cls-4" x="649.81" y="828.99" width="155.72" height="218.77"/><ellipse class="cls-5" cx="783.21" cy="971.25" rx="10.41" ry="10.73"/><line x1="1044.49" y1="1076.96" x2="604.51" y2="1727.04"/><line x1="377.84" y1="1082.83" x2="38" y2="1279.5"/><path class="cls-3" d="M468.7,139.28c-10.09-20.34-37.35-37.09-67.55-46.93-26.33-18.13-65.73-29.66-97.83-29.85a93.63,93.63,0,0,0-46.56,11.56,182.08,182.08,0,0,0-46.09-6.76c-57-.33-74.52,43-122.93,56.48C1.16,148,85.16,205.22,198.26,183c23.54,17.58,81.59,28.9,147.51,12.77C404.46,181.41,482.07,166.25,468.7,139.28Z"/><circle class="cls-3" cx="37.5" cy="1802" r="22.5"/><circle class="cls-3" cx="81.5" cy="1802" r="22.5"/><circle class="cls-3" cx="193.5" cy="1764" r="22.5"/><circle class="cls-3" cx="148.5" cy="1764" r="22.5"/><circle class="cls-3" cx="104.5" cy="1764" r="22.5"/><circle class="cls-3" cx="59.5" cy="1764" r="22.5"/><circle class="cls-3" cx="216.5" cy="1802" r="22.5"/><circle class="cls-3" cx="171.5" cy="1802" r="22.5"/><circle class="cls-3" cx="126.5" cy="1802" r="22.5"/><circle class="cls-3" cx="125.5" cy="1638" r="22.5"/><circle class="cls-3" cx="148.5" cy="1681" r="22.5"/><circle class="cls-3" cx="103.5" cy="1681" r="22.5"/><circle class="cls-3" cx="171.5" cy="1724" r="22.5"/><circle class="cls-3" cx="126.5" cy="1724" r="22.5"/><circle class="cls-3" cx="81.5" cy="1724" r="22.5"/><path class="cls-3" d="M1022.56,49.71c-4.36-8.8-16.15-16-29.21-20.3C982,21.57,964.91,16.58,951,16.5a40.52,40.52,0,0,0-20.14,5A78.46,78.46,0,0,0,911,18.58C886.3,18.43,878.72,37.15,857.78,43c-37.45,10.46-1.12,35.22,47.81,25.61,10.18,7.6,35.28,12.5,63.8,5.52C994.78,67.93,1028.34,61.38,1022.56,49.71Z"/><path class="cls-6" d="M462.34,96.79a42.25,42.25,0,0,0-17-24.63c-6.62-9.51-16.52-15.56-24.59-15.66-4.79-.06-8.47,2.45-11.71,6.07A24.39,24.39,0,0,0,397.46,59c-14.32-.17-18.73,22.53-30.9,29.64-21.77,12.69-.65,42.73,27.78,31.06,5.92,9.23,20.52,15.17,37.09,6.71C446.19,118.9,465.7,110.94,462.34,96.79Z"/><path class="cls-7" d="M932.84,66c-4.4-11.52-16.3-21-29.48-26.57-11.49-10.26-28.68-16.79-42.69-16.9a33.77,33.77,0,0,0-20.32,6.55,62.49,62.49,0,0,0-20.11-3.83c-24.87-.19-32.52,24.31-53.64,32-37.79,13.7-1.13,46.1,48.23,33.52,10.27,10,35.6,16.36,64.37,7.23C904.8,89.82,938.67,81.23,932.84,66Z"/><path class="cls-3" d="M550,1917.5c0-90.85,178.92-156.36,390.5-192,162.51-27.38,136.63,170,139.5,192"/><path class="cls-8" d="M975.22,1884.87c9.43.47,20.78-30,15.95-38.89-7-12.8-16-.44-15.91,6.16"/><path class="cls-8" d="M975.22,1884.87c-9.43.47-20.78-30-16-38.89,7-12.8,16-.44,15.91,6.16"/><path class="cls-8" d="M899.58,1884.87c9.42.47,20.78-30,15.94-38.89-7-12.8-16-.44-15.9,6.16"/><path class="cls-8" d="M899.57,1884.87c-9.43.47-20.78-30-15.94-38.89,7-12.8,16-.44,15.9,6.16"/><path class="cls-8" d="M937.4,1884.87c9.43.47,20.78-30,16-38.89-7-12.8-16-.44-15.91,6.16"/><path class="cls-8" d="M937.4,1884.87c-9.43.47-20.79-30-15.95-38.89,7-12.8,16-.44,15.9,6.16"/><rect class="cls-9" x="870" y="1828.9" width="136" height="67.6"/><path d="M696.21,1798.84h8.09a5.54,5.54,0,0,1,4,1.26,4.68,4.68,0,0,1,1.31,3.57,4.84,4.84,0,0,1-1.43,3.73,6.21,6.21,0,0,1-4.38,1.34H701.1v5.85h-4.89Zm4.89,6.71h1.19a3.05,3.05,0,0,0,2-.49,1.56,1.56,0,0,0,.57-1.25,1.74,1.74,0,0,0-.5-1.25,2.54,2.54,0,0,0-1.86-.52H701.1Z"/><path d="M710.72,1808.92a5.71,5.71,0,0,1,1.77-4.31,6.6,6.6,0,0,1,4.75-1.69,6.52,6.52,0,0,1,5.18,2,5.75,5.75,0,0,1,1.41,3.94,5.69,5.69,0,0,1-1.75,4.31,6.62,6.62,0,0,1-4.82,1.69,6.77,6.77,0,0,1-4.45-1.4A5.6,5.6,0,0,1,710.72,1808.92Zm4.39,0a3.45,3.45,0,0,0,.61,2.25,2,2,0,0,0,3.11,0,3.59,3.59,0,0,0,.61-2.31,3.37,3.37,0,0,0-.62-2.21,1.89,1.89,0,0,0-1.51-.72,2,2,0,0,0-1.58.74A3.37,3.37,0,0,0,715.11,1808.91Z"/><path d="M726.1,1798.84h4.37v3H726.1Zm0,4.34h4.37v11.41H726.1Z"/><path d="M733.26,1803.18h4.07V1805a6.17,6.17,0,0,1,1.85-1.63,4.8,4.8,0,0,1,2.28-.49,3.72,3.72,0,0,1,2.84,1.08,4.72,4.72,0,0,1,1,3.34v7.25h-4.39v-6.28a2.27,2.27,0,0,0-.4-1.52,1.42,1.42,0,0,0-1.11-.44,1.59,1.59,0,0,0-1.29.6,3.49,3.49,0,0,0-.5,2.16v5.48h-4.37Z"/><path d="M753.21,1798.84v4.34h2.41v3.2h-2.41v4a2.24,2.24,0,0,0,.14,1,.79.79,0,0,0,.75.36,4.71,4.71,0,0,0,1.36-.28l.32,3a14,14,0,0,1-3,.36,5.28,5.28,0,0,1-2.41-.42,2.57,2.57,0,0,1-1.14-1.27,7.44,7.44,0,0,1-.37-2.77v-4h-1.62v-3.2h1.62v-2.1Z"/><line class="cls-10" x1="760" y1="1818.5" x2="693" y2="1818.5"/><path d="M922.39,1798.84h4.87v11.87h7.59v3.88H922.39Z"/><path d="M936.94,1798.84h4.37v3h-4.37Zm0,4.34h4.37v11.41h-4.37Z"/><path d="M942.81,1803.18h4.55l2.22,7.23,2.29-7.23h4.41l-4.84,11.41h-3.88Z"/><line class="cls-10" x1="968" y1="1818.5" x2="908" y2="1818.5"/><path class="cls-11" d="M64.86,864c324.91-.79,610.18,79.14,830,216.88q72.5-140,158.1-284.3C765.06,678.52,416.64,627.81,35.39,666A1708.5,1708.5,0,0,0,64.86,864Z"/><path class="cls-12" d="M64.86,864c324.91-.79,610.18,79.14,830,216.88q72.5-140,158.1-284.3C765.06,678.52,416.64,627.81,35.39,666A1708.5,1708.5,0,0,0,64.86,864Z"/><path d="M126.91,684.79h17l10,16.7,10-16.7H180.8l-19.26,28.78v20.75H146.2V713.57Z"/><path d="M177.25,716.48A17.94,17.94,0,0,1,182.79,703q5.53-5.33,15-5.33,10.77,0,16.28,6.26a19.53,19.53,0,0,1-1.06,26q-5.49,5.29-15.19,5.29-8.64,0-14-4.4A17.6,17.6,0,0,1,177.25,716.48Zm13.78,0q0,4.8,1.95,7.1a6.35,6.35,0,0,0,9.76,0q1.9-2.27,1.91-7.26c0-3.11-.64-5.43-1.93-6.94a6,6,0,0,0-4.76-2.29,6.26,6.26,0,0,0-5,2.32C191.69,710.94,191,713.29,191,716.44Z"/><path d="M262.9,734.32H250.06V728.5a19.07,19.07,0,0,1-5.8,5.11,15.44,15.44,0,0,1-7.18,1.52q-5.67,0-8.9-3.4T225,721.27V698.44h13.81v19.73q0,3.38,1.25,4.79a4.45,4.45,0,0,0,3.52,1.42,5,5,0,0,0,4-1.89c1-1.26,1.57-3.52,1.57-6.79V698.44H262.9Z"/><path d="M290.13,684.79h14.54l5.23,27.72,7.66-27.72h14.49l7.67,27.69L345,684.79h14.47l-10.92,49.53h-15l-8.69-31.19-8.65,31.19h-15Z"/><path d="M366.32,684.79h13.75v9.35H366.32Zm0,13.65h13.75v35.88H366.32Z"/><path d="M388.85,698.44h12.81v5.84a19,19,0,0,1,5.81-5.12,15.37,15.37,0,0,1,7.16-1.54q5.72,0,8.94,3.4t3.23,10.49v22.81H413V714.58q0-3.37-1.25-4.78a4.5,4.5,0,0,0-3.52-1.4,5,5,0,0,0-4,1.89q-1.56,1.9-1.56,6.79v17.24H388.85Z"/><path d="M253.81,776h46.52v12.23H284.72v37.3h-15.3v-37.3H253.81Z"/><path d="M308.2,776H322v18.25a18.6,18.6,0,0,1,5.57-4.16,15.88,15.88,0,0,1,6.55-1.25,11.6,11.6,0,0,1,8.84,3.41q3.22,3.42,3.23,10.48v22.8H332.33V805.8q0-3.37-1.25-4.78a4.5,4.5,0,0,0-3.52-1.4,5,5,0,0,0-4.05,1.89c-1,1.26-1.55,3.53-1.55,6.79v17.23H308.2Z"/><path d="M394.19,811H366.62a8.9,8.9,0,0,0,1.79,4.93,6.53,6.53,0,0,0,5.2,2.33,7.89,7.89,0,0,0,3.86-1,9.1,9.1,0,0,0,2.39-2.27l13.55,1.25a19.38,19.38,0,0,1-7.5,7.76q-4.4,2.34-12.6,2.35-7.12,0-11.22-2a16.39,16.39,0,0,1-6.77-6.38,19.3,19.3,0,0,1-2.69-10.29q0-8.42,5.39-13.62t14.88-5.2q7.71,0,12.17,2.33a15.83,15.83,0,0,1,6.79,6.76q2.33,4.43,2.33,11.52Zm-14-6.59q-.4-4-2.14-5.71a6.72,6.72,0,0,0-9.82.88,9.6,9.6,0,0,0-1.59,4.83Z"/><path d="M421,776h46.52v12.23H451.93v37.3h-15.3v-37.3H421Z"/><path d="M475.41,776h13.75v18.25a18.63,18.63,0,0,1,5.58-4.16,15.85,15.85,0,0,1,6.55-1.25,11.6,11.6,0,0,1,8.84,3.41q3.23,3.42,3.22,10.48v22.8H499.54V805.8q0-3.37-1.25-4.78a4.5,4.5,0,0,0-3.52-1.4,5,5,0,0,0-4,1.89c-1,1.26-1.56,3.53-1.56,6.79v17.23H475.41Z"/><path d="M522.07,776h13.75v9.36H522.07Zm0,13.65h13.75v35.88H522.07Z"/><path d="M584.44,811H556.87a8.9,8.9,0,0,0,1.79,4.93,6.53,6.53,0,0,0,5.2,2.33,7.89,7.89,0,0,0,3.86-1,9.1,9.1,0,0,0,2.39-2.27l13.55,1.25a19.38,19.38,0,0,1-7.5,7.76q-4.39,2.34-12.6,2.35-7.12,0-11.22-2a16.39,16.39,0,0,1-6.77-6.38,19.3,19.3,0,0,1-2.69-10.29q0-8.42,5.39-13.62t14.88-5.2q7.71,0,12.17,2.33a15.83,15.83,0,0,1,6.79,6.76q2.32,4.43,2.33,11.52Zm-14-6.59q-.41-4-2.14-5.71a6.72,6.72,0,0,0-9.82.88,9.6,9.6,0,0,0-1.59,4.83Z"/><path d="M606.06,789.65h6.56v10.07h-6.56v25.81H592.28V799.72h-5.14V789.65h5.14V788a27.11,27.11,0,0,1,.47-4.83,9.85,9.85,0,0,1,1.77-4.31,9.3,9.3,0,0,1,3.65-2.7,17.79,17.79,0,0,1,6.88-1,94.21,94.21,0,0,1,10.51.84L614,784.31a25.81,25.81,0,0,0-4-.4,4.4,4.4,0,0,0-2.67.63,3.44,3.44,0,0,0-1.15,2A18.18,18.18,0,0,0,606.06,789.65Z"/><path d="M670.59,807.59v-10.3h23.65v21.12a48.68,48.68,0,0,1-12,6.3,40.89,40.89,0,0,1-12.38,1.67q-8.82,0-14.38-3a20.6,20.6,0,0,1-8.61-9,29.42,29.42,0,0,1-3.06-13.65,28.51,28.51,0,0,1,3.35-14.11,21.68,21.68,0,0,1,9.79-9.1q5-2.4,13.55-2.4,8.22,0,12.28,1.49a15.84,15.84,0,0,1,6.76,4.61,20.44,20.44,0,0,1,4,7.92l-14.77,2.64a7.91,7.91,0,0,0-3.09-4.29,9.56,9.56,0,0,0-5.55-1.49,10,10,0,0,0-8,3.5q-3,3.5-3,11.06,0,8,3,11.49a10.62,10.62,0,0,0,8.42,3.44,15.84,15.84,0,0,0,4.9-.74,26.62,26.62,0,0,0,5.34-2.53v-4.67Z"/><path d="M700.73,807.7a18,18,0,0,1,5.54-13.54q5.55-5.31,15-5.32,10.77,0,16.28,6.25a19.54,19.54,0,0,1-1.06,26q-5.49,5.28-15.19,5.29-8.64,0-14-4.4A17.62,17.62,0,0,1,700.73,807.7Zm13.79,0c0,3.2.64,5.56,1.94,7.1a6.37,6.37,0,0,0,9.76,0c1.28-1.51,1.91-3.93,1.91-7.26q0-4.66-1.92-6.95a6,6,0,0,0-4.77-2.28,6.2,6.2,0,0,0-5,2.32Q714.51,802.93,714.52,807.66Z"/><path d="M765.16,776v13.65h7.57v10.07h-7.57v12.71a6.92,6.92,0,0,0,.44,3,2.53,2.53,0,0,0,2.37,1.15,15.25,15.25,0,0,0,4.25-.88l1,9.49a45.1,45.1,0,0,1-9.53,1.12c-3.42,0-6-.44-7.57-1.32a8.06,8.06,0,0,1-3.6-4c-.77-1.79-1.16-4.68-1.16-8.69V799.72h-5.07V789.65h5.07v-6.59Z"/><path d="M610.76,856.81h15.31v17.34h16.72V856.81h15.37v49.53H642.79v-20H626.07v20H610.76Z"/><path d="M707.25,891.82H679.69a8.82,8.82,0,0,0,1.79,4.93,6.51,6.51,0,0,0,5.2,2.33,7.88,7.88,0,0,0,3.85-1,9.27,9.27,0,0,0,2.4-2.27l13.55,1.25a19.38,19.38,0,0,1-7.5,7.76q-4.4,2.34-12.6,2.35-7.14,0-11.22-2a16.42,16.42,0,0,1-6.78-6.38,19.29,19.29,0,0,1-2.68-10.29q0-8.41,5.39-13.61T686,869.65q7.71,0,12.16,2.33a15.72,15.72,0,0,1,6.79,6.76q2.34,4.43,2.33,11.52Zm-14-6.59q-.4-4-2.15-5.71a6.71,6.71,0,0,0-9.81.88,9.41,9.41,0,0,0-1.59,4.83Z"/><path d="M726.11,882.09,713,880.7a14.73,14.73,0,0,1,2.14-5.42,11.76,11.76,0,0,1,4-3.43,16.72,16.72,0,0,1,5.2-1.62,41.28,41.28,0,0,1,7.16-.58,56,56,0,0,1,9.94.7,12.79,12.79,0,0,1,6.25,2.88,10.22,10.22,0,0,1,2.77,4.31,15.69,15.69,0,0,1,1,5.32v15.85a19.43,19.43,0,0,0,.32,4,17.51,17.51,0,0,0,1.41,3.66H740.3a12,12,0,0,1-1-2.11,15.22,15.22,0,0,1-.48-2.28,17.62,17.62,0,0,1-5.37,3.72,22.37,22.37,0,0,1-8.48,1.49q-6.42,0-9.75-3a9.43,9.43,0,0,1-3.33-7.33,9.57,9.57,0,0,1,2.4-6.72q2.4-2.64,8.85-3.92,7.74-1.56,10-2.18a47.35,47.35,0,0,0,4.87-1.64,4.84,4.84,0,0,0-1-3.55,5.31,5.31,0,0,0-3.69-1,9.49,9.49,0,0,0-5.06,1.08A5.89,5.89,0,0,0,726.11,882.09ZM738,889.32q-2.85,1-5.92,1.79-4.18,1.11-5.3,2.19a3.52,3.52,0,0,0,0,5.19,4.78,4.78,0,0,0,3.33,1,8.49,8.49,0,0,0,4.27-1.12,6.72,6.72,0,0,0,2.81-2.72,9.09,9.09,0,0,0,.83-4.17Z"/><path d="M797.5,856.81v49.53H784.63V901a17.44,17.44,0,0,1-4.94,4.56,14,14,0,0,1-6.62,1.56q-7.34,0-11.2-5.58A23.17,23.17,0,0,1,758,888q0-8.91,4.28-13.65a14,14,0,0,1,10.86-4.73,15.17,15.17,0,0,1,5.83,1.08,13.43,13.43,0,0,1,4.64,3.25V856.81ZM783.71,888.3c0-2.81-.59-4.91-1.79-6.3a5.72,5.72,0,0,0-4.52-2.08,5,5,0,0,0-4,2q-1.64,2-1.63,6.69,0,4.39,1.68,6.43a5.12,5.12,0,0,0,4.14,2.05A5.55,5.55,0,0,0,782,895Q783.71,893,783.71,888.3Z"/><path d="M803.45,896.38l13.65-1.29a6.7,6.7,0,0,0,2.36,3.48,7,7,0,0,0,4,1,6.87,6.87,0,0,0,4.3-1.18,2.65,2.65,0,0,0,1.18-2.19,2.52,2.52,0,0,0-1.56-2.3,28.37,28.37,0,0,0-5.91-1.41,62.37,62.37,0,0,1-9.95-2.32,10.37,10.37,0,0,1-4.69-3.59,9.29,9.29,0,0,1-1.91-5.77,9.43,9.43,0,0,1,2.06-6.11,12.2,12.2,0,0,1,5.67-3.83,30,30,0,0,1,9.7-1.27,33.7,33.7,0,0,1,9.48,1,12.44,12.44,0,0,1,5.1,3,16,16,0,0,1,3.39,5.58l-13,1.28a4.4,4.4,0,0,0-1.69-2.53,6.89,6.89,0,0,0-3.92-1.08,5.56,5.56,0,0,0-3.39.82,2.47,2.47,0,0,0-1.07,2,2.13,2.13,0,0,0,1.36,2,21.75,21.75,0,0,0,5.87,1.22,39.61,39.61,0,0,1,10.21,2.16,11.26,11.26,0,0,1,5.12,3.94,9.72,9.72,0,0,1,1.77,5.64,11.07,11.07,0,0,1-1.88,6,12.69,12.69,0,0,1-5.91,4.68q-4,1.74-11,1.74-9.84,0-14-2.81A12.59,12.59,0,0,1,803.45,896.38Z"/><path d="M848.14,856.81H861.9v18.25a18.6,18.6,0,0,1,5.57-4.16,15.9,15.9,0,0,1,6.56-1.25,11.59,11.59,0,0,1,8.83,3.41q3.23,3.42,3.23,10.48v22.8H872.27V886.61q0-3.37-1.25-4.78a4.5,4.5,0,0,0-3.52-1.4,5,5,0,0,0-4,1.89c-1,1.26-1.55,3.53-1.55,6.79v17.23H848.14Z"/><path d="M892.61,888.51A17.94,17.94,0,0,1,898.15,875q5.54-5.31,15-5.32,10.77,0,16.28,6.25a19.54,19.54,0,0,1-1.06,26q-5.49,5.28-15.19,5.29-8.65,0-14-4.4A17.62,17.62,0,0,1,892.61,888.51Zm13.78,0q0,4.8,1.94,7.1a6.38,6.38,0,0,0,9.77,0q1.9-2.26,1.91-7.26,0-4.67-1.93-7a6,6,0,0,0-4.76-2.28,6.22,6.22,0,0,0-5,2.32Q906.39,883.74,906.39,888.47Z"/><path d="M957,856.81v13.65h7.57v10.07H957v12.71a6.77,6.77,0,0,0,.44,3,2.52,2.52,0,0,0,2.36,1.14,15.21,15.21,0,0,0,4.26-.87l1,9.49a45,45,0,0,1-9.53,1.12q-5.13,0-7.56-1.32a8.06,8.06,0,0,1-3.6-4c-.78-1.79-1.17-4.68-1.17-8.69V880.53h-5.07V870.46h5.07v-6.58Z"/><path class="cls-13" d="M186.18,1235.19a8.95,8.95,0,1,1-16.92,5.82"/><circle class="cls-14" cx="181.79" cy="1241.37" r="1.74"/><line class="cls-15" x1="140.22" y1="1242.34" x2="149.21" y2="1268.49"/><line class="cls-15" x1="233.94" y1="1210.09" x2="242.94" y2="1236.24"/><circle class="cls-14" cx="205.3" cy="1233.28" r="1.74"/><path class="cls-4" d="M137.76,1225.71c-7.09-20.6,3.62-52.26,27.44-60.45S216.94,1175.43,224,1196"/><rect class="cls-16" x="130.84" y="1210.36" width="105.62" height="15.33" transform="translate(-386.24 125.99) rotate(-18.98)"/><rect class="cls-17" x="194.54" y="1222.75" width="25.92" height="6.27" transform="translate(-387.5 134.18) rotate(-18.98)"/><rect class="cls-17" x="162.45" y="1233.79" width="25.92" height="6.27" transform="translate(-392.84 124.34) rotate(-18.98)"/><path class="cls-13" d="M214.09,1225.59a9,9,0,0,1-16.93,5.82"/><ellipse class="cls-4" cx="83.3" cy="1196.2" rx="29.69" ry="10.67" transform="translate(-1036.88 768.4) rotate(-65.11)"/><ellipse class="cls-4" cx="91.85" cy="1215.81" rx="20.07" ry="6.68" transform="translate(-390.51 96.01) rotate(-18.98)"/><circle class="cls-18" cx="101.35" cy="1189.83" r="16.84"/><circle class="cls-19" cx="363.46" cy="1262" r="9.46"/><path class="cls-19" d="M362.66,1258.55l-.44,0c-2.32-8.68-33.6-18-67.61-14.42-34.84,3.65-60.71,18.49-59.78,27.33a7,7,0,0,0,2.32,3.91l-44.88,19.46c-12.72-7.23-36.21-14-59.2-10a110.9,110.9,0,0,0-40.35,15.68,116.84,116.84,0,0,0,1.08-31.69c-3-29.92-12.15-53.11-20.08-52.3s-24.16,23.93-21.12,53.86c2.13,21,10.78,40.32,18.5,49.77a11.94,11.94,0,0,0,15.6,13.64,10.56,10.56,0,0,0,1.38-.58c8,4.89,20.37,8.1,37.73,5a194.06,194.06,0,0,0,25.79-6.64L266.9,1489l30.23-196.09a105,105,0,0,0,11.06-.53,90.94,90.94,0,0,0,28-7.45,48,48,0,0,0-1.88,13.95c.23,28.15,22.18,61.71,29.15,61.65s17.42-23,17.19-51.11S369.63,1258.5,362.66,1258.55Z"/><ellipse class="cls-4" cx="364.14" cy="1372.86" rx="7.64" ry="21.25" transform="translate(-6.92 1.85) rotate(-0.29)"/><ellipse class="cls-4" cx="357.23" cy="1364.72" rx="14.78" ry="4.65" transform="translate(-1006.46 1003.57) rotate(-60.5)"/><path class="cls-20" d="M348.85,1477.18A15.9,15.9,0,0,0,337,1466.79c-1.35-11.68-7.94-25.42-20.62-33.79-20.06-13.23-47.76-8-54.82,2.7a12.45,12.45,0,0,0-1.15,2.2c-2.78-3.39-5.86-5.8-9-6.84-13-4.36-30.37,12.64-38.89,38-5.85,17.37-6,34.14-1.34,44.38a86.48,86.48,0,0,0-21.73-7.09c-20.88-4.07-39.06-.93-40.61,7s14.13,17.68,35,21.74c10.34,2,20,2.26,27.34,1a15.9,15.9,0,0,0,27.35-15.24,54,54,0,0,0,29.93-32.12,55,55,0,0,0,2.64-21.45,76.88,76.88,0,0,0,14,11.73c12.22,8.06,25.14,12,35,11.37a15.81,15.81,0,0,0,3.84,4.4c-3.06,7.25-4.61,18.51-3.8,31,1.37,21.23,9,38,17.12,37.49s13.5-18.16,12.13-39.39c-.74-11.39-3.3-21.5-6.75-28.35A15.9,15.9,0,0,0,348.85,1477.18Z"/><ellipse class="cls-4" cx="153.72" cy="1528.4" rx="20.51" ry="9.35" transform="translate(-1356.08 1245.29) rotate(-73.64)"/><ellipse class="cls-4" cx="350.59" cy="1550.59" rx="20.51" ry="9.35" transform="translate(-485.34 198.39) rotate(-18.98)"/><rect class="cls-4" x="228.87" y="1428.7" width="51.41" height="8.31" transform="translate(-452.27 160.75) rotate(-18.98)"/><path class="cls-21" d="M247.57,1233.79c-7.82-5.16-20.15-.27-27.53,10.93a31.16,31.16,0,0,0-5.25,14.78,20.29,20.29,0,0,0-25.16,8.26,31.36,31.36,0,0,0-12.78-7.93c-12.71-4.29-25.44-.56-28.44,8.32s4.89,19.54,17.6,23.83a34.59,34.59,0,0,0,7.45,1.62,4.92,4.92,0,0,0,.24,1.06c1.63,4.73,9.54,6.3,17.67,3.5a25.4,25.4,0,0,0,3.56-1.52,3.89,3.89,0,0,0-.35,3c1.07,3.09,6.85,3.91,12.92,1.82a21.78,21.78,0,0,0,3.42-1.5s0,0,0,.07c.75,2.19,4.46,2.89,8.28,1.58s6.32-4.15,5.56-6.34v0c6.69-2.59,11.19-6.76,10.2-9.63a3.27,3.27,0,0,0-1.93-1.85q.64-.16,1.29-.39c6.73-2.31,10.87-8,9.24-12.76a5.84,5.84,0,0,0-.45-1,33.62,33.62,0,0,0,5.23-6.2C255.75,1252.2,255.39,1239,247.57,1233.79ZM221,1284.32a18.79,18.79,0,0,0,1.15-1.7,10.32,10.32,0,0,0,1.88.94A31.22,31.22,0,0,0,221,1284.32Z"/><path class="cls-14" d="M202.91,1252.41c2.38,6.92,2.49,13.16.25,13.93s-6-4.21-8.38-11.13"/><polygon class="cls-22" points="787.14 285.41 760.75 278.98 769.4 304.72 752.78 284.19 745.48 312.7 743.9 284.59 722.95 306.8 736.92 280.04 708.99 288.91 734.07 271.99 708.01 264.7 736.24 263 720.33 241.86 742.74 255.91 742.04 227.64 751.52 252.99 766.25 226.56 759.78 255.15 785.26 238.95 764.91 261.71 793.05 260.89 765.27 270.6 787.14 285.41"/></svg>