<svg id="Layer_1" data-name="Layer 1" xmlns="http://www.w3.org/2000/svg" xmlns:xlink="http://www.w3.org/1999/xlink" width="1080" height="1920" viewBox="0 0 1080 1920"><defs><style>.cls-1{fill:url(#linear-gradient);}.cls-2{fill:#b7b4a7;}.cls-3,.cls-6,.cls-7{fill:#fff;}.cls-4{fill:#c1272d;stroke-width:5px;}.cls-4,.cls-5{stroke:#c1272d;stroke-linejoin:round;}.cls-5,.cls-9{stroke-width:4px;}.cls-6{opacity:0.52;}.cls-7{opacity:0.6;}.cls-8{fill:#ff1f0a;}.cls-10,.cls-9{fill:none;stroke:#000;stroke-miterlimit:10;}.cls-10{stroke-width:2px;}</style><linearGradient id="linear-gradient" x1="540" y1="1919.5" x2="540" y2="-0.5" gradientUnits="userSpaceOnUse"><stop offset="0" stop-color="#cce0f4"/><stop offset="0.15" stop-color="#c3e0f5"/><stop offset="0.4" stop-color="#a9e0f9"/><stop offset="0.72" stop-color="#80e0ff"/><stop offset="0.73" stop-color="#7fe0ff"/><stop offset="0.89" stop-color="#2ad2ff"/><stop offset="0.99" stop-color="#3fc6ff"/></linearGradient></defs><title>Baggrund lodret</title><rect class="cls-1" x="-0.5" y="-0.5" width="1081" height="1920"/><rect class="cls-2" x="390.44" y="134.5" width="674.45" height="918"/><rect class="cls-3" x="431.1" y="212.19" width="155.72" height="160.5"/><rect class="cls-3" x="649.31" y="212.19" width="155.72" height="160.5"/><rect class="cls-3" x="867.51" y="212.19" width="155.72" height="160.5"/><rect class="cls-3" x="431.1" y="414.6" width="155.72" height="160.5"/><rect class="cls-3" x="649.31" y="414.6" width="155.72" height="160.5"/><rect class="cls-3" x="867.51" y="414.6" width="155.72" height="160.5"/><rect class="cls-3" x="431.1" y="617.01" width="155.72" height="160.5"/><rect class="cls-3" x="649.31" y="617.01" width="155.72" height="160.5"/><rect class="cls-3" x="867.51" y="617.01" width="155.72" height="160.5"/><rect class="cls-4" x="649.31" y="829.99" width="155.72" height="218.77"/><ellipse class="cls-5" cx="782.71" cy="972.25" rx="10.41" ry="10.73"/><line x1="1043.99" y1="1077.96" x2="604.01" y2="1728.04"/><line x1="377.34" y1="1083.83" x2="37.5" y2="1280.5"/><path class="cls-3" d="M468.2,140.28c-10.09-20.34-37.35-37.09-67.55-46.93-26.33-18.13-65.73-29.66-97.83-29.85a93.63,93.63,0,0,0-46.56,11.56,182.08,182.08,0,0,0-46.09-6.76c-57-.33-74.52,43-122.93,56.48C.66,149,84.66,206.22,197.76,184c23.54,17.58,81.59,28.9,147.51,12.77C404,182.41,481.57,167.25,468.2,140.28Z"/><circle class="cls-3" cx="37" cy="1803" r="22.5"/><circle class="cls-3" cx="81" cy="1803" r="22.5"/><circle class="cls-3" cx="193" cy="1765" r="22.5"/><circle class="cls-3" cx="148" cy="1765" r="22.5"/><circle class="cls-3" cx="104" cy="1765" r="22.5"/><circle class="cls-3" cx="59" cy="1765" r="22.5"/><circle class="cls-3" cx="216" cy="1803" r="22.5"/><circle class="cls-3" cx="171" cy="1803" r="22.5"/><circle class="cls-3" cx="126" cy="1803" r="22.5"/><circle class="cls-3" cx="125" cy="1639" r="22.5"/><circle class="cls-3" cx="148" cy="1682" r="22.5"/><circle class="cls-3" cx="103" cy="1682" r="22.5"/><circle class="cls-3" cx="171" cy="1725" r="22.5"/><circle class="cls-3" cx="126" cy="1725" r="22.5"/><circle class="cls-3" cx="81" cy="1725" r="22.5"/><path class="cls-3" d="M1022.06,50.71c-4.36-8.8-16.15-16-29.21-20.3-11.4-7.84-28.44-12.83-42.32-12.91a40.52,40.52,0,0,0-20.14,5,78.46,78.46,0,0,0-19.94-2.92C885.8,19.43,878.22,38.15,857.28,44c-37.45,10.46-1.12,35.22,47.81,25.61,10.18,7.6,35.28,12.5,63.8,5.52C994.28,68.93,1027.84,62.38,1022.06,50.71Z"/><path class="cls-6" d="M461.84,97.79a42.25,42.25,0,0,0-17-24.63c-6.62-9.51-16.52-15.56-24.59-15.66-4.79-.06-8.47,2.45-11.71,6.07A24.39,24.39,0,0,0,397,60c-14.32-.17-18.73,22.53-30.9,29.64-21.77,12.69-.65,42.73,27.78,31.06,5.92,9.23,20.52,15.17,37.09,6.71C445.69,119.9,465.2,111.94,461.84,97.79Z"/><path class="cls-7" d="M932.34,67c-4.4-11.52-16.3-21-29.48-26.57-11.49-10.26-28.68-16.79-42.69-16.9a33.77,33.77,0,0,0-20.32,6.55,62.49,62.49,0,0,0-20.11-3.83c-24.87-.19-32.52,24.31-53.64,32-37.79,13.7-1.13,46.1,48.23,33.52,10.27,10,35.6,16.36,64.37,7.23C904.3,90.82,938.17,82.23,932.34,67Z"/><path class="cls-3" d="M549.5,1918.5c0-90.85,178.92-156.36,390.5-192,162.51-27.38,136.63,170,139.5,192"/><path class="cls-8" d="M974.72,1885.87c9.43.47,20.78-30,15.95-38.89-7-12.8-16-.44-15.91,6.16"/><path class="cls-8" d="M974.72,1885.87c-9.43.47-20.78-30-16-38.89,7-12.8,16-.44,15.91,6.16"/><path class="cls-8" d="M899.08,1885.87c9.42.47,20.78-30,15.94-38.89-7-12.8-16-.44-15.9,6.16"/><path class="cls-8" d="M899.07,1885.87c-9.43.47-20.78-30-15.94-38.89,7-12.8,16-.44,15.9,6.16"/><path class="cls-8" d="M936.9,1885.87c9.43.47,20.78-30,16-38.89-7-12.8-16-.44-15.91,6.16"/><path class="cls-8" d="M936.9,1885.87c-9.43.47-20.79-30-15.95-38.89,7-12.8,16-.44,15.9,6.16"/><rect class="cls-9" x="869.5" y="1829.9" width="136" height="67.6"/><path d="M695.71,1799.84h8.09a5.54,5.54,0,0,1,4,1.26,4.68,4.68,0,0,1,1.31,3.57,4.84,4.84,0,0,1-1.43,3.73,6.19,6.19,0,0,1-4.38,1.34H700.6v5.85h-4.89Zm4.89,6.71h1.19a3.05,3.05,0,0,0,2-.49,1.56,1.56,0,0,0,.57-1.25,1.74,1.74,0,0,0-.5-1.25A2.54,2.54,0,0,0,702,1803H700.6Z"/><path d="M710.22,1809.92a5.71,5.71,0,0,1,1.77-4.31,6.6,6.6,0,0,1,4.75-1.69,6.52,6.52,0,0,1,5.18,2,5.75,5.75,0,0,1,1.41,3.94,5.69,5.69,0,0,1-1.75,4.31,6.62,6.62,0,0,1-4.82,1.69,6.77,6.77,0,0,1-4.45-1.4A5.6,5.6,0,0,1,710.22,1809.92Zm4.39,0a3.45,3.45,0,0,0,.61,2.25,2,2,0,0,0,3.11,0,3.59,3.59,0,0,0,.61-2.31,3.37,3.37,0,0,0-.62-2.21,1.89,1.89,0,0,0-1.51-.72,2,2,0,0,0-1.58.74A3.37,3.37,0,0,0,714.61,1809.91Z"/><path d="M725.6,1799.84H730v3H725.6Zm0,4.34H730v11.41H725.6Z"/><path d="M732.76,1804.18h4.07V1806a6.17,6.17,0,0,1,1.85-1.63,4.8,4.8,0,0,1,2.28-.49,3.74,3.74,0,0,1,2.84,1.08,4.72,4.72,0,0,1,1,3.34v7.25h-4.39v-6.28a2.27,2.27,0,0,0-.4-1.52,1.42,1.42,0,0,0-1.11-.44,1.59,1.59,0,0,0-1.29.6,3.49,3.49,0,0,0-.5,2.16v5.48h-4.37Z"/><path d="M752.71,1799.84v4.34h2.41v3.2h-2.41v4a2.24,2.24,0,0,0,.14,1,.79.79,0,0,0,.75.36,4.66,4.66,0,0,0,1.35-.28l.33,3a14,14,0,0,1-3,.36,5.28,5.28,0,0,1-2.41-.42,2.57,2.57,0,0,1-1.14-1.27,7.44,7.44,0,0,1-.37-2.77v-4h-1.61v-3.2h1.61v-2.1Z"/><line class="cls-10" x1="759.5" y1="1819.5" x2="692.5" y2="1819.5"/><path d="M921.89,1799.84h4.87v11.87h7.59v3.88H921.89Z"/><path d="M936.44,1799.84h4.37v3h-4.37Zm0,4.34h4.37v11.41h-4.37Z"/><path d="M942.31,1804.18h4.55l2.22,7.23,2.29-7.23h4.41l-4.84,11.41h-3.88Z"/><line class="cls-10" x1="967.5" y1="1819.5" x2="907.5" y2="1819.5"/></svg>
