<svg id="Layer_1" data-name="Layer 1" xmlns="http://www.w3.org/2000/svg" xmlns:xlink="http://www.w3.org/1999/xlink" width="1920" height="1080" viewBox="0 0 1920 1080"><defs><style>.cls-1{fill:url(#linear-gradient);}.cls-2{fill:#b7b4a7;}.cls-3,.cls-6{fill:#fff;}.cls-4{fill:#c1272d;stroke-width:5px;}.cls-4,.cls-5{stroke:#c1272d;stroke-linejoin:round;}.cls-5,.cls-8{stroke-width:4px;}.cls-6{opacity:0.6;}.cls-7{fill:#ff1f0a;}.cls-8,.cls-9{fill:none;stroke:#000;stroke-miterlimit:10;}.cls-9{stroke-width:2px;}</style><linearGradient id="linear-gradient" x1="960" y1="1078.5" x2="960" y2="-0.5" gradientUnits="userSpaceOnUse"><stop offset="0" stop-color="#cce0f4"/><stop offset="0.15" stop-color="#c3e0f5"/><stop offset="0.4" stop-color="#a9e0f9"/><stop offset="0.72" stop-color="#80e0ff"/><stop offset="0.73" stop-color="#7fe0ff"/><stop offset="0.89" stop-color="#2ad2ff"/><stop offset="0.99" stop-color="#3fc6ff"/></linearGradient></defs><title>Baggrund vandret</title><rect class="cls-1" y="-0.5" width="1920" height="1079"/><rect class="cls-2" x="1221" y="35.5" width="605.39" height="824"/><rect class="cls-3" x="1257.5" y="105.24" width="139.77" height="144.06"/><rect class="cls-3" x="1453.36" y="105.24" width="139.77" height="144.06"/><rect class="cls-3" x="1649.22" y="105.24" width="139.77" height="144.06"/><rect class="cls-3" x="1257.5" y="286.92" width="139.77" height="144.06"/><rect class="cls-3" x="1453.36" y="286.92" width="139.77" height="144.06"/><rect class="cls-3" x="1649.22" y="286.92" width="139.77" height="144.06"/><rect class="cls-3" x="1257.5" y="468.6" width="139.77" height="144.06"/><rect class="cls-3" x="1453.36" y="468.6" width="139.77" height="144.06"/><rect class="cls-3" x="1649.22" y="468.6" width="139.77" height="144.06"/><rect class="cls-4" x="1453.36" y="659.77" width="139.77" height="196.37"/><ellipse class="cls-5" cx="1573.1" cy="787.47" rx="9.35" ry="9.63"/><line x1="1803" y1="892.5" x2="1158" y2="1053.5"/><line x1="1194" y1="880.5" x2="47" y2="923.5"/><path class="cls-3" d="M692.08,157.27c-12.76-25.73-47.24-46.92-85.44-59.37C573.33,75,523.49,60.38,482.89,60.15A118.39,118.39,0,0,0,424,74.77c-19.74-5.41-40-8.45-58.31-8.55-72.07-.42-94.25,54.32-155.48,71.44-109.52,30.61-3.27,103,139.8,74.89,29.77,22.24,103.19,36.55,186.58,16.16C610.82,210.55,709,191.38,692.08,157.27Z"/><circle class="cls-3" cx="138.5" cy="952" r="22.5"/><circle class="cls-3" cx="182.5" cy="952" r="22.5"/><circle class="cls-3" cx="294.5" cy="914" r="22.5"/><circle class="cls-3" cx="249.5" cy="914" r="22.5"/><circle class="cls-3" cx="205.5" cy="914" r="22.5"/><circle class="cls-3" cx="160.5" cy="914" r="22.5"/><circle class="cls-3" cx="317.5" cy="952" r="22.5"/><circle class="cls-3" cx="272.5" cy="952" r="22.5"/><circle class="cls-3" cx="227.5" cy="952" r="22.5"/><circle class="cls-3" cx="226.5" cy="788" r="22.5"/><circle class="cls-3" cx="249.5" cy="831" r="22.5"/><circle class="cls-3" cx="204.5" cy="831" r="22.5"/><circle class="cls-3" cx="272.5" cy="874" r="22.5"/><circle class="cls-3" cx="227.5" cy="874" r="22.5"/><circle class="cls-3" cx="182.5" cy="874" r="22.5"/><path class="cls-6" d="M810.27,155.22A80.28,80.28,0,0,0,778,108.38c-12.59-18.1-31.43-29.61-46.78-29.79-9.12-.11-16.12,4.65-22.27,11.54-7.46-4.27-15.11-6.67-22-6.75-27.25-.33-35.64,42.86-58.79,56.37C586.69,163.9,626.86,221,681,198.84c11.25,17.55,39,28.84,70.54,12.75C779.55,197.27,816.67,182.13,810.27,155.22Z"/><path class="cls-6" d="M294.15,111.22c-5.67-20.3-21-37-38-46.84-14.8-18.1-36.93-29.61-55-29.79-10.71-.11-18.94,4.65-26.16,11.54-8.77-4.27-17.76-6.67-25.9-6.75-32-.33-41.87,42.86-69.08,56.37C31.43,119.9,78.63,177,142.19,154.84c13.22,17.55,45.84,28.84,82.88,12.75C258.05,153.27,301.66,138.13,294.15,111.22Z"/><path class="cls-3" d="M1390,1080.5c0-90.85,178.92-156.36,390.5-192,162.51-27.38,136.63,170,139.5,192"/><path class="cls-7" d="M1826.22,1039.87c9.43.47,20.78-30,16-38.89-7-12.8-16-.44-15.91,6.16"/><path class="cls-7" d="M1826.22,1039.87c-9.43.47-20.78-30-16-38.89,7-12.8,16-.44,15.91,6.16"/><path class="cls-7" d="M1750.58,1039.87c9.42.47,20.78-30,15.94-38.89-7-12.8-16-.44-15.9,6.16"/><path class="cls-7" d="M1750.57,1039.87c-9.43.47-20.78-30-15.94-38.89,7-12.8,16-.44,15.9,6.16"/><path class="cls-7" d="M1788.4,1039.87c9.43.47,20.78-30,15.95-38.89-7-12.8-16-.44-15.91,6.16"/><path class="cls-7" d="M1788.4,1039.87c-9.43.47-20.79-30-16-38.89,7-12.8,16-.44,15.9,6.16"/><rect class="cls-8" x="1721" y="983.9" width="136" height="67.6"/><path d="M1552.21,952.84h8.09a5.54,5.54,0,0,1,4,1.26,4.68,4.68,0,0,1,1.31,3.57,4.84,4.84,0,0,1-1.43,3.73,6.19,6.19,0,0,1-4.38,1.34h-2.66v5.85h-4.89Zm4.89,6.71h1.19a3.05,3.05,0,0,0,2-.49,1.56,1.56,0,0,0,.57-1.25,1.74,1.74,0,0,0-.5-1.25,2.54,2.54,0,0,0-1.86-.52h-1.38Z"/><path d="M1566.72,962.92a5.71,5.71,0,0,1,1.77-4.31,6.6,6.6,0,0,1,4.75-1.69,6.52,6.52,0,0,1,5.18,2,5.75,5.75,0,0,1,1.41,3.94,5.69,5.69,0,0,1-1.75,4.31,6.62,6.62,0,0,1-4.82,1.69,6.77,6.77,0,0,1-4.45-1.4A5.6,5.6,0,0,1,1566.72,962.92Zm4.39,0a3.45,3.45,0,0,0,.61,2.25,2,2,0,0,0,3.11,0,3.59,3.59,0,0,0,.61-2.31,3.37,3.37,0,0,0-.62-2.21,1.89,1.89,0,0,0-1.51-.72,2,2,0,0,0-1.58.74A3.37,3.37,0,0,0,1571.11,962.91Z"/><path d="M1582.1,952.84h4.37v3h-4.37Zm0,4.34h4.37v11.41h-4.37Z"/><path d="M1589.26,957.18h4.07V959a6.17,6.17,0,0,1,1.85-1.63,4.8,4.8,0,0,1,2.28-.49,3.74,3.74,0,0,1,2.84,1.08,4.72,4.72,0,0,1,1,3.34v7.25h-4.39v-6.28a2.27,2.27,0,0,0-.4-1.52,1.42,1.42,0,0,0-1.11-.44,1.59,1.59,0,0,0-1.29.6,3.49,3.49,0,0,0-.5,2.16v5.48h-4.37Z"/><path d="M1609.21,952.84v4.34h2.41v3.2h-2.41v4a2.24,2.24,0,0,0,.14,1,.79.79,0,0,0,.75.36,4.66,4.66,0,0,0,1.35-.28l.33,3a14,14,0,0,1-3,.36,5.28,5.28,0,0,1-2.41-.42,2.57,2.57,0,0,1-1.14-1.27,7.44,7.44,0,0,1-.37-2.77v-4h-1.61v-3.2h1.61v-2.1Z"/><line class="cls-9" x1="1616" y1="972.5" x2="1549" y2="972.5"/><path d="M1772.39,952.84h4.87v11.87h7.59v3.88h-12.46Z"/><path d="M1786.94,952.84h4.37v3h-4.37Zm0,4.34h4.37v11.41h-4.37Z"/><path d="M1792.81,957.18h4.55l2.22,7.23,2.29-7.23h4.41l-4.84,11.41h-3.88Z"/><line class="cls-9" x1="1819" y1="972.5" x2="1759" y2="972.5"/></svg>
