<svg id="Layer_1" data-name="Layer 1" xmlns="http://www.w3.org/2000/svg" width="275" height="241" viewBox="0 0 275 241"><defs><style>.cls-1{fill:#e5ad5c;}.cls-2{fill:#ffeb94;}.cls-3{fill:#fff;}.cls-4{fill:#efbb67;}.cls-5{fill:#ef5b6d;}.cls-6{fill:#b7b4a7;}.cls-7{fill:#5f2000;stroke:#100015;}.cls-7,.cls-9{stroke-miterlimit:10;}.cls-8{fill:#d3afce;}.cls-9{fill:#ffb1aa;stroke:#ffb1aa;stroke-width:13px;}</style></defs><title>Bedstemor</title><path class="cls-1" d="M152.46,77.75c0,20.8-5.4,37.66-16.82,37.66S117.3,98.55,117.3,77.75"/><circle class="cls-2" cx="144.89" cy="88.01" r="6.48"/><circle class="cls-2" cx="130.09" cy="88.01" r="6.48"/><rect class="cls-2" x="136.14" y="87.51" width="2.52" height="1.01"/><ellipse class="cls-3" cx="131.18" cy="89.53" rx="2.61" ry="1.01"/><ellipse class="cls-3" cx="142.79" cy="89.53" rx="2.61" ry="1.01"/><circle cx="132.78" cy="89.86" r="0.34"/><circle cx="141.36" cy="89.86" r="0.34"/><path class="cls-4" d="M142.7,81.37a25.47,25.47,0,0,0-5-.25,25.54,25.54,0,0,0-5,.25c0,.14,2.26-.08,5-.08S142.7,81.51,142.7,81.37Z"/><path class="cls-4" d="M140.68,82a18.19,18.19,0,0,0-5.38,0A24.59,24.59,0,0,0,138,82,24.6,24.6,0,0,0,140.68,82Z"/><path class="cls-4" d="M143,80.17c0-.18-2.26-.33-5-.33s-5,.15-5,.33,2.26-.11,5-.11S143,80.35,143,80.17Z"/><path class="cls-5" d="M145.3,103.25c.82,1.06-3.42,2.42-7.64,2.42s-8.42-1.33-7.65-2.42c3.85-5.43,7.87,0,7.65.33C137.15,104.43,140.76,97.34,145.3,103.25Z"/><path class="cls-6" d="M160.7,72.88c0-2.6-1.77-4.71-3.95-4.71a3.47,3.47,0,0,0-1.5.34,4.22,4.22,0,0,0-3.8-3.87h0c0-2.6-1.77-4.7-4-4.7a3.53,3.53,0,0,0-2.12.73c-.18-2.39-1.87-4.27-3.93-4.27a3.61,3.61,0,0,0-2.63,1.19,3.89,3.89,0,0,0-3.43-2.36,4,4,0,0,0-3.71,3.09,3.6,3.6,0,0,0-6.38,0,3.8,3.8,0,0,0-3.19-1.94c-2.19,0-3.95,2.11-3.95,4.71v.13a3.6,3.6,0,0,0-.93-.13c-2.18,0-4,2.11-4,4.71a5.56,5.56,0,0,0,.38,2,5,5,0,0,0-1.9,4,4.79,4.79,0,0,0,2.46,4.36c1,1.71,3.67,3,6.88,3a11,11,0,0,0,4.22-.8,14.4,14.4,0,0,0,4.69.72,12.56,12.56,0,0,0,5.85-1.24,13.19,13.19,0,0,0,5.84,1.24,16.59,16.59,0,0,0,2.6-.21,10.77,10.77,0,0,0,5.56,1.39c3.18,0,5.9-1.12,7-2.7C159,77.53,160.7,75.44,160.7,72.88Zm-30.7,0h-.08l0-.06.09.06Z"/><rect class="cls-7" x="183.15" y="127.45" width="2.86" height="60.05"/><path class="cls-1" d="M185,131c.57-.54.34-1.76-.47-3.05,3.14.48,5.8,0,6-1.06s-2.29-2.4-5.51-2.92-6,0-6.15,1a.73.73,0,0,0,.07.43c-.17.93.52,2.46,1.8,3.81C182.31,130.94,184.23,131.72,185,131Z"/><ellipse class="cls-8" cx="162.04" cy="122.16" rx="4.2" ry="19.85" transform="translate(10.76 257.41) rotate(-78.81)"/><path class="cls-1" d="M75,133c-.57-.54-.34-1.76.47-3-3.14.48-5.8,0-6-1.06S71.8,126.5,75,126s6,0,6.15,1a.73.73,0,0,1-.07.43c.17.93-.52,2.46-1.8,3.81C77.69,133,75.77,133.74,75,133Z"/><ellipse class="cls-8" cx="98.13" cy="122.16" rx="19.85" ry="4.2" transform="translate(-28.44 29.79) rotate(-15.11)"/><rect class="cls-9" x="122.27" y="146.97" width="2.86" height="33.3"/><rect class="cls-9" x="139.25" y="146.97" width="2.86" height="33.3"/><ellipse class="cls-8" cx="130.09" cy="135.44" rx="27.92" ry="24.89"/><rect class="cls-9" x="137.74" y="180.27" width="12.78" height="6.56"/><rect class="cls-9" x="114.53" y="180.27" width="12.78" height="6.56"/></svg>
