<svg id="Layer_1" data-name="Layer 1" xmlns="http://www.w3.org/2000/svg" width="800" height="485" viewBox="0 0 800 485"><defs><style>.cls-1{fill:#ff2c1f;}</style></defs><title>Play</title><ellipse class="cls-1" cx="400.5" cy="245" rx="329" ry="161.5"/><path d="M400.5,409.5c-88.33,0-171.42-16.91-234-47.61-63.22-31-98-72.55-98-116.89s34.82-85.86,98-116.89c62.54-30.7,145.63-47.61,234-47.61s171.42,16.91,234,47.61c63.22,31,98,72.55,98,116.89s-34.82,85.86-98,116.89C571.92,392.59,488.83,409.5,400.5,409.5Zm0-323c-179.76,0-326,71.1-326,158.5s146.24,158.5,326,158.5,326-71.1,326-158.5S580.26,86.5,400.5,86.5Z"/><path d="M124.46,201.31h36.39q11.9,0,17.82,5.66t5.92,16.09q0,10.74-6.45,16.78t-19.7,6h-12v26.3h-22Zm22,30.21h5.37q6.33,0,8.89-2.2a7.07,7.07,0,0,0,2.56-5.63,7.86,7.86,0,0,0-2.22-5.65q-2.22-2.32-8.36-2.32h-6.24Z"/><path d="M195.42,201.31h19.72v70.87H195.42Z"/><path d="M245.64,237.47l-18.8-2a21.1,21.1,0,0,1,3.07-7.76,16.91,16.91,0,0,1,5.78-4.91,24.12,24.12,0,0,1,7.44-2.32,60.83,60.83,0,0,1,10.25-.82,81.58,81.58,0,0,1,14.21,1,18.26,18.26,0,0,1,8.94,4.13,14.57,14.57,0,0,1,4,6.17,22.45,22.45,0,0,1,1.45,7.61v22.67a27.07,27.07,0,0,0,.46,5.68,25.21,25.21,0,0,0,2,5.25H266a17.7,17.7,0,0,1-1.45-3,21.17,21.17,0,0,1-.68-3.27,25.25,25.25,0,0,1-7.69,5.32A31.93,31.93,0,0,1,244,273.34q-9.18,0-13.95-4.26a13.52,13.52,0,0,1-4.76-10.49,13.8,13.8,0,0,1,3.43-9.62q3.43-3.76,12.67-5.6,11.07-2.22,14.36-3.12a69.51,69.51,0,0,0,7-2.34q0-3.63-1.5-5.08t-5.27-1.45q-4.83,0-7.25,1.55A8.48,8.48,0,0,0,245.64,237.47Zm17.07,10.34q-4.06,1.45-8.46,2.57-6,1.59-7.59,3.14a5,5,0,0,0,0,7.42,6.88,6.88,0,0,0,4.77,1.47,12.24,12.24,0,0,0,6.11-1.59,9.66,9.66,0,0,0,4-3.89,13,13,0,0,0,1.19-6Z"/><path d="M288.09,220.84h20.76L319.43,255l9.84-34.18h19.39l-20.37,54.85q-3.48,9.39-7.11,12.68-5.12,4.63-15.6,4.64a111.35,111.35,0,0,1-13.15-1.16l-1.54-13.73a30.86,30.86,0,0,0,9.47,1.36,9.16,9.16,0,0,0,5.62-1.6q2.14-1.61,3.65-5.71Z"/><path d="M432.1,260.48H407.24l-3.45,11.7H381.43l26.63-70.87H432l26.63,70.87H435.65Zm-4.54-15.32-7.82-25.48L412,245.16Z"/><path d="M500,220.84h18.42v48.49l0,2.27a21.42,21.42,0,0,1-2,9.21,19.49,19.49,0,0,1-5.46,7.08,21.43,21.43,0,0,1-8.66,3.91,53.47,53.47,0,0,1-12,1.21q-15.47,0-21.24-4.64A15.11,15.11,0,0,1,463.22,276c0-.65,0-1.52.1-2.61l19.09,2.17a6.24,6.24,0,0,0,2.23,3.68,9.4,9.4,0,0,0,5.46,1.5q4.25,0,6.35-2.28t2.11-7.92V262.7a19.16,19.16,0,0,1-15.62,7.4q-10.29,0-16.63-9-4.49-6.39-4.49-16.87,0-12,5.8-18.28t15.18-6.28A18.65,18.65,0,0,1,500,228.43Zm-18.52,24.9q0,5.55,2.37,8.24a8.41,8.41,0,0,0,12.4-.1q2.49-2.77,2.49-8.39t-2.61-8.58a8.18,8.18,0,0,0-6.38-3,7.41,7.41,0,0,0-6,2.73C482.19,238.49,481.44,241.52,481.44,245.74Z"/><path d="M548.2,237.47l-18.8-2a21.1,21.1,0,0,1,3.07-7.76,16.87,16.87,0,0,1,5.77-4.91,24.28,24.28,0,0,1,7.45-2.32,60.83,60.83,0,0,1,10.25-.82,81.58,81.58,0,0,1,14.21,1,18.26,18.26,0,0,1,8.94,4.13,14.57,14.57,0,0,1,4,6.17,22.45,22.45,0,0,1,1.45,7.61v22.67a27.89,27.89,0,0,0,.45,5.68,25.93,25.93,0,0,0,2,5.25H568.5a19.41,19.41,0,0,1-1.45-3,22.74,22.74,0,0,1-.67-3.27,25.25,25.25,0,0,1-7.69,5.32,31.93,31.93,0,0,1-12.13,2.13q-9.18,0-13.95-4.26a13.52,13.52,0,0,1-4.76-10.49,13.76,13.76,0,0,1,3.43-9.62q3.44-3.76,12.67-5.6,11.07-2.22,14.36-3.12a69.51,69.51,0,0,0,7-2.34q0-3.63-1.5-5.08t-5.27-1.45q-4.83,0-7.25,1.55A8.48,8.48,0,0,0,548.2,237.47Zm17.07,10.34q-4.07,1.45-8.46,2.57-6,1.59-7.59,3.14a5,5,0,0,0,0,7.42,6.87,6.87,0,0,0,4.76,1.47,12.28,12.28,0,0,0,6.12-1.59,9.66,9.66,0,0,0,4-3.89,13,13,0,0,0,1.19-6Z"/><path d="M597,201.31H616.7V214.7H597Zm0,19.53H616.7v51.34H597Z"/><path d="M629.27,220.84h18.32v8.36a27.43,27.43,0,0,1,8.31-7.32,21.87,21.87,0,0,1,10.25-2.2q8.18,0,12.79,4.86t4.61,15v32.63H663.78V244c0-3.22-.59-5.5-1.79-6.84a6.36,6.36,0,0,0-5-2,7.13,7.13,0,0,0-5.8,2.71q-2.24,2.7-2.23,9.72v24.65H629.27Z"/></svg>
