<svg id="Layer_1" data-name="Layer 1" xmlns="http://www.w3.org/2000/svg" width="440" height="635" viewBox="0 0 440 635"><defs><style>.cls-1{fill:#b4cfd6;}.cls-2{fill:#020000;}.cls-3{fill:#c1272d;stroke:#c1272d;}.cls-10,.cls-3,.cls-4,.cls-5{stroke-linejoin:round;}.cls-3,.cls-4{stroke-width:5px;}.cls-4{fill:#8a1b00;stroke:#8a0f00;}.cls-5,.cls-7{fill:none;}.cls-5{stroke:#000;stroke-width:15px;}.cls-6{fill:#100015;}.cls-7{stroke:#100015;}.cls-7,.cls-8{stroke-miterlimit:10;}.cls-10,.cls-8{fill:#ffdeaa;stroke:#ffdeaa;}.cls-8{stroke-width:7px;}.cls-9{fill:#df1900;}.cls-10{stroke-width:6px;}.cls-11{fill:#c9f4f3;}.cls-12{fill:#7dadf9;}</style></defs><title>Rolf</title><ellipse class="cls-1" cx="202.68" cy="155.61" rx="57.08" ry="59.24"/><circle class="cls-2" cx="54.67" cy="211.66" r="13.71"/><circle class="cls-2" cx="381.65" cy="250.7" r="10.85"/><polyline class="cls-2" points="119.73 227.45 323.35 211.6 192.24 460.84"/><path class="cls-2" d="M381.49,247.26c-2.29,9.94-32,24.76-71.11,15.73s-74.08-40-71.79-50,35.89-16.39,75-7.35S383.79,237.32,381.49,247.26Z"/><path class="cls-2" d="M49,205.57c1.46-9.24,36.14-22,74.27-16s69,36.91,67.55,46.15-57.23,15.12-95.36,9.08S47.49,214.82,49,205.57Z"/><path class="cls-3" d="M150.39,127.13c0-25,23.43-55.32,52.32-55.32S255,102.14,255,127.13"/><rect class="cls-4" x="142.46" y="127.13" width="121.15" height="17.58"/><line class="cls-5" x1="155.33" y1="126.59" x2="155.33" y2="145.36"/><line class="cls-5" x1="172.05" y1="126.59" x2="172.05" y2="145.36"/><line class="cls-5" x1="205.93" y1="126.59" x2="205.93" y2="145.36"/><line class="cls-5" x1="222.87" y1="126.59" x2="222.87" y2="145.36"/><line class="cls-5" x1="189.2" y1="126.59" x2="189.2" y2="145.36"/><line class="cls-5" x1="239.81" y1="126.59" x2="239.81" y2="145.36"/><line class="cls-5" x1="256.96" y1="126.59" x2="256.96" y2="145.36"/><rect class="cls-6" x="211.1" y="149.75" width="29.73" height="7.2"/><rect class="cls-6" x="172.18" y="149.75" width="29.73" height="7.2"/><path class="cls-7" d="M199.37,155.48a10.26,10.26,0,1,1-20.52,0"/><path class="cls-7" d="M233.22,155.48a10.26,10.26,0,1,1-20.52,0"/><line class="cls-8" x1="146.86" y1="146.08" x2="146.86" y2="177.8"/><line class="cls-8" x1="260.54" y1="146.08" x2="260.54" y2="177.8"/><circle class="cls-9" cx="192.31" cy="160.55" r="2"/><circle class="cls-9" cx="220.83" cy="160.55" r="2"/><path class="cls-10" d="M266.48,176.87c-6.56-8.51-21.75-7.8-33.94,1.58a35.89,35.89,0,0,0-11.21,14.07,23.29,23.29,0,0,0-30.37-.43,36.07,36.07,0,0,0-10.9-13.37c-12.19-9.39-27.38-10.1-33.94-1.59s-2,23,10.19,32.42a38.7,38.7,0,0,0,7.47,4.53,6.55,6.55,0,0,0-.13,1.25c0,5.74,8,10.39,17.86,10.39a30,30,0,0,0,4.42-.32,4.39,4.39,0,0,0-1.49,3.12c0,3.75,6,6.8,13.33,6.8A25.35,25.35,0,0,0,202,235v.09c0,2.65,3.75,4.8,8.39,4.8s8.4-2.15,8.4-4.8v0c8.22-.3,14.66-3.16,14.66-6.63a3.77,3.77,0,0,0-1.41-2.72c.51,0,1,.05,1.54.05,8.17,0,14.8-4.65,14.8-10.39a7.71,7.71,0,0,0-.12-1.28,38.26,38.26,0,0,0,8-4.77C268.48,199.89,273,185.38,266.48,176.87Zm-47.71,44.88a20.56,20.56,0,0,0,1.88-1.42,11.42,11.42,0,0,0,1.69,1.72C221.2,221.9,220,221.79,218.77,221.75Z"/><path class="cls-9" d="M211.1,180.41c0,8.39-2.21,15.19-4.93,15.19s-4.93-6.8-4.93-15.19"/><path class="cls-2" d="M86.61,157.55c7.87-33.59,6.64-62.13-2.27-64.21s-35.13,16.94-43,50.53-.11,68.63,8.8,70.72S78.74,191.14,86.61,157.55Z"/><ellipse class="cls-3" cx="95.7" cy="84.58" rx="24.38" ry="8.76" transform="translate(-31.89 90.29) rotate(-44.04)"/><ellipse class="cls-3" cx="97.14" cy="101.59" rx="16.95" ry="5.33"/><circle class="cls-11" cx="106.85" cy="89.79" r="12.19"/><path class="cls-2" d="M382.07,246.67c7.58,2.54,10.82,31.23.57,61.84s-30.14,51.57-37.72,49-18.86-47.13-8.61-77.75S374.49,244.13,382.07,246.67Z"/><ellipse class="cls-3" cx="341.02" cy="371.19" rx="24.38" ry="8.76" transform="translate(-119.9 575.24) rotate(-71.3)"/><ellipse class="cls-3" cx="336.56" cy="359.79" rx="16.95" ry="5.33" transform="translate(-153.92 313.46) rotate(-41.51)"/><path class="cls-12" d="M269.08,424.35c16.82,21.83,12.09,52.58.44,61.55s-34.73-1.46-51.54-23.3-21-46.82-9.36-55.79S252.26,402.51,269.08,424.35Z"/><circle class="cls-12" cx="269.56" cy="484.38" r="18.25"/><ellipse class="cls-12" cx="254.71" cy="530.84" rx="44.18" ry="16.81" transform="translate(-324.48 636.73) rotate(-74.73)"/><path class="cls-12" d="M196.36,467c-18.71,24.3-52.28,28.6-64.7,19s-7.34-37,11.36-61.31S187,388.44,199.38,398,215.06,442.66,196.36,467Z"/><circle class="cls-12" cx="133.65" cy="490.62" r="18.25"/><ellipse class="cls-12" cx="95.7" cy="471.08" rx="16.81" ry="44.18" transform="translate(-360.12 318.41) rotate(-60)"/><ellipse class="cls-3" cx="54.76" cy="465.97" rx="23.53" ry="10.72" transform="translate(-356.99 241.06) rotate(-54.65)"/><ellipse class="cls-3" cx="261.16" cy="566.94" rx="23.53" ry="10.72"/><rect class="cls-3" x="170.32" y="390.62" width="58.97" height="9.53"/></svg>
