<svg id="Layer_1" data-name="Layer 1" xmlns="http://www.w3.org/2000/svg" width="375" height="425" viewBox="0 0 375 425"><defs><style>.cls-1{fill:#b4cfd6;}.cls-2{fill:#c1272d;stroke:#c1272d;}.cls-2,.cls-3,.cls-4,.cls-9{stroke-linejoin:round;}.cls-2,.cls-3{stroke-width:5px;}.cls-3{fill:#8a1b00;stroke:#8a0f00;}.cls-4,.cls-6{fill:none;}.cls-4{stroke:#000;stroke-width:15px;}.cls-5{fill:#100015;}.cls-6{stroke:#100015;}.cls-6,.cls-7{stroke-miterlimit:10;}.cls-7,.cls-9{fill:#ffdeaa;stroke:#ffdeaa;}.cls-7{stroke-width:7px;}.cls-8{fill:#df1900;}.cls-9{stroke-width:6px;}.cls-10{fill:#efa8ad;}</style></defs><title>Rolf hoved</title><ellipse class="cls-1" cx="189.44" cy="228.97" rx="129.3" ry="124.58" transform="translate(-85.82 340.98) rotate(-72.54)"/><path class="cls-2" d="M100.82,121.88C117.13,70,185.56,22.34,245.54,41.21s88.79,97.12,72.47,149"/><rect class="cls-3" x="72.54" y="155.37" width="263.61" height="38.26" transform="translate(61.78 -53.28) rotate(17.46)"/><line class="cls-4" x1="111.41" y1="123.99" x2="99.16" y2="162.93"/><line class="cls-4" x1="146.12" y1="134.91" x2="133.87" y2="173.85"/><line class="cls-4" x1="216.44" y1="157.03" x2="204.19" y2="195.97"/><line class="cls-4" x1="251.6" y1="168.09" x2="239.35" y2="207.03"/><line class="cls-4" x1="181.73" y1="146.11" x2="169.48" y2="185.05"/><line class="cls-4" x1="286.76" y1="179.15" x2="274.51" y2="218.09"/><line class="cls-4" x1="322.37" y1="190.35" x2="310.12" y2="229.29"/><rect class="cls-5" x="208.21" y="217.82" width="64.7" height="15.66" transform="translate(78.79 -61.78) rotate(17.46)"/><rect class="cls-5" x="127.43" y="192.41" width="64.7" height="15.66" transform="translate(67.45 -38.72) rotate(17.46)"/><path class="cls-6" d="M184,212.71a22.33,22.33,0,1,1-42.6-13.4"/><path class="cls-6" d="M254.23,234.81a22.33,22.33,0,1,1-42.6-13.4"/><line class="cls-7" x1="81.1" y1="158.91" x2="60.39" y2="224.75"/><line class="cls-7" x1="317.08" y1="233.14" x2="296.37" y2="298.98"/><circle class="cls-8" cx="165.99" cy="218.61" r="4.35"/><circle class="cls-8" cx="225.19" cy="237.23" r="4.35"/><path class="cls-9" d="M309.3,300.91c-8.05-22-40.06-30.4-71.48-18.86-13.52,4.95-24.72,12.8-32.46,21.88a50.68,50.68,0,0,0-62.75-20.73,78.66,78.66,0,0,0-13.9-34.87c-19.17-27.44-50.25-38.84-69.42-25.45s-19.18,46.49,0,73.93a84.8,84.8,0,0,0,12.55,14.3,14.52,14.52,0,0,0-1.08,2.49C67,325.52,80.56,340.4,101,346.84a67,67,0,0,0,9.39,2.22,9.63,9.63,0,0,0-5.13,5.5c-2.45,7.79,7.95,18,23.23,22.81a54.85,54.85,0,0,0,9.09,2.05l-.07.18c-1.73,5.5,4.67,12.42,14.3,15.44s18.83,1,20.56-4.47c0,0,0,0,0-.06,17.26,4.73,32.49,3,34.76-4.2a8.19,8.19,0,0,0-1.14-6.57c1,.41,2.08.78,3.16,1.12,17,5.34,33.74,0,37.49-11.92a16.94,16.94,0,0,0,.6-2.72,84,84,0,0,0,19.7-4.68C298.41,350,317.36,322.87,309.3,300.91ZM181,362.92a47.07,47.07,0,0,0,4.84-1.72,24.79,24.79,0,0,0,2.38,4.67C185.91,364.81,183.5,363.82,181,362.92Z"/><path class="cls-8" d="M192,272.1c-5.48,17.42-14.5,30.09-20.15,28.32s-5.8-17.34-.32-34.76"/><path d="M249.75,337.93c-3.37,11.21-49.23,33.35-92.93,20.2S86.1,302,89.48,290.79s32.58,24,76.28,37.14S253.13,326.72,249.75,337.93Z"/><path class="cls-10" d="M185.06,368.23a103.69,103.69,0,0,1-30-4.3c-27.14-8.16-45.6-26.22-54.18-36.26-9.84-11.5-20.26-28.53-17.22-38.63a8.77,8.77,0,0,1,5.48-6c6-2.11,12.62,2.44,24.63,10.69,13.33,9.16,31.58,21.71,53.73,28.37,22.44,6.75,44.71,5.95,61,5.36,14.15-.51,21.94-.79,25.77,4.17a8.64,8.64,0,0,1,1.3,8c-2.86,9.51-19.83,18.55-35.38,23.29A122.43,122.43,0,0,1,185.06,368.23ZM96,296.51c1.37,4.59,5.13,12.83,14.49,23.67,7.69,8.91,24.18,24.94,48.13,32.15s46.38,2.55,57.67-.84c12.57-3.79,20.83-8.74,24.86-12.13-3.44-.08-8.11.09-12.17.23-16.15.58-40.55,1.47-64.91-5.86-24-7.21-43.91-20.92-57.1-30C103.28,301.24,99.07,298.35,96,296.51Z"/></svg>
