<svg id="Layer_1" data-name="Layer 1" xmlns="http://www.w3.org/2000/svg" xmlns:xlink="http://www.w3.org/1999/xlink" width="1920" height="1080" viewBox="0 0 1920 1080"><defs><style>.cls-1{fill:url(#linear-gradient);}.cls-2{fill:#b7b4a7;}.cls-22,.cls-3,.cls-6,.cls-7{fill:#fff;}.cls-4{fill:#c1272d;}.cls-4,.cls-5{stroke:#c1272d;}.cls-11,.cls-16,.cls-4,.cls-5{stroke-linejoin:round;}.cls-11,.cls-4{stroke-width:5px;}.cls-18,.cls-5{stroke-width:4px;}.cls-6{opacity:0.6;}.cls-18,.cls-19,.cls-7{stroke:#000;}.cls-10,.cls-18,.cls-19,.cls-21,.cls-22,.cls-23,.cls-24,.cls-29,.cls-34,.cls-7,.cls-8{stroke-miterlimit:10;}.cls-18,.cls-19,.cls-34,.cls-8{fill:none;}.cls-21,.cls-22,.cls-29,.cls-8{stroke:#100015;}.cls-9{fill:#df1900;}.cls-10,.cls-16{fill:#ffdeaa;stroke:#ffdeaa;}.cls-10{stroke-width:7px;}.cls-11{fill:#8a1b00;stroke:#8a0f00;}.cls-12{fill:#100015;}.cls-13{fill:#f4f9f9;}.cls-14{fill:#020000;}.cls-15{fill:#7dadf9;}.cls-16{stroke-width:6px;}.cls-17{fill:#ff1f0a;}.cls-19{stroke-width:2px;}.cls-20,.cls-29{fill:#5f2000;}.cls-23{fill:#ffb1aa;stroke:#ffb1aa;}.cls-23,.cls-24{stroke-width:13px;}.cls-24{fill:#940004;stroke:#940004;}.cls-25{fill:#e5ad5c;}.cls-26{fill:#ffeb94;}.cls-27{fill:#efbb67;}.cls-28{fill:#ef5b6d;}.cls-30{fill:#d3afce;}.cls-31{fill:url(#linear-gradient-2);}.cls-32{fill:url(#linear-gradient-3);}.cls-33{fill:#ff2c1f;}.cls-34{stroke:#ff2c1f;stroke-width:29px;}</style><linearGradient id="linear-gradient" x1="960" y1="1079.5" x2="960" y2="0.5" gradientUnits="userSpaceOnUse"><stop offset="0" stop-color="#cce0f4"/><stop offset="0.15" stop-color="#c3e0f5"/><stop offset="0.4" stop-color="#a9e0f9"/><stop offset="0.72" stop-color="#80e0ff"/><stop offset="0.73" stop-color="#7fe0ff"/><stop offset="0.89" stop-color="#2ad2ff"/><stop offset="0.99" stop-color="#3fc6ff"/></linearGradient><linearGradient id="linear-gradient-2" x1="1163.73" y1="481.41" x2="1163.73" y2="402.45" gradientTransform="matrix(1.15, 0.11, 0.11, 1.13, -87.17, -67.51)" xlink:href="#linear-gradient"/><linearGradient id="linear-gradient-3" x1="1539.26" y1="199.46" x2="1539.26" y2="120.5" gradientTransform="matrix(1.07, -0.08, -0.08, 1.09, -93.63, 101.96)" xlink:href="#linear-gradient"/></defs><title>Slutskærm lodret lose</title><rect class="cls-1" y="0.5" width="1920" height="1079"/><rect class="cls-2" x="1221" y="34.5" width="605.39" height="824"/><rect class="cls-3" x="1257.5" y="104.24" width="139.77" height="144.06"/><rect class="cls-3" x="1453.36" y="104.24" width="139.77" height="144.06"/><rect class="cls-3" x="1649.22" y="104.24" width="139.77" height="144.06"/><rect class="cls-3" x="1257.5" y="285.92" width="139.77" height="144.06"/><rect class="cls-3" x="1453.36" y="285.92" width="139.77" height="144.06"/><rect class="cls-3" x="1649.22" y="285.92" width="139.77" height="144.06"/><rect class="cls-3" x="1257.5" y="467.6" width="139.77" height="144.06"/><rect class="cls-3" x="1453.36" y="467.6" width="139.77" height="144.06"/><rect class="cls-3" x="1649.22" y="467.6" width="139.77" height="144.06"/><rect class="cls-4" x="1453.36" y="658.77" width="139.77" height="196.37"/><ellipse class="cls-5" cx="1573.1" cy="786.47" rx="9.35" ry="9.63"/><line x1="1803" y1="891.5" x2="1158" y2="1052.5"/><line x1="1194" y1="879.5" x2="47" y2="922.5"/><path class="cls-3" d="M692.08,156.27c-12.76-25.73-47.24-46.92-85.44-59.37C573.33,74,523.49,59.38,482.89,59.15A118.39,118.39,0,0,0,424,73.77c-19.74-5.41-40-8.45-58.31-8.55-72.07-.42-94.25,54.32-155.48,71.44-109.52,30.61-3.27,103,139.8,74.89,29.77,22.24,103.19,36.55,186.58,16.16C610.82,209.55,709,190.38,692.08,156.27Z"/><circle class="cls-3" cx="138.5" cy="951" r="22.5"/><circle class="cls-3" cx="182.5" cy="951" r="22.5"/><circle class="cls-3" cx="294.5" cy="913" r="22.5"/><circle class="cls-3" cx="249.5" cy="913" r="22.5"/><circle class="cls-3" cx="205.5" cy="913" r="22.5"/><circle class="cls-3" cx="160.5" cy="913" r="22.5"/><circle class="cls-3" cx="317.5" cy="951" r="22.5"/><circle class="cls-3" cx="272.5" cy="951" r="22.5"/><circle class="cls-3" cx="227.5" cy="951" r="22.5"/><circle class="cls-3" cx="226.5" cy="787" r="22.5"/><circle class="cls-3" cx="249.5" cy="830" r="22.5"/><circle class="cls-3" cx="204.5" cy="830" r="22.5"/><circle class="cls-3" cx="272.5" cy="873" r="22.5"/><circle class="cls-3" cx="227.5" cy="873" r="22.5"/><circle class="cls-3" cx="182.5" cy="873" r="22.5"/><path class="cls-3" d="M1913.56,36.71c-4.36-8.8-16.15-16-29.21-20.3C1873,8.57,1855.91,3.58,1842,3.5a40.52,40.52,0,0,0-20.14,5A78.46,78.46,0,0,0,1802,5.58c-24.65-.15-32.23,18.57-53.17,24.43-37.45,10.46-1.12,35.22,47.81,25.61,10.18,7.6,35.28,12.5,63.8,5.52C1885.78,54.93,1919.34,48.38,1913.56,36.71Z"/><path class="cls-6" d="M810.27,154.22A80.28,80.28,0,0,0,778,107.38c-12.59-18.1-31.43-29.61-46.78-29.79-9.12-.11-16.12,4.65-22.27,11.54-7.46-4.27-15.11-6.67-22-6.75-27.25-.33-35.64,42.86-58.79,56.37C586.69,162.9,626.86,220,681,197.84c11.25,17.55,39,28.84,70.54,12.75C779.55,196.27,816.67,181.13,810.27,154.22Z"/><path class="cls-6" d="M294.15,110.22c-5.67-20.3-21-37-38-46.84-14.8-18.1-36.93-29.61-55-29.79-10.71-.11-18.94,4.65-26.16,11.54-8.77-4.27-17.76-6.67-25.9-6.75-32-.33-41.87,42.86-69.08,56.37C31.43,118.9,78.63,176,142.19,153.84c13.22,17.55,45.84,28.84,82.88,12.75C258.05,152.27,301.66,137.13,294.15,110.22Z"/><path class="cls-7" d="M1390,1079.5c0-90.85,178.92-156.36,390.5-192,162.51-27.38,136.63,170,139.5,192"/><path class="cls-8" d="M533.18,690.19A8.95,8.95,0,0,1,516.26,696"/><circle class="cls-9" cx="528.79" cy="696.37" r="1.74"/><line class="cls-10" x1="487.22" y1="697.34" x2="496.21" y2="723.49"/><line class="cls-10" x1="580.94" y1="665.09" x2="589.94" y2="691.24"/><circle class="cls-9" cx="552.3" cy="688.28" r="1.74"/><path class="cls-4" d="M484.76,680.71c-7.09-20.6,3.62-52.26,27.44-60.45S563.94,630.43,571,651"/><rect class="cls-11" x="477.84" y="665.36" width="105.62" height="15.33" transform="translate(-190.07 209.23) rotate(-18.98)"/><rect class="cls-12" x="541.54" y="677.75" width="25.92" height="6.27" transform="translate(-191.34 217.41) rotate(-18.98)"/><rect class="cls-12" x="509.45" y="688.79" width="25.92" height="6.27" transform="translate(-196.67 207.58) rotate(-18.98)"/><path class="cls-8" d="M561.09,680.59a9,9,0,0,1-16.93,5.82"/><ellipse class="cls-4" cx="430.3" cy="651.2" rx="29.69" ry="10.67" transform="translate(-341.51 767.52) rotate(-65.11)"/><ellipse class="cls-4" cx="438.85" cy="670.81" rx="20.07" ry="6.68" transform="translate(-194.35 179.25) rotate(-18.98)"/><circle class="cls-13" cx="448.35" cy="644.83" r="16.84"/><circle class="cls-14" cx="710.46" cy="717" r="9.46"/><path class="cls-14" d="M709.66,713.55l-.44,0c-2.32-8.68-33.6-18-67.61-14.42-34.84,3.65-60.71,18.49-59.78,27.33a7,7,0,0,0,2.32,3.91l-44.88,19.46c-12.72-7.23-36.21-14-59.2-10a110.9,110.9,0,0,0-40.35,15.68,116.84,116.84,0,0,0,1.08-31.69c-3-29.92-12.15-53.11-20.08-52.3s-24.16,23.93-21.12,53.86c2.13,21,10.78,40.32,18.5,49.77a11.94,11.94,0,0,0,15.6,13.64,10.56,10.56,0,0,0,1.38-.58c8,4.89,20.37,8.1,37.73,5a194.06,194.06,0,0,0,25.79-6.64L613.9,944l30.23-196.09a105,105,0,0,0,11.06-.53,90.94,90.94,0,0,0,28-7.45,48,48,0,0,0-1.88,14c.23,28.15,22.18,61.71,29.15,61.65s17.42-23,17.19-51.11S716.63,713.5,709.66,713.55Z"/><ellipse class="cls-4" cx="711.14" cy="827.86" rx="7.64" ry="21.25" transform="translate(-4.16 3.6) rotate(-0.29)"/><ellipse class="cls-4" cx="704.23" cy="819.72" rx="14.78" ry="4.65" transform="translate(-356 1028.97) rotate(-60.5)"/><path class="cls-15" d="M695.85,932.18A15.9,15.9,0,0,0,684,921.79c-1.35-11.68-7.94-25.42-20.62-33.79-20.06-13.23-47.76-8-54.82,2.7a12.45,12.45,0,0,0-1.15,2.2c-2.78-3.39-5.86-5.8-9-6.84-13-4.36-30.37,12.64-38.89,38-5.85,17.37-6,34.14-1.34,44.38a86.48,86.48,0,0,0-21.73-7.09c-20.88-4.07-39.06-.93-40.61,7s14.13,17.68,35,21.74c10.34,2,20,2.26,27.34,1a15.9,15.9,0,0,0,27.35-15.24,54,54,0,0,0,29.93-32.12,55,55,0,0,0,2.64-21.45,76.88,76.88,0,0,0,14,11.73c12.22,8.06,25.14,12,35,11.37a15.81,15.81,0,0,0,3.84,4.4c-3.06,7.25-4.61,18.51-3.8,31,1.37,21.23,9,38,17.12,37.49s13.5-18.16,12.13-39.39c-.74-11.39-3.3-21.5-6.75-28.35A15.9,15.9,0,0,0,695.85,932.18Z"/><ellipse class="cls-4" cx="500.72" cy="983.4" rx="20.51" ry="9.35" transform="translate(-583.92 1186.78) rotate(-73.64)"/><ellipse class="cls-4" cx="697.59" cy="1005.59" rx="20.51" ry="9.35" transform="translate(-289.18 281.62) rotate(-18.98)"/><rect class="cls-4" x="575.87" y="883.7" width="51.41" height="8.31" transform="translate(-256.1 243.99) rotate(-18.98)"/><path class="cls-16" d="M594.57,688.79c-7.82-5.16-20.15-.27-27.53,10.93a31.16,31.16,0,0,0-5.25,14.78,20.29,20.29,0,0,0-25.16,8.26,31.36,31.36,0,0,0-12.78-7.93c-12.71-4.29-25.44-.56-28.44,8.32S500.3,742.69,513,747a34.59,34.59,0,0,0,7.45,1.62,4.92,4.92,0,0,0,.24,1.06c1.63,4.73,9.54,6.3,17.67,3.5a25.4,25.4,0,0,0,3.56-1.52,3.89,3.89,0,0,0-.35,3c1.07,3.09,6.85,3.91,12.92,1.82a21.78,21.78,0,0,0,3.42-1.5s0,0,0,.07c.75,2.19,4.46,2.89,8.28,1.58s6.32-4.15,5.56-6.34v0c6.69-2.59,11.19-6.76,10.2-9.63a3.27,3.27,0,0,0-1.93-1.85q.65-.16,1.29-.39c6.73-2.31,10.87-8,9.24-12.76a5.84,5.84,0,0,0-.45-1,33.62,33.62,0,0,0,5.23-6.2C602.75,707.2,602.39,694,594.57,688.79ZM568,739.32a18.79,18.79,0,0,0,1.15-1.7,10.32,10.32,0,0,0,1.88.94A31.22,31.22,0,0,0,568,739.32Z"/><path class="cls-9" d="M549.91,707.41c2.38,6.92,2.49,13.16.25,13.93s-6-4.21-8.38-11.13"/><path class="cls-17" d="M1826.22,1038.87c9.43.47,20.78-30,16-38.89-7-12.8-16-.44-15.91,6.16"/><path class="cls-17" d="M1826.22,1038.87c-9.43.47-20.78-30-16-38.89,7-12.8,16-.44,15.91,6.16"/><path class="cls-17" d="M1750.58,1038.87c9.42.47,20.78-30,15.94-38.89-7-12.8-16-.44-15.9,6.16"/><path class="cls-17" d="M1750.57,1038.87c-9.43.47-20.78-30-15.94-38.89,7-12.8,16-.44,15.9,6.16"/><path class="cls-17" d="M1788.4,1038.87c9.43.47,20.78-30,15.95-38.89-7-12.8-16-.44-15.91,6.16"/><path class="cls-17" d="M1788.4,1038.87c-9.43.47-20.79-30-16-38.89,7-12.8,16-.44,15.9,6.16"/><rect class="cls-18" x="1721" y="982.9" width="136" height="67.6"/><path d="M1552.21,951.84h8.09a5.54,5.54,0,0,1,4,1.26,4.68,4.68,0,0,1,1.31,3.57,4.84,4.84,0,0,1-1.43,3.73,6.21,6.21,0,0,1-4.38,1.34h-2.66v5.85h-4.89Zm4.89,6.71h1.19a3.05,3.05,0,0,0,2-.49,1.56,1.56,0,0,0,.57-1.25,1.74,1.74,0,0,0-.5-1.25,2.54,2.54,0,0,0-1.86-.52h-1.38Z"/><path d="M1566.72,961.92a5.71,5.71,0,0,1,1.77-4.31,6.6,6.6,0,0,1,4.75-1.69,6.52,6.52,0,0,1,5.18,2,5.75,5.75,0,0,1,1.41,3.94,5.69,5.69,0,0,1-1.75,4.31,6.62,6.62,0,0,1-4.82,1.69,6.77,6.77,0,0,1-4.45-1.4A5.6,5.6,0,0,1,1566.72,961.92Zm4.39,0a3.45,3.45,0,0,0,.61,2.25,2,2,0,0,0,3.11,0,3.59,3.59,0,0,0,.61-2.31,3.37,3.37,0,0,0-.62-2.21,1.89,1.89,0,0,0-1.51-.72,2,2,0,0,0-1.58.74A3.37,3.37,0,0,0,1571.11,961.91Z"/><path d="M1582.1,951.84h4.37v3h-4.37Zm0,4.34h4.37v11.41h-4.37Z"/><path d="M1589.26,956.18h4.07V958a6.17,6.17,0,0,1,1.85-1.63,4.8,4.8,0,0,1,2.28-.49,3.72,3.72,0,0,1,2.84,1.08,4.72,4.72,0,0,1,1,3.34v7.25h-4.39v-6.28a2.27,2.27,0,0,0-.4-1.52,1.42,1.42,0,0,0-1.11-.44,1.59,1.59,0,0,0-1.29.6,3.49,3.49,0,0,0-.5,2.16v5.48h-4.37Z"/><path d="M1609.21,951.84v4.34h2.41v3.2h-2.41v4a2.24,2.24,0,0,0,.14,1,.79.79,0,0,0,.75.36,4.71,4.71,0,0,0,1.36-.28l.32,3a14,14,0,0,1-3,.36,5.28,5.28,0,0,1-2.41-.42,2.57,2.57,0,0,1-1.14-1.27,7.44,7.44,0,0,1-.37-2.77v-4h-1.62v-3.2h1.62v-2.1Z"/><line class="cls-19" x1="1616" y1="971.5" x2="1549" y2="971.5"/><path d="M1772.39,951.84h4.87v11.87h7.59v3.88h-12.46Z"/><path d="M1786.94,951.84h4.37v3h-4.37Zm0,4.34h4.37v11.41h-4.37Z"/><path d="M1792.81,956.18h4.55l2.22,7.23,2.29-7.23h4.41l-4.84,11.41h-3.88Z"/><line class="cls-19" x1="1819" y1="971.5" x2="1759" y2="971.5"/><rect class="cls-20" x="1304.55" y="323.1" width="39.51" height="46.17"/><rect class="cls-21" x="1300.25" y="336.21" width="47.93" height="9.98"/><rect class="cls-21" x="1300.25" y="328.19" width="47.93" height="4.3"/><path class="cls-21" d="M1302.4,328.58a22,22,0,1,1,43.95,0"/><ellipse class="cls-22" cx="1313.94" cy="341.2" rx="4.89" ry="2.64"/><ellipse class="cls-22" cx="1333.9" cy="341.2" rx="4.89" ry="2.64"/><ellipse class="cls-21" cx="1315.51" cy="341.88" rx="1.56" ry="0.78"/><ellipse class="cls-21" cx="1336.24" cy="341.88" rx="1.56" ry="0.78"/><ellipse class="cls-23" cx="1325.88" cy="356.65" rx="7.04" ry="4.99"/><rect class="cls-21" x="1288.32" y="369.27" width="72.38" height="61.62"/><path class="cls-20" d="M1269.94,304.24c-1.52-.2-3.09,1.66-4,4.48-3.16-5.35-7.15-8.8-9-7.74s-.8,6.43,2.38,11.95,7.29,9.12,9.16,8a1.56,1.56,0,0,0,.59-.63c1.61-.89,3.07-3.82,3.54-7.44C1273.17,308.38,1272,304.5,1269.94,304.24Z"/><rect class="cls-21" x="1275.21" y="314.3" width="11.54" height="65.53" transform="translate(-33.85 527.58) rotate(-22.98)"/><path class="cls-20" d="M1381.06,304c1.52-.2,3.09,1.66,4,4.49,3.16-5.35,7.15-8.81,9-7.75s.8,6.43-2.38,12-7.29,9.12-9.16,8a1.5,1.5,0,0,1-.59-.63c-1.61-.88-3.07-3.82-3.54-7.44C1377.83,308.18,1379,304.3,1381.06,304Z"/><rect class="cls-21" x="1363.04" y="314.5" width="11.54" height="65.53" transform="translate(282.25 -554.75) rotate(25.46)"/><ellipse class="cls-24" cx="1326.5" cy="356.85" rx="1" ry="0.15"/><path class="cls-25" d="M1744.25,519.81c0,23.91-6.2,43.3-19.34,43.3s-21.08-19.39-21.08-43.3"/><circle class="cls-26" cx="1735.55" cy="531.6" r="7.45"/><circle class="cls-26" cx="1718.53" cy="531.6" r="7.45"/><rect class="cls-26" x="1725.49" y="531.02" width="2.9" height="1.16"/><ellipse class="cls-3" cx="1719.79" cy="533.35" rx="3" ry="1.16"/><ellipse class="cls-3" cx="1733.13" cy="533.35" rx="3" ry="1.16"/><circle cx="1721.62" cy="533.73" r="0.39"/><circle cx="1731.49" cy="533.73" r="0.39"/><path class="cls-27" d="M1733,524a58.14,58.14,0,0,0-11.6,0c0,.16,2.6-.09,5.8-.09S1733,524.12,1733,524Z"/><path class="cls-27" d="M1730.71,524.72a20.08,20.08,0,0,0-6.19,0,59.91,59.91,0,0,1,6.19,0Z"/><path class="cls-27" d="M1733.42,522.58c0-.21-2.6-.38-5.8-.38s-5.8.17-5.8.38,2.59-.12,5.8-.12S1733.42,522.79,1733.42,522.58Z"/><path class="cls-28" d="M1736,549.12c.94,1.23-3.93,2.79-8.79,2.79s-9.68-1.53-8.79-2.79c4.42-6.24,9,0,8.8.39C1726.65,550.49,1730.8,542.33,1736,549.12Z"/><path class="cls-2" d="M1753.73,514.2c0-3-2-5.42-4.55-5.42a3.87,3.87,0,0,0-1.71.4,4.88,4.88,0,0,0-4.38-4.46h0c0-3-2-5.42-4.54-5.42a4,4,0,0,0-2.44.85c-.22-2.75-2.16-4.91-4.53-4.91a4.16,4.16,0,0,0-3,1.37,4.47,4.47,0,0,0-3.94-2.72,4.67,4.67,0,0,0-4.27,3.56,10.79,10.79,0,0,1-11-2.21c-2.51,0-4.54,2.43-4.54,5.42v.15a3.79,3.79,0,0,0-1.07-.15c-2.51,0-4.54,2.42-4.54,5.41a6.37,6.37,0,0,0,.44,2.34,5.69,5.69,0,0,0-2.18,4.63,5.49,5.49,0,0,0,2.83,5c1.08,2,4.21,3.4,7.9,3.4a12.42,12.42,0,0,0,4.86-.93,16.46,16.46,0,0,0,5.39.83,14.41,14.41,0,0,0,6.72-1.42,15.13,15.13,0,0,0,6.72,1.42,17.84,17.84,0,0,0,3-.24,12.37,12.37,0,0,0,6.39,1.6c3.67,0,6.79-1.29,8-3.1C1751.75,519.55,1753.73,517.15,1753.73,514.2Zm-35.3,0h-.09l0-.07.1.07Z"/><rect class="cls-29" x="1779.55" y="576.96" width="3.29" height="38.04"/><path class="cls-25" d="M1781.67,581c.65-.62.39-2-.55-3.51,3.61.55,6.67,0,6.87-1.22s-2.63-2.76-6.34-3.35-6.86-.07-7.06,1.19a.81.81,0,0,0,.07.5c-.2,1.06.59,2.82,2.07,4.38C1778.58,581,1780.79,581.86,1781.67,581Z"/><ellipse class="cls-30" cx="1755.28" cy="570.87" rx="4.84" ry="22.82" transform="translate(854.57 2181.96) rotate(-78.81)"/><path class="cls-25" d="M1655.19,583.35c-.66-.62-.39-2,.55-3.51-3.62.55-6.68,0-6.87-1.22s2.63-2.76,6.33-3.35,6.87-.07,7.07,1.19a.89.89,0,0,1-.07.5c.2,1.06-.6,2.82-2.08,4.38C1658.28,583.28,1656.07,584.18,1655.19,583.35Z"/><ellipse class="cls-30" cx="1681.78" cy="570.87" rx="22.82" ry="4.84" transform="matrix(0.97, -0.26, 0.26, 0.97, -90.66, 458.01)"/><ellipse class="cls-30" cx="1718.53" cy="586.15" rx="32.11" ry="28.63"/><polygon class="cls-31" points="1345.87 587.1 1316.01 575.49 1330.13 604.25 1308.31 579.54 1305.58 608.3 1298.73 578.34 1280.02 597.96 1290.32 572.26 1261.57 576.51 1285.74 563.24 1256.08 550.78 1286.45 554.14 1265.3 528.92 1292.23 547.85 1286.3 517.87 1301.23 546.36 1312.41 521.15 1310.61 550.15 1335.34 537.71 1317.38 558.02 1347.82 562.3 1319.4 567.47 1345.87 587.1"/><polygon class="cls-32" points="1582.14 169.41 1555.75 162.97 1564.4 188.72 1547.78 168.19 1540.48 196.7 1538.9 168.59 1517.95 190.8 1531.92 164.04 1503.99 172.91 1529.07 155.99 1503.01 148.7 1531.24 147 1515.33 125.86 1537.74 139.91 1537.04 111.64 1546.52 136.99 1561.24 110.56 1554.79 139.15 1580.26 122.95 1559.91 145.71 1588.05 144.89 1560.27 154.59 1582.14 169.41"/><path class="cls-33" d="M204.05,561.51c525.91-1.3,987.67,128.08,1343.5,351Q1664.9,686,1803.46,452.38c-466-191-1030-273.14-1647.12-211.41A2767.4,2767.4,0,0,0,204.05,561.51Z"/><path class="cls-34" d="M204.05,561.51c525.91-1.3,987.67,128.08,1343.5,351Q1664.9,686,1803.46,452.38c-466-191-1030-273.14-1647.12-211.41A2767.4,2767.4,0,0,0,204.05,561.51Z"/><path d="M271.08,269.47H298.6l16.15,27,16.19-27h27.37l-31.18,46.59v33.58H302.31V316.06Z"/><path d="M352.56,320.76q0-13.29,9-21.9t24.23-8.61q17.44,0,26.36,10.11,7.15,8.16,7.16,20.07,0,13.41-8.88,22T385.81,351q-14,0-22.64-7.11Q352.57,335,352.56,320.76Zm22.32-.05q0,7.77,3.14,11.48a10.31,10.31,0,0,0,15.81.06c2.05-2.45,3.09-6.36,3.09-11.76q0-7.55-3.12-11.24a9.71,9.71,0,0,0-7.71-3.69,10.06,10.06,0,0,0-8,3.75Q374.87,313,374.88,320.71Z"/><path d="M491.2,349.64H470.42v-9.41a30.61,30.61,0,0,1-9.38,8.26A25,25,0,0,1,449.42,351q-9.19,0-14.42-5.5t-5.22-16.92v-37h22.37V323.5q0,5.46,2,7.76a7.2,7.2,0,0,0,5.69,2.3,8.13,8.13,0,0,0,6.54-3.06q2.53-3.06,2.54-11V291.56H491.2Z"/><path d="M543.53,269.47h24.78V329.9H607v19.74H543.53Z"/><path d="M614,320.76q0-13.29,9-21.9t24.23-8.61q17.44,0,26.36,10.11,7.15,8.16,7.16,20.07,0,13.41-8.88,22T647.27,351q-14,0-22.64-7.11Q614,335,614,320.76Zm22.32-.05q0,7.77,3.14,11.48a10.31,10.31,0,0,0,15.81.06c2.06-2.45,3.09-6.36,3.09-11.76q0-7.55-3.12-11.24a9.71,9.71,0,0,0-7.71-3.69,10.06,10.06,0,0,0-8,3.75Q636.33,313,636.34,320.71Z"/><path d="M687.52,333.5l22.1-2.07a10.91,10.91,0,0,0,3.83,5.63,11.35,11.35,0,0,0,6.56,1.69c3,0,5.3-.63,6.94-1.91a4.26,4.26,0,0,0,1.92-3.55,4.06,4.06,0,0,0-2.52-3.71q-1.8-.93-9.57-2.29-11.6-2-16.1-3.74a17,17,0,0,1-7.6-5.82,15.11,15.11,0,0,1-3.09-9.34,15.3,15.3,0,0,1,3.33-9.89,19.79,19.79,0,0,1,9.19-6.2q5.85-2.06,15.69-2.05,10.39,0,15.34,1.58a20,20,0,0,1,8.26,4.92,25.82,25.82,0,0,1,5.5,9l-21.11,2.08a7.26,7.26,0,0,0-2.74-4.11,11.21,11.21,0,0,0-6.34-1.75q-3.78,0-5.5,1.34a4,4,0,0,0-1.72,3.25,3.46,3.46,0,0,0,2.19,3.22q2.19,1.1,9.51,2,11.11,1.26,16.52,3.5a18.21,18.21,0,0,1,8.29,6.39,15.73,15.73,0,0,1,2.87,9.12,18,18,0,0,1-3,9.78q-3,4.76-9.57,7.57T718.86,351q-15.92,0-22.67-4.54A20.42,20.42,0,0,1,687.52,333.5Z"/><path d="M824.35,326.12H779.73c.4,3.58,1.36,6.24,2.9,8a10.55,10.55,0,0,0,8.42,3.77,12.67,12.67,0,0,0,6.23-1.64,14.57,14.57,0,0,0,3.89-3.66l21.92,2q-5,8.75-12.14,12.55T790.56,351Q779,351,772.4,347.7a26.72,26.72,0,0,1-11-10.34,31.25,31.25,0,0,1-4.34-16.65q0-13.62,8.72-22t24.09-8.42q12.47,0,19.69,3.77a25.52,25.52,0,0,1,11,10.94q3.76,7.16,3.77,18.65Zm-22.64-10.66q-.66-6.45-3.47-9.24a10.9,10.9,0,0,0-15.89,1.42c-1.35,1.75-2.2,4.36-2.57,7.82Z"/><path d="M508.89,417.12h75.3v19.79H558.93v60.38H534.15V436.91H508.89Z"/><path d="M596.94,417.12h22.25v29.53a30.06,30.06,0,0,1,9-6.73,25.59,25.59,0,0,1,10.61-2q9.07,0,14.3,5.52t5.22,16.95v36.92H636V465.35q0-5.48-2-7.74a7.24,7.24,0,0,0-5.69-2.27,8.09,8.09,0,0,0-6.56,3.06q-2.52,3.08-2.52,11v27.89H596.94Z"/><path d="M736.12,473.77H691.49c.4,3.57,1.37,6.24,2.9,8a10.57,10.57,0,0,0,8.42,3.77,12.64,12.64,0,0,0,6.23-1.64,14.64,14.64,0,0,0,3.89-3.67l21.93,2q-5,8.75-12.14,12.55t-20.4,3.8q-11.54,0-18.16-3.25a26.69,26.69,0,0,1-11-10.34,31.17,31.17,0,0,1-4.35-16.65q0-13.62,8.72-22t24.09-8.42q12.47,0,19.69,3.77a25.46,25.46,0,0,1,11,10.94q3.78,7.15,3.78,18.65Zm-22.65-10.66c-.43-4.3-1.59-7.39-3.47-9.24a10.89,10.89,0,0,0-15.88,1.42c-1.35,1.75-2.21,4.35-2.58,7.82Z"/><path d="M779.54,417.12h75.3v19.79H829.58v60.38H804.8V436.91H779.54Z"/><path d="M867.58,417.12h22.26v29.53a30.06,30.06,0,0,1,9-6.73,25.54,25.54,0,0,1,10.6-2q9.09,0,14.31,5.52T929,460.37v36.92H906.63V465.35q0-5.48-2-7.74a7.24,7.24,0,0,0-5.69-2.27,8.07,8.07,0,0,0-6.56,3.06q-2.52,3.08-2.52,11v27.89H867.58Z"/><path d="M943.11,417.12h22.26v15.14H943.11Zm0,22.09h22.26v58.08H943.11Z"/><path d="M1044.06,473.77H999.44c.4,3.57,1.36,6.24,2.89,8a10.57,10.57,0,0,0,8.43,3.77,12.7,12.7,0,0,0,6.23-1.64,14.62,14.62,0,0,0,3.88-3.67l21.93,2q-5,8.75-12.14,12.55t-20.4,3.8q-11.53,0-18.15-3.25a26.72,26.72,0,0,1-11-10.34,31.17,31.17,0,0,1-4.35-16.65q0-13.62,8.73-22t24.09-8.42q12.46,0,19.68,3.77a25.49,25.49,0,0,1,11,10.94q3.76,7.15,3.77,18.65Zm-22.64-10.66c-.44-4.3-1.6-7.39-3.47-9.24a10.9,10.9,0,0,0-15.89,1.42c-1.35,1.75-2.21,4.35-2.57,7.82Z"/><path d="M1079.06,439.21h10.61v16.3h-10.61v41.78h-22.31V455.51h-8.31v-16.3h8.31v-2.63a44.59,44.59,0,0,1,.76-7.82,15.76,15.76,0,0,1,2.87-7,15,15,0,0,1,5.91-4.37q3.8-1.68,11.13-1.67a149.67,149.67,0,0,1,17,1.37L1092,430.57a41.51,41.51,0,0,0-6.46-.66,7.23,7.23,0,0,0-4.32,1,5.69,5.69,0,0,0-1.86,3.2A29.52,29.52,0,0,0,1079.06,439.21Z"/><path d="M1183.51,468.25V451.57h38.28v34.18q-11,7.49-19.44,10.2a66.11,66.11,0,0,1-20,2.7q-14.28,0-23.27-4.86a33.32,33.32,0,0,1-13.94-14.5,47.6,47.6,0,0,1-4.95-22.09q0-13.12,5.41-22.83a35.13,35.13,0,0,1,15.86-14.74q8.14-3.88,21.93-3.88,13.29,0,19.88,2.4a25.93,25.93,0,0,1,10.94,7.47,33.31,33.31,0,0,1,6.53,12.82l-23.9,4.27a12.94,12.94,0,0,0-5-6.95,15.66,15.66,0,0,0-9-2.4q-8.15,0-13,5.66T1165,456.93q0,13,4.9,18.59t13.64,5.58a26,26,0,0,0,7.93-1.2,42.7,42.7,0,0,0,8.64-4.11v-7.54Z"/><path d="M1232.29,468.41q0-13.29,9-21.9t24.23-8.61q17.44,0,26.36,10.11,7.17,8.16,7.16,20.07,0,13.41-8.88,22t-24.59,8.56q-14,0-22.64-7.11Q1232.29,482.69,1232.29,468.41Zm22.32-.05q0,7.77,3.14,11.48a10.31,10.31,0,0,0,15.81.06c2.06-2.45,3.09-6.36,3.09-11.76q0-7.54-3.12-11.24a9.71,9.71,0,0,0-7.71-3.69,10.06,10.06,0,0,0-8,3.75Q1254.6,460.7,1254.61,468.36Z"/><path d="M1336.58,417.12v22.09h12.25v16.3h-12.25v20.57c0,2.48.24,4.11.71,4.91a4.08,4.08,0,0,0,3.83,1.86,24.29,24.29,0,0,0,6.89-1.42l1.64,15.36a72,72,0,0,1-15.42,1.81q-8.31,0-12.25-2.13a13,13,0,0,1-5.82-6.47c-1.26-2.9-1.89-7.58-1.89-14.07V455.51h-8.2v-16.3h8.2V428.54Z"/><path d="M1129.9,547.92h27.51l16.16,27,16.18-27h27.37L1186,594.51v33.58h-24.83V594.51Z"/><path d="M1211.38,599.21q0-13.29,9-21.9t24.23-8.61q17.45,0,26.36,10.12,7.15,8.14,7.16,20.07,0,13.4-8.89,22t-24.58,8.56q-14,0-22.64-7.11Q1211.39,613.48,1211.38,599.21Zm22.31-.05q0,7.77,3.15,11.48a10.3,10.3,0,0,0,15.8.06q3.09-3.66,3.09-11.76,0-7.55-3.11-11.24a9.72,9.72,0,0,0-7.72-3.69,10.06,10.06,0,0,0-8,3.75C1234.75,590.25,1233.69,594.06,1233.69,599.16Z"/><path d="M1350,628.09h-20.78v-9.41a30.5,30.5,0,0,1-9.38,8.26,24.93,24.93,0,0,1-11.62,2.46q-9.18,0-14.41-5.49T1288.6,607V570H1311V602q0,5.46,2,7.76a7.15,7.15,0,0,0,5.69,2.3,8.1,8.1,0,0,0,6.53-3.06q2.55-3.06,2.55-11V570H1350Z"/><path d="M1363.74,570h20.84v9.52q3-6.18,6.2-8.51a13.11,13.11,0,0,1,7.91-2.32,23.51,23.51,0,0,1,10.77,3.06l-6.89,15.86a17.58,17.58,0,0,0-6.24-1.64,7.7,7.7,0,0,0-6.78,3.61q-3.43,5.08-3.44,19v19.47h-22.37Z"/><path d="M1446.43,547.92h75.3v19.79h-25.26v60.38h-24.78V567.71h-25.26Z"/><path d="M1525.07,547.92H1551l18,57.69,17.81-57.69H1612l-29.77,80.17h-26.85Z"/></svg>
