<svg id="Layer_1" data-name="Layer 1" xmlns="http://www.w3.org/2000/svg" xmlns:xlink="http://www.w3.org/1999/xlink" width="1920" height="1080" viewBox="0 0 1920 1080"><defs><style>.cls-1{fill:url(#linear-gradient);}.cls-2{fill:#b7b4a7;}.cls-21,.cls-3,.cls-6{fill:#fff;}.cls-4{fill:#c1272d;}.cls-4,.cls-5{stroke:#c1272d;}.cls-10,.cls-15,.cls-4,.cls-5{stroke-linejoin:round;}.cls-10,.cls-4{stroke-width:5px;}.cls-17,.cls-5{stroke-width:4px;}.cls-6{opacity:0.6;}.cls-17,.cls-18,.cls-33,.cls-7{fill:none;}.cls-20,.cls-21,.cls-28,.cls-7{stroke:#100015;}.cls-17,.cls-18,.cls-20,.cls-21,.cls-22,.cls-23,.cls-28,.cls-33,.cls-7,.cls-9{stroke-miterlimit:10;}.cls-8{fill:#df1900;}.cls-15,.cls-9{fill:#ffdeaa;stroke:#ffdeaa;}.cls-9{stroke-width:7px;}.cls-10{fill:#8a1b00;stroke:#8a0f00;}.cls-11{fill:#100015;}.cls-12{fill:#f4f9f9;}.cls-13{fill:#020000;}.cls-14{fill:#7dadf9;}.cls-15{stroke-width:6px;}.cls-16{fill:#ff1f0a;}.cls-17,.cls-18{stroke:#000;}.cls-18{stroke-width:2px;}.cls-19,.cls-28{fill:#5f2000;}.cls-22{fill:#ffb1aa;stroke:#ffb1aa;}.cls-22,.cls-23{stroke-width:13px;}.cls-23{fill:#940004;stroke:#940004;}.cls-24{fill:#e5ad5c;}.cls-25{fill:#ffeb94;}.cls-26{fill:#efbb67;}.cls-27{fill:#ef5b6d;}.cls-29{fill:#d3afce;}.cls-30{fill:url(#linear-gradient-2);}.cls-31{fill:url(#linear-gradient-3);}.cls-32{fill:#ff2c1f;}.cls-33{stroke:#ff2c1f;stroke-width:29px;}</style><linearGradient id="linear-gradient" x1="960" y1="1078.5" x2="960" y2="-0.5" gradientUnits="userSpaceOnUse"><stop offset="0" stop-color="#cce0f4"/><stop offset="0.15" stop-color="#c3e0f5"/><stop offset="0.4" stop-color="#a9e0f9"/><stop offset="0.72" stop-color="#80e0ff"/><stop offset="0.73" stop-color="#7fe0ff"/><stop offset="0.89" stop-color="#2ad2ff"/><stop offset="0.99" stop-color="#3fc6ff"/></linearGradient><linearGradient id="linear-gradient-2" x1="1321.36" y1="676.51" x2="1321.36" y2="597.55" gradientTransform="matrix(1.15, 0.11, 0.11, 1.13, -290.62, -307.16)" xlink:href="#linear-gradient"/><linearGradient id="linear-gradient-3" x1="1415.38" y1="333.37" x2="1415.38" y2="254.41" gradientTransform="matrix(1.07, -0.08, -0.08, 1.09, 49.89, -54.33)" xlink:href="#linear-gradient"/></defs><title>Slutskærm vandret win</title><rect class="cls-1" y="-0.5" width="1920" height="1079"/><rect class="cls-2" x="1221" y="33.5" width="605.39" height="824"/><rect class="cls-3" x="1257.5" y="103.24" width="139.77" height="144.06"/><rect class="cls-3" x="1453.36" y="103.24" width="139.77" height="144.06"/><rect class="cls-3" x="1649.22" y="103.24" width="139.77" height="144.06"/><rect class="cls-3" x="1257.5" y="284.92" width="139.77" height="144.06"/><rect class="cls-3" x="1453.36" y="284.92" width="139.77" height="144.06"/><rect class="cls-3" x="1649.22" y="284.92" width="139.77" height="144.06"/><rect class="cls-3" x="1257.5" y="466.6" width="139.77" height="144.06"/><rect class="cls-3" x="1453.36" y="466.6" width="139.77" height="144.06"/><rect class="cls-3" x="1649.22" y="466.6" width="139.77" height="144.06"/><rect class="cls-4" x="1453.36" y="657.77" width="139.77" height="196.37"/><ellipse class="cls-5" cx="1573.1" cy="785.47" rx="9.35" ry="9.63"/><line x1="1803" y1="890.5" x2="1158" y2="1051.5"/><line x1="1194" y1="878.5" x2="47" y2="921.5"/><path class="cls-3" d="M692.08,155.27c-12.76-25.73-47.24-46.92-85.44-59.37C573.33,73,523.49,58.38,482.89,58.15A118.39,118.39,0,0,0,424,72.77c-19.74-5.41-40-8.45-58.31-8.55-72.07-.42-94.25,54.32-155.48,71.44-109.52,30.61-3.27,103,139.8,74.89,29.77,22.24,103.19,36.55,186.58,16.16C610.82,208.55,709,189.38,692.08,155.27Z"/><circle class="cls-3" cx="138.5" cy="950" r="22.5"/><circle class="cls-3" cx="182.5" cy="950" r="22.5"/><circle class="cls-3" cx="294.5" cy="912" r="22.5"/><circle class="cls-3" cx="249.5" cy="912" r="22.5"/><circle class="cls-3" cx="205.5" cy="912" r="22.5"/><circle class="cls-3" cx="160.5" cy="912" r="22.5"/><circle class="cls-3" cx="317.5" cy="950" r="22.5"/><circle class="cls-3" cx="272.5" cy="950" r="22.5"/><circle class="cls-3" cx="227.5" cy="950" r="22.5"/><circle class="cls-3" cx="226.5" cy="786" r="22.5"/><circle class="cls-3" cx="249.5" cy="829" r="22.5"/><circle class="cls-3" cx="204.5" cy="829" r="22.5"/><circle class="cls-3" cx="272.5" cy="872" r="22.5"/><circle class="cls-3" cx="227.5" cy="872" r="22.5"/><circle class="cls-3" cx="182.5" cy="872" r="22.5"/><path class="cls-3" d="M1913.56,35.71c-4.36-8.8-16.15-16-29.21-20.3C1873,7.57,1855.91,2.58,1842,2.5a40.52,40.52,0,0,0-20.14,5A78.46,78.46,0,0,0,1802,4.58c-24.65-.15-32.23,18.57-53.17,24.43-37.45,10.46-1.12,35.22,47.81,25.61,10.18,7.6,35.28,12.5,63.8,5.52C1885.78,53.93,1919.34,47.38,1913.56,35.71Z"/><path class="cls-6" d="M810.27,153.22A80.28,80.28,0,0,0,778,106.38c-12.59-18.1-31.43-29.61-46.78-29.79-9.12-.11-16.12,4.65-22.27,11.54-7.46-4.27-15.11-6.67-22-6.75-27.25-.33-35.64,42.86-58.79,56.37C586.69,161.9,626.86,219,681,196.84c11.25,17.55,39,28.84,70.54,12.75C779.55,195.27,816.67,180.13,810.27,153.22Z"/><path class="cls-6" d="M294.15,109.22c-5.67-20.3-21-37-38-46.84-14.8-18.1-36.93-29.61-55-29.79-10.71-.11-18.94,4.65-26.16,11.54-8.77-4.27-17.76-6.67-25.9-6.75-32-.33-41.87,42.86-69.08,56.37C31.43,117.9,78.63,175,142.19,152.84c13.22,17.55,45.84,28.84,82.88,12.75C258.05,151.27,301.66,136.13,294.15,109.22Z"/><path class="cls-3" d="M1390,1078.5c0-90.85,178.92-156.36,390.5-192,162.51-27.38,136.63,170,139.5,192"/><path class="cls-7" d="M533.18,689.19A8.95,8.95,0,0,1,516.26,695"/><circle class="cls-8" cx="528.79" cy="695.37" r="1.74"/><line class="cls-9" x1="487.22" y1="696.34" x2="496.21" y2="722.49"/><line class="cls-9" x1="580.94" y1="664.09" x2="589.94" y2="690.24"/><circle class="cls-8" cx="552.3" cy="687.28" r="1.74"/><path class="cls-4" d="M484.76,679.71c-7.09-20.6,3.62-52.26,27.44-60.45S563.94,629.43,571,650"/><rect class="cls-10" x="477.84" y="664.36" width="105.62" height="15.33" transform="translate(-189.75 209.17) rotate(-18.98)"/><rect class="cls-11" x="541.54" y="676.75" width="25.92" height="6.27" transform="translate(-191.01 217.36) rotate(-18.98)"/><rect class="cls-11" x="509.45" y="687.79" width="25.92" height="6.27" transform="translate(-196.35 207.52) rotate(-18.98)"/><path class="cls-7" d="M561.09,679.59a9,9,0,0,1-16.93,5.82"/><ellipse class="cls-4" cx="430.3" cy="650.2" rx="29.69" ry="10.67" transform="translate(-340.6 766.94) rotate(-65.11)"/><ellipse class="cls-4" cx="438.85" cy="669.81" rx="20.07" ry="6.68" transform="translate(-194.02 179.19) rotate(-18.98)"/><circle class="cls-12" cx="448.35" cy="643.83" r="16.84"/><circle class="cls-13" cx="710.46" cy="716" r="9.46"/><path class="cls-13" d="M709.66,712.55l-.44,0c-2.32-8.68-33.6-18-67.61-14.42-34.84,3.65-60.71,18.49-59.78,27.33a7,7,0,0,0,2.32,3.91l-44.88,19.46c-12.72-7.23-36.21-14-59.2-10a110.9,110.9,0,0,0-40.35,15.68,116.84,116.84,0,0,0,1.08-31.69c-3-29.92-12.15-53.11-20.08-52.3s-24.16,23.93-21.12,53.86c2.13,21,10.78,40.32,18.5,49.77a11.94,11.94,0,0,0,15.6,13.64,10.56,10.56,0,0,0,1.38-.58c8,4.89,20.37,8.1,37.73,5a194.06,194.06,0,0,0,25.79-6.64L613.9,943l30.23-196.09a105,105,0,0,0,11.06-.53,90.94,90.94,0,0,0,28-7.45,48,48,0,0,0-1.88,14c.23,28.15,22.18,61.71,29.15,61.65s17.42-23,17.19-51.11S716.63,712.5,709.66,712.55Z"/><ellipse class="cls-4" cx="711.14" cy="826.86" rx="7.64" ry="21.25" transform="translate(-4.16 3.6) rotate(-0.29)"/><ellipse class="cls-4" cx="704.23" cy="818.72" rx="14.78" ry="4.65" transform="translate(-355.13 1028.46) rotate(-60.5)"/><path class="cls-14" d="M695.85,931.18A15.9,15.9,0,0,0,684,920.79c-1.35-11.68-7.94-25.42-20.62-33.79-20.06-13.23-47.76-8-54.82,2.7a12.45,12.45,0,0,0-1.15,2.2c-2.78-3.39-5.86-5.8-9-6.84-13-4.36-30.37,12.64-38.89,38-5.85,17.37-6,34.14-1.34,44.38a86.48,86.48,0,0,0-21.73-7.09c-20.88-4.07-39.06-.93-40.61,7s14.13,17.68,35,21.74c10.34,2,20,2.26,27.34,1a15.9,15.9,0,0,0,27.35-15.24,54,54,0,0,0,29.93-32.12,55,55,0,0,0,2.64-21.45,76.88,76.88,0,0,0,14,11.73c12.22,8.06,25.14,12,35,11.37a15.81,15.81,0,0,0,3.84,4.4c-3.06,7.25-4.61,18.51-3.8,31,1.37,21.23,9,38,17.12,37.49s13.5-18.16,12.13-39.39c-.74-11.39-3.3-21.5-6.75-28.35A15.9,15.9,0,0,0,695.85,931.18Z"/><ellipse class="cls-4" cx="500.72" cy="982.4" rx="20.51" ry="9.35" transform="translate(-582.96 1186.06) rotate(-73.64)"/><ellipse class="cls-4" cx="697.59" cy="1004.59" rx="20.51" ry="9.35" transform="translate(-288.85 281.57) rotate(-18.98)"/><rect class="cls-4" x="575.87" y="882.7" width="51.41" height="8.31" transform="translate(-255.78 243.93) rotate(-18.98)"/><path class="cls-15" d="M594.57,687.79c-7.82-5.16-20.15-.27-27.53,10.93a31.16,31.16,0,0,0-5.25,14.78,20.29,20.29,0,0,0-25.16,8.26,31.36,31.36,0,0,0-12.78-7.93c-12.71-4.29-25.44-.56-28.44,8.32S500.3,741.69,513,746a34.59,34.59,0,0,0,7.45,1.62,4.92,4.92,0,0,0,.24,1.06c1.63,4.73,9.54,6.3,17.67,3.5a25.4,25.4,0,0,0,3.56-1.52,3.89,3.89,0,0,0-.35,3c1.07,3.09,6.85,3.91,12.92,1.82a21.78,21.78,0,0,0,3.42-1.5s0,0,0,.07c.75,2.19,4.46,2.89,8.28,1.58s6.32-4.15,5.56-6.34v0c6.69-2.59,11.19-6.76,10.2-9.63a3.27,3.27,0,0,0-1.93-1.85q.65-.16,1.29-.39c6.73-2.31,10.87-8,9.24-12.76a5.84,5.84,0,0,0-.45-1,33.62,33.62,0,0,0,5.23-6.2C602.75,706.2,602.39,693,594.57,687.79ZM568,738.32a18.79,18.79,0,0,0,1.15-1.7,10.32,10.32,0,0,0,1.88.94A31.22,31.22,0,0,0,568,738.32Z"/><path class="cls-8" d="M549.91,706.41c2.38,6.92,2.49,13.16.25,13.93s-6-4.21-8.38-11.13"/><path class="cls-16" d="M1826.22,1037.87c9.43.47,20.78-30,16-38.89-7-12.8-16-.44-15.91,6.16"/><path class="cls-16" d="M1826.22,1037.87c-9.43.47-20.78-30-16-38.89,7-12.8,16-.44,15.91,6.16"/><path class="cls-16" d="M1750.58,1037.87c9.42.47,20.78-30,15.94-38.89-7-12.8-16-.44-15.9,6.16"/><path class="cls-16" d="M1750.57,1037.87c-9.43.47-20.78-30-15.94-38.89,7-12.8,16-.44,15.9,6.16"/><path class="cls-16" d="M1788.4,1037.87c9.43.47,20.78-30,15.95-38.89-7-12.8-16-.44-15.91,6.16"/><path class="cls-16" d="M1788.4,1037.87c-9.43.47-20.79-30-16-38.89,7-12.8,16-.44,15.9,6.16"/><rect class="cls-17" x="1721" y="981.9" width="136" height="67.6"/><path d="M1552.21,950.84h8.09a5.54,5.54,0,0,1,4,1.26,4.68,4.68,0,0,1,1.31,3.57,4.84,4.84,0,0,1-1.43,3.73,6.21,6.21,0,0,1-4.38,1.34h-2.66v5.85h-4.89Zm4.89,6.71h1.19a3.05,3.05,0,0,0,2-.49,1.56,1.56,0,0,0,.57-1.25,1.74,1.74,0,0,0-.5-1.25,2.54,2.54,0,0,0-1.86-.52h-1.38Z"/><path d="M1566.72,960.92a5.71,5.71,0,0,1,1.77-4.31,6.6,6.6,0,0,1,4.75-1.69,6.52,6.52,0,0,1,5.18,2,5.75,5.75,0,0,1,1.41,3.94,5.69,5.69,0,0,1-1.75,4.31,6.62,6.62,0,0,1-4.82,1.69,6.77,6.77,0,0,1-4.45-1.4A5.6,5.6,0,0,1,1566.72,960.92Zm4.39,0a3.45,3.45,0,0,0,.61,2.25,2,2,0,0,0,3.11,0,3.59,3.59,0,0,0,.61-2.31,3.37,3.37,0,0,0-.62-2.21,1.89,1.89,0,0,0-1.51-.72,2,2,0,0,0-1.58.74A3.37,3.37,0,0,0,1571.11,960.91Z"/><path d="M1582.1,950.84h4.37v3h-4.37Zm0,4.34h4.37v11.41h-4.37Z"/><path d="M1589.26,955.18h4.07V957a6.17,6.17,0,0,1,1.85-1.63,4.8,4.8,0,0,1,2.28-.49,3.72,3.72,0,0,1,2.84,1.08,4.72,4.72,0,0,1,1,3.34v7.25h-4.39v-6.28a2.27,2.27,0,0,0-.4-1.52,1.42,1.42,0,0,0-1.11-.44,1.59,1.59,0,0,0-1.29.6,3.49,3.49,0,0,0-.5,2.16v5.48h-4.37Z"/><path d="M1609.21,950.84v4.34h2.41v3.2h-2.41v4a2.24,2.24,0,0,0,.14,1,.79.79,0,0,0,.75.36,4.71,4.71,0,0,0,1.36-.28l.32,3a14,14,0,0,1-3,.36,5.28,5.28,0,0,1-2.41-.42,2.57,2.57,0,0,1-1.14-1.27,7.44,7.44,0,0,1-.37-2.77v-4h-1.62v-3.2h1.62v-2.1Z"/><line class="cls-18" x1="1616" y1="970.5" x2="1549" y2="970.5"/><path d="M1772.39,950.84h4.87v11.87h7.59v3.88h-12.46Z"/><path d="M1786.94,950.84h4.37v3h-4.37Zm0,4.34h4.37v11.41h-4.37Z"/><path d="M1792.81,955.18h4.55l2.22,7.23,2.29-7.23h4.41l-4.84,11.41h-3.88Z"/><line class="cls-18" x1="1819" y1="970.5" x2="1759" y2="970.5"/><rect class="cls-19" x="1304.55" y="322.1" width="39.51" height="46.17"/><rect class="cls-20" x="1300.25" y="335.21" width="47.93" height="9.98"/><rect class="cls-20" x="1300.25" y="327.19" width="47.93" height="4.3"/><path class="cls-20" d="M1302.4,327.58a22,22,0,1,1,43.95,0"/><ellipse class="cls-21" cx="1313.94" cy="340.2" rx="4.89" ry="2.64"/><ellipse class="cls-21" cx="1333.9" cy="340.2" rx="4.89" ry="2.64"/><ellipse class="cls-20" cx="1315.51" cy="340.88" rx="1.56" ry="0.78"/><ellipse class="cls-20" cx="1336.24" cy="340.88" rx="1.56" ry="0.78"/><ellipse class="cls-22" cx="1325.88" cy="355.65" rx="7.04" ry="4.99"/><rect class="cls-20" x="1288.32" y="368.27" width="72.38" height="61.62"/><path class="cls-19" d="M1269.94,303.24c-1.52-.2-3.09,1.66-4,4.48-3.16-5.35-7.15-8.8-9-7.74s-.8,6.43,2.38,11.95,7.29,9.12,9.16,8a1.56,1.56,0,0,0,.59-.63c1.61-.89,3.07-3.82,3.54-7.44C1273.17,307.38,1272,303.5,1269.94,303.24Z"/><rect class="cls-20" x="1275.21" y="313.3" width="11.54" height="65.53" transform="translate(-33.46 527.5) rotate(-22.98)"/><path class="cls-19" d="M1381.06,303c1.52-.2,3.09,1.66,4,4.49,3.16-5.35,7.15-8.81,9-7.75s.8,6.43-2.38,12-7.29,9.12-9.16,8a1.5,1.5,0,0,1-.59-.63c-1.61-.88-3.07-3.82-3.54-7.44C1377.83,307.18,1379,303.3,1381.06,303Z"/><rect class="cls-20" x="1363.04" y="313.5" width="11.54" height="65.53" transform="translate(281.82 -554.84) rotate(25.46)"/><ellipse class="cls-23" cx="1326.5" cy="355.85" rx="1" ry="0.15"/><path class="cls-24" d="M1744.25,518.81c0,23.91-6.2,43.3-19.34,43.3s-21.08-19.39-21.08-43.3"/><circle class="cls-25" cx="1735.55" cy="530.6" r="7.45"/><circle class="cls-25" cx="1718.53" cy="530.6" r="7.45"/><rect class="cls-25" x="1725.49" y="530.02" width="2.9" height="1.16"/><ellipse class="cls-3" cx="1719.79" cy="532.35" rx="3" ry="1.16"/><ellipse class="cls-3" cx="1733.13" cy="532.35" rx="3" ry="1.16"/><circle cx="1721.62" cy="532.73" r="0.39"/><circle cx="1731.49" cy="532.73" r="0.39"/><path class="cls-26" d="M1733,523a58.14,58.14,0,0,0-11.6,0c0,.16,2.6-.09,5.8-.09S1733,523.12,1733,523Z"/><path class="cls-26" d="M1730.71,523.72a20.08,20.08,0,0,0-6.19,0,59.91,59.91,0,0,1,6.19,0Z"/><path class="cls-26" d="M1733.42,521.58c0-.21-2.6-.38-5.8-.38s-5.8.17-5.8.38,2.59-.12,5.8-.12S1733.42,521.79,1733.42,521.58Z"/><path class="cls-27" d="M1736,548.12c.94,1.23-3.93,2.79-8.79,2.79s-9.68-1.53-8.79-2.79c4.42-6.24,9,0,8.8.39C1726.65,549.49,1730.8,541.33,1736,548.12Z"/><path class="cls-2" d="M1753.73,513.2c0-3-2-5.42-4.55-5.42a3.87,3.87,0,0,0-1.71.4,4.88,4.88,0,0,0-4.38-4.46h0c0-3-2-5.42-4.54-5.42a4,4,0,0,0-2.44.85c-.22-2.75-2.16-4.91-4.53-4.91a4.16,4.16,0,0,0-3,1.37,4.47,4.47,0,0,0-3.94-2.72,4.67,4.67,0,0,0-4.27,3.56,10.79,10.79,0,0,1-11-2.21c-2.51,0-4.54,2.43-4.54,5.42v.15a3.79,3.79,0,0,0-1.07-.15c-2.51,0-4.54,2.42-4.54,5.41a6.37,6.37,0,0,0,.44,2.34,5.69,5.69,0,0,0-2.18,4.63,5.49,5.49,0,0,0,2.83,5c1.08,2,4.21,3.4,7.9,3.4a12.42,12.42,0,0,0,4.86-.93,16.46,16.46,0,0,0,5.39.83,14.41,14.41,0,0,0,6.72-1.42,15.13,15.13,0,0,0,6.72,1.42,17.84,17.84,0,0,0,3-.24,12.37,12.37,0,0,0,6.39,1.6c3.67,0,6.79-1.29,8-3.1C1751.75,518.55,1753.73,516.15,1753.73,513.2Zm-35.3,0h-.09l0-.07.1.07Z"/><rect class="cls-28" x="1779.55" y="575.96" width="3.29" height="38.04"/><path class="cls-24" d="M1781.67,580c.65-.62.39-2-.55-3.51,3.61.55,6.67,0,6.87-1.22s-2.63-2.76-6.34-3.35-6.86-.07-7.06,1.19a.81.81,0,0,0,.07.5c-.2,1.06.59,2.82,2.07,4.38C1778.58,580,1780.79,580.86,1781.67,580Z"/><ellipse class="cls-29" cx="1755.28" cy="569.87" rx="4.84" ry="22.82" transform="translate(855.56 2181.15) rotate(-78.81)"/><path class="cls-24" d="M1655.19,582.35c-.66-.62-.39-2,.55-3.51-3.62.55-6.68,0-6.87-1.22s2.63-2.76,6.33-3.35,6.87-.07,7.07,1.19a.89.89,0,0,1-.07.5c.2,1.06-.6,2.82-2.08,4.38C1658.28,582.28,1656.07,583.18,1655.19,582.35Z"/><ellipse class="cls-29" cx="1681.78" cy="569.87" rx="22.82" ry="4.84" transform="translate(-90.4 457.97) rotate(-15.11)"/><ellipse class="cls-29" cx="1718.53" cy="585.15" rx="32.11" ry="28.63"/><polygon class="cls-30" points="1345.87 586.1 1316.01 574.49 1330.13 603.25 1308.31 578.54 1305.58 607.3 1298.73 577.34 1280.02 596.96 1290.32 571.26 1261.57 575.51 1285.74 562.24 1256.08 549.78 1286.45 553.14 1265.3 527.92 1292.23 546.85 1286.3 516.87 1301.23 545.36 1312.41 520.15 1310.61 549.15 1335.34 536.71 1317.38 557.02 1347.82 561.3 1319.4 566.47 1345.87 586.1"/><polygon class="cls-31" points="1582.14 168.41 1555.75 161.97 1564.4 187.72 1547.78 167.19 1540.48 195.7 1538.9 167.59 1517.95 189.8 1531.92 163.04 1503.99 171.91 1529.07 154.99 1503.01 147.7 1531.24 146 1515.33 124.86 1537.74 138.91 1537.04 110.64 1546.52 135.99 1561.24 109.56 1554.79 138.15 1580.26 121.95 1559.91 144.71 1588.05 143.89 1560.27 153.59 1582.14 168.41"/><path class="cls-32" d="M204.05,559.51c525.91-1.3,987.67,128.08,1343.5,351Q1664.9,684,1803.46,450.38c-466-191-1030-273.14-1647.12-211.41A2767.4,2767.4,0,0,0,204.05,559.51Z"/><path class="cls-33" d="M204.05,559.51c525.91-1.3,987.67,128.08,1343.5,351Q1664.9,684,1803.46,450.38c-466-191-1030-273.14-1647.12-211.41A2767.4,2767.4,0,0,0,204.05,559.51Z"/><path d="M304.48,269.47H332l16.15,27,16.19-27h27.37l-31.17,46.59v33.58H335.71V316.06Z"/><path d="M386,320.76q0-13.29,9-21.9t24.23-8.61q17.44,0,26.36,10.11,7.17,8.16,7.16,20.07,0,13.41-8.88,22T419.22,351q-14,0-22.64-7.11Q386,335,386,320.76Zm22.31-.05q0,7.77,3.14,11.48a10.31,10.31,0,0,0,15.81.06c2.06-2.45,3.09-6.36,3.09-11.76q0-7.55-3.12-11.24a9.71,9.71,0,0,0-7.71-3.69,10.06,10.06,0,0,0-8,3.75Q408.29,313,408.28,320.71Z"/><path d="M524.6,349.64H503.82v-9.41a30.61,30.61,0,0,1-9.38,8.26A25,25,0,0,1,482.82,351q-9.19,0-14.41-5.5t-5.23-16.92v-37h22.37V323.5q0,5.46,2,7.76a7.16,7.16,0,0,0,5.68,2.3,8.13,8.13,0,0,0,6.54-3.06q2.54-3.06,2.54-11V291.56H524.6Z"/><path d="M568.68,269.47h23.53l8.47,44.88,12.4-44.88h23.44L649,314.29l8.48-44.82h23.41l-17.67,80.17H638.88l-14.07-50.48-14,50.48h-24.3Z"/><path d="M692,269.47h22.25v15.14H692Zm0,22.09h22.25v58.08H692Z"/><path d="M728.47,291.56H749.2V301a30.7,30.7,0,0,1,9.41-8.28,24.72,24.72,0,0,1,11.59-2.49q9.24,0,14.47,5.49t5.22,17v36.92H767.52V317.7c0-3.65-.67-6.22-2-7.74a7.24,7.24,0,0,0-5.69-2.27,8.07,8.07,0,0,0-6.56,3.06q-2.52,3.08-2.52,11v27.89H728.47Z"/><path d="M509.89,417.12h75.3v19.79H559.93v60.38H535.15V436.91H509.89Z"/><path d="M597.94,417.12h22.25v29.53a30.06,30.06,0,0,1,9-6.73,25.59,25.59,0,0,1,10.61-2q9.07,0,14.3,5.52t5.22,16.95v36.92H637V465.35q0-5.48-2-7.74a7.24,7.24,0,0,0-5.69-2.27,8.09,8.09,0,0,0-6.56,3.06q-2.52,3.08-2.52,11v27.89H597.94Z"/><path d="M737.12,473.77H692.49c.4,3.57,1.37,6.24,2.9,8a10.57,10.57,0,0,0,8.42,3.77,12.64,12.64,0,0,0,6.23-1.64,14.64,14.64,0,0,0,3.89-3.67l21.93,2q-5,8.75-12.14,12.55t-20.4,3.8q-11.54,0-18.16-3.25a26.69,26.69,0,0,1-11-10.34,31.17,31.17,0,0,1-4.35-16.65q0-13.62,8.72-22t24.09-8.42q12.47,0,19.69,3.77a25.46,25.46,0,0,1,11,10.94q3.78,7.15,3.78,18.65Zm-22.65-10.66c-.43-4.3-1.59-7.39-3.47-9.24a10.89,10.89,0,0,0-15.88,1.42c-1.35,1.75-2.21,4.35-2.58,7.82Z"/><path d="M780.54,417.12h75.3v19.79H830.58v60.38H805.8V436.91H780.54Z"/><path d="M868.58,417.12h22.26v29.53a30.06,30.06,0,0,1,9-6.73,25.54,25.54,0,0,1,10.6-2q9.09,0,14.31,5.52T930,460.37v36.92H907.63V465.35q0-5.48-2-7.74a7.24,7.24,0,0,0-5.69-2.27,8.07,8.07,0,0,0-6.56,3.06q-2.52,3.08-2.52,11v27.89H868.58Z"/><path d="M944.11,417.12h22.26v15.14H944.11Zm0,22.09h22.26v58.08H944.11Z"/><path d="M1045.06,473.77h-44.62c.4,3.57,1.36,6.24,2.89,8a10.57,10.57,0,0,0,8.43,3.77,12.7,12.7,0,0,0,6.23-1.64,14.62,14.62,0,0,0,3.88-3.67l21.93,2q-5,8.75-12.14,12.55t-20.4,3.8q-11.53,0-18.15-3.25a26.72,26.72,0,0,1-11-10.34,31.17,31.17,0,0,1-4.35-16.65q0-13.62,8.73-22t24.09-8.42q12.46,0,19.68,3.77a25.49,25.49,0,0,1,11,10.94q3.76,7.15,3.77,18.65Zm-22.64-10.66c-.44-4.3-1.6-7.39-3.47-9.24a10.9,10.9,0,0,0-15.89,1.42c-1.35,1.75-2.21,4.35-2.57,7.82Z"/><path d="M1080.06,439.21h10.61v16.3h-10.61v41.78h-22.31V455.51h-8.31v-16.3h8.31v-2.63a44.59,44.59,0,0,1,.76-7.82,15.76,15.76,0,0,1,2.87-7,15,15,0,0,1,5.91-4.37q3.8-1.68,11.13-1.67a149.67,149.67,0,0,1,17,1.37L1093,430.57a41.51,41.51,0,0,0-6.46-.66,7.23,7.23,0,0,0-4.32,1,5.69,5.69,0,0,0-1.86,3.2A29.52,29.52,0,0,0,1080.06,439.21Z"/><path d="M1184.51,468.25V451.57h38.28v34.18q-11,7.49-19.44,10.2a66.11,66.11,0,0,1-20,2.7q-14.28,0-23.27-4.86a33.32,33.32,0,0,1-13.94-14.5,47.6,47.6,0,0,1-4.95-22.09q0-13.12,5.41-22.83a35.13,35.13,0,0,1,15.86-14.74q8.14-3.88,21.93-3.88,13.29,0,19.88,2.4a25.93,25.93,0,0,1,10.94,7.47,33.31,33.31,0,0,1,6.53,12.82l-23.9,4.27a12.94,12.94,0,0,0-5-6.95,15.66,15.66,0,0,0-9-2.4q-8.15,0-13,5.66T1166,456.93q0,13,4.9,18.59t13.64,5.58a26,26,0,0,0,7.93-1.2,42.7,42.7,0,0,0,8.64-4.11v-7.54Z"/><path d="M1233.29,468.41q0-13.29,9-21.9t24.23-8.61q17.44,0,26.36,10.11,7.17,8.16,7.16,20.07,0,13.41-8.88,22t-24.59,8.56q-14,0-22.64-7.11Q1233.29,482.69,1233.29,468.41Zm22.32-.05q0,7.77,3.14,11.48a10.31,10.31,0,0,0,15.81.06c2.06-2.45,3.09-6.36,3.09-11.76q0-7.54-3.12-11.24a9.71,9.71,0,0,0-7.71-3.69,10.06,10.06,0,0,0-8,3.75Q1255.6,460.7,1255.61,468.36Z"/><path d="M1337.58,417.12v22.09h12.25v16.3h-12.25v20.57c0,2.48.24,4.11.71,4.91a4.08,4.08,0,0,0,3.83,1.86,24.29,24.29,0,0,0,6.89-1.42l1.64,15.36a72,72,0,0,1-15.42,1.81q-8.31,0-12.25-2.13a13,13,0,0,1-5.82-6.47c-1.26-2.9-1.89-7.58-1.89-14.07V455.51h-8.2v-16.3h8.2V428.54Z"/><path d="M1087.67,547.92h24.77V576h27.07V547.92h24.88v80.17h-24.88V595.66h-27.07v32.43h-24.77Z"/><path d="M1243.85,604.57h-44.62q.6,5.37,2.9,8a10.55,10.55,0,0,0,8.42,3.77,12.67,12.67,0,0,0,6.23-1.64,14.57,14.57,0,0,0,3.89-3.66l21.93,2q-5,8.75-12.14,12.55t-20.4,3.8q-11.55,0-18.16-3.25a26.63,26.63,0,0,1-11-10.34,31.17,31.17,0,0,1-4.35-16.65q0-13.62,8.72-22t24.09-8.42q12.46,0,19.69,3.77a25.52,25.52,0,0,1,11,10.94q3.78,7.17,3.77,18.65Zm-22.64-10.66q-.64-6.45-3.47-9.24a10.9,10.9,0,0,0-15.89,1.42c-1.35,1.75-2.2,4.36-2.57,7.82Z"/><path d="M1274.37,588.82l-21.27-2.24a24,24,0,0,1,3.47-8.78,19.19,19.19,0,0,1,6.53-5.55,27.44,27.44,0,0,1,8.43-2.62,67.79,67.79,0,0,1,11.59-.93,92,92,0,0,1,16.08,1.12,20.66,20.66,0,0,1,10.11,4.68,16.31,16.31,0,0,1,4.49,7,25.29,25.29,0,0,1,1.64,8.61v25.65a30.77,30.77,0,0,0,.52,6.43,28.92,28.92,0,0,0,2.27,5.93h-20.89a20.69,20.69,0,0,1-1.64-3.42,25,25,0,0,1-.77-3.69,28.94,28.94,0,0,1-8.69,6,36.32,36.32,0,0,1-13.73,2.4q-10.4,0-15.78-4.81a15.3,15.3,0,0,1-5.38-11.87,15.53,15.53,0,0,1,3.88-10.88q3.88-4.26,14.33-6.34,12.53-2.52,16.24-3.53a77.6,77.6,0,0,0,7.87-2.65c0-2.74-.56-4.65-1.69-5.75s-3.12-1.64-6-1.64c-3.65,0-6.38.59-8.21,1.75C1276.39,584.59,1275.24,586.31,1274.37,588.82Zm19.3,11.71q-4.59,1.63-9.57,2.89-6.78,1.82-8.58,3.56a5.69,5.69,0,0,0,0,8.39,7.72,7.72,0,0,0,5.39,1.67,13.84,13.84,0,0,0,6.91-1.8,10.87,10.87,0,0,0,4.54-4.41,14.63,14.63,0,0,0,1.34-6.75Z"/><path d="M1389.92,547.92v80.17h-20.83V619.5q-4.38,5.47-8,7.39a22.84,22.84,0,0,1-10.72,2.51q-11.87,0-18.12-9T1326,598.45q0-14.44,6.92-22.1a22.66,22.66,0,0,1,17.58-7.65,24.46,24.46,0,0,1,9.44,1.75,21.62,21.62,0,0,1,7.52,5.25V547.92Zm-22.31,51q0-6.84-2.9-10.2a9.23,9.23,0,0,0-7.33-3.37,8.08,8.08,0,0,0-6.5,3.23q-2.62,3.23-2.63,10.83,0,7.11,2.71,10.42a8.34,8.34,0,0,0,6.7,3.3,9,9,0,0,0,7.11-3.33Q1367.61,606.42,1367.61,598.89Z"/><path d="M1399.55,612l22.09-2.08a10.91,10.91,0,0,0,3.83,5.63,11.37,11.37,0,0,0,6.56,1.7q4.48,0,7-1.92a4.26,4.26,0,0,0,1.91-3.54,4.07,4.07,0,0,0-2.51-3.72q-1.82-.93-9.57-2.29-11.6-2-16.11-3.74a17,17,0,0,1-7.6-5.82,15.11,15.11,0,0,1-3.09-9.34,15.27,15.27,0,0,1,3.34-9.89,19.76,19.76,0,0,1,9.18-6.2q5.85-2.06,15.7-2,10.39,0,15.34,1.58a20,20,0,0,1,8.26,4.93,25.82,25.82,0,0,1,5.49,9l-21.11,2.08a7.18,7.18,0,0,0-2.73-4.1,11.17,11.17,0,0,0-6.35-1.75q-3.77,0-5.49,1.33a4,4,0,0,0-1.72,3.25,3.46,3.46,0,0,0,2.18,3.22q2.19,1.1,9.52,2,11.1,1.26,16.51,3.5a18.16,18.16,0,0,1,8.29,6.39,15.73,15.73,0,0,1,2.87,9.12,18,18,0,0,1-3,9.78,20.63,20.63,0,0,1-9.57,7.57q-6.54,2.8-17.81,2.81-15.9,0-22.66-4.54A20.35,20.35,0,0,1,1399.55,612Z"/><path d="M1471.9,547.92h22.26v29.53a29.91,29.91,0,0,1,9-6.73,25.62,25.62,0,0,1,10.61-2q9.07,0,14.3,5.52t5.22,16.95v36.92H1511V596.15q0-5.46-2-7.74a7.22,7.22,0,0,0-5.68-2.27,8.12,8.12,0,0,0-6.57,3.07q-2.51,3.06-2.51,11v27.89H1471.9Z"/><path d="M1543.87,599.21q0-13.29,9-21.9t24.22-8.61q17.45,0,26.36,10.12,7.17,8.14,7.17,20.07,0,13.4-8.89,22t-24.58,8.56q-14,0-22.64-7.11Q1543.88,613.48,1543.87,599.21Zm22.31-.05q0,7.77,3.15,11.48a10.3,10.3,0,0,0,15.8.06q3.09-3.66,3.09-11.76,0-7.55-3.12-11.24a9.68,9.68,0,0,0-7.71-3.69,10.09,10.09,0,0,0-8,3.75C1567.24,590.25,1566.18,594.06,1566.18,599.16Z"/><path d="M1648.16,547.92V570h12.25v16.3h-12.25v20.57c0,2.48.23,4.12.71,4.92a4.08,4.08,0,0,0,3.83,1.85,24.35,24.35,0,0,0,6.89-1.42l1.64,15.37a72.71,72.71,0,0,1-15.42,1.8q-8.32,0-12.25-2.13a13,13,0,0,1-5.83-6.47q-1.89-4.35-1.88-14.06V586.31h-8.21V570h8.21V559.35Z"/></svg>
