<svg id="Layer_1" data-name="Layer 1" xmlns="http://www.w3.org/2000/svg" width="515" height="400" viewBox="0 0 515 400"><defs><style>.cls-1{fill:#fff;stroke:#000;stroke-miterlimit:10;stroke-width:2px;}</style></defs><title>Speaker boks</title><path class="cls-1" d="M427.27,327.92c74.07-19.47,8.36,7.25-12.54-72.23S227.13-5.52,153.06,14,35.87,113.64,56.77,193.12,353.19,347.4,427.27,327.92Z"/><path d="M133,58.08l13.68,10.56-34.11,44.15L98.89,102.23Z"/><path d="M154.63,73.59l13.1,10.12-7.8,10.09q-4.31,5.57-9.12,7t-12.31-.44l1.28-7.58c3.17.72,5.6.88,7.31.48a8.38,8.38,0,0,0,4.4-2.68l-6.26-4.84Z"/><path d="M163.47,101.05l11.44,8.84-3.6,4.67a20,20,0,0,1,8.2-.3,17.17,17.17,0,0,1,7,3.46,14.69,14.69,0,0,1,5,6,12.78,12.78,0,0,1,.53,6.85,23.34,23.34,0,0,1,8.55-.2,17.29,17.29,0,0,1,6.74,3.4q5.15,4,5.67,9.26t-4.5,11.8L193,175l-12.28-9.5,14.07-18.22a6.41,6.41,0,0,0,1.65-3.87,4.66,4.66,0,0,0-1.78-4,5.46,5.46,0,0,0-4.69-1.12q-2.53.54-5.21,4L172,158.74l-12.29-9.49,13.61-17.62a14,14,0,0,0,2-3,4.87,4.87,0,0,0,.14-3,4.59,4.59,0,0,0-1.69-2.49,5.54,5.54,0,0,0-4.71-1.09c-1.73.37-3.53,1.76-5.41,4.19l-12.61,16.33L138.76,133Z"/><path d="M221.92,197.27,256,153.11l22.74,17.57c4.22,3.25,7.16,6.11,8.83,8.55a13,13,0,0,1,2.29,8.18,15.75,15.75,0,0,1-17.59,14.86,21,21,0,0,1-6.14-2,17.17,17.17,0,0,1,2.29,4.37,17.65,17.65,0,0,1,.39,4,21.19,21.19,0,0,1-.21,4.21l-3.27,17.9L249.93,218.9l3.13-19.12a12.91,12.91,0,0,0,.16-5.31,7.29,7.29,0,0,0-2.55-3.61l-1.21-.93-13.84,17.92Zm34-15.68,5.75,4.44a25.89,25.89,0,0,0,4.08,2.19,4.49,4.49,0,0,0,3.28.32,5.63,5.63,0,0,0,4-6.22q-.48-2.19-4.21-5.08l-6-4.63Z"/><path d="M278.08,215.26A20.23,20.23,0,0,1,292.34,207q8.6-.93,17,5.56Q319,220,319.56,229.36a22,22,0,0,1-18.83,22.41q-8.53.93-17.18-5.74-7.71-6-9.44-13.55A19.84,19.84,0,0,1,278.08,215.26Zm12.31,9.46q-3.3,4.28-3.15,7.66a7.17,7.17,0,0,0,8.68,6.75c2.17-.46,4.41-2.18,6.7-5.16,2.14-2.77,3.17-5.27,3.07-7.51a6.74,6.74,0,0,0-2.68-5.31,7,7,0,0,0-6-1.36Q293.65,220.51,290.39,224.72Z"/><path d="M343,220.28l12.29,9.49-34.11,44.15-12.28-9.49Z"/><path d="M367.33,258.52l5.85,4.52-6.94,9-5.84-4.51-17.77,23L330.34,281l17.77-23-4.57-3.53,6.93-9L355,249l1.12-1.45a31.62,31.62,0,0,1,3.75-4,11,11,0,0,1,4.55-2.62,10.35,10.35,0,0,1,5.11.11,19.89,19.89,0,0,1,6.84,3.81,106.58,106.58,0,0,1,8.79,8l-7.08,6.36a27.91,27.91,0,0,0-3.28-3.1,4.92,4.92,0,0,0-2.81-1.28,3.86,3.86,0,0,0-2.38,1A20.08,20.08,0,0,0,367.33,258.52Z"/></svg>
