<svg id="Layer_1" data-name="Layer 1" xmlns="http://www.w3.org/2000/svg" xmlns:xlink="http://www.w3.org/1999/xlink" width="1920" height="1075" viewBox="0 0 1920 1075"><defs><style>.cls-1{fill:url(#linear-gradient);}.cls-2,.cls-7,.cls-9{fill:none;}.cls-2{stroke:#ff2c1f;stroke-width:29px;}.cls-10,.cls-13,.cls-14,.cls-15,.cls-16,.cls-2,.cls-9{stroke-miterlimit:10;}.cls-3{fill:#d7ffff;}.cls-4{fill:#b4cfd6;}.cls-5{fill:#c1272d;stroke:#c1272d;}.cls-12,.cls-5,.cls-6,.cls-7{stroke-linejoin:round;}.cls-5,.cls-6{stroke-width:5px;}.cls-6{fill:#8a1b00;stroke:#8a0f00;}.cls-7{stroke:#000;stroke-width:15px;}.cls-8{fill:#100015;}.cls-13,.cls-14,.cls-15,.cls-9{stroke:#100015;}.cls-10,.cls-12{fill:#ffdeaa;stroke:#ffdeaa;}.cls-10{stroke-width:7px;}.cls-11{fill:#df1900;}.cls-12{stroke-width:6px;}.cls-13{fill:#5f2000;}.cls-15,.cls-19{fill:#fff;}.cls-16{fill:#940004;stroke:#ffb1aa;stroke-width:13px;}.cls-17{fill:#e5ad5c;}.cls-18{fill:#ffeb94;}.cls-20{fill:#efbb67;}.cls-21{fill:#ef5b6d;}.cls-22{fill:#b7b4a7;}</style><linearGradient id="linear-gradient" x1="960" y1="1075" x2="960" gradientUnits="userSpaceOnUse"><stop offset="0" stop-color="#cce0f4"/><stop offset="0.15" stop-color="#c3e0f5"/><stop offset="0.4" stop-color="#a9e0f9"/><stop offset="0.72" stop-color="#80e0ff"/><stop offset="0.73" stop-color="#7fe0ff"/><stop offset="0.89" stop-color="#2ad2ff"/><stop offset="0.99" stop-color="#3fc6ff"/></linearGradient></defs><title>Startskærm vandret</title><rect class="cls-1" width="1920" height="1075"/><path class="cls-2" d="M413.71,397.5c431.93-1.06,811.18,105.2,1103.43,288.32q96.38-186.08,210.18-378C1344.56,151,881.37,83.54,374.53,134.24A2271.45,2271.45,0,0,0,413.71,397.5Z"/><path d="M513.58,352.31a394.91,394.91,0,0,1-3.77-178.49l34.8,10.7c6.45,2,11.1,4.76,14,8.17s4.78,8.59,5.84,15.44,1,14.67.21,23.73a100.31,100.31,0,0,1-3.63,20.35,47.29,47.29,0,0,1-6.73,14.17,22.17,22.17,0,0,1-7.25,6.1,22.86,22.86,0,0,1,5.76,5.31,58.45,58.45,0,0,1,3.9,7.54c1.78,3.81,3.07,6.69,3.78,8.74a299.78,299.78,0,0,0,17,38.57l-22.7,7a331.38,331.38,0,0,1-19.26-45c-2.07-6.15-3.63-10.21-4.89-12.05-1.69-2.4-3.48-3.59-5.41-3.48l-1.86.1a364.9,364.9,0,0,0,10.36,66.91Zm9.25-104.65,9,.52c1,.06,2.86-.57,5.7-1.83,1.43-.55,2.64-2.12,3.65-4.67a30.07,30.07,0,0,0,1.9-8.89c.38-5,.07-8.95-1-11.88s-3.57-4.78-7.44-5.48l-9.31-1.69Q523.25,230.66,522.83,247.66Z"/><path d="M570.47,283c-1.12-15.33,1.65-28.12,7.3-37.29S591,233,599.65,234.32c10,1.51,16.86,7.52,21.4,16.94,3.67,7.63,5.5,16.27,6,26.64.62,11.64-.53,21.45-4,30.37s-9,15.1-17.48,17.82c-7.52,2.42-14.57.78-20.91-5.76C576.93,312.26,571.67,299.45,570.47,283Zm18.93-1.65c.56,8.22,2.2,14.18,4.46,17.74s4.77,5,7.41,4.48,4.57-2.79,5.84-6.64,1.47-9.62,1-17.42c-.44-7.28-1.36-12.66-3.13-16.29s-3.92-5.54-6.54-5.63c-2.78-.09-5.14,1.75-6.95,5.66S588.86,273.23,589.4,281.33Z"/><path d="M642.87,214.74l18.8,5.78a192,192,0,0,0-2,86.84l-18.09,5.57A217.19,217.19,0,0,1,642.87,214.74Z"/><path d="M690.58,248.75l9.1,1.24c-.68,4.14-1.16,8.32-1.44,12.51l-9.09-.13a149.35,149.35,0,0,0,2.14,35.26L673.2,303.2A174,174,0,0,1,670,262.1l-7.12-.11q.32-8.44,1.41-16.82l7.12,1c.12-.85.24-1.7.37-2.56a38.47,38.47,0,0,1,2-7.43,14.2,14.2,0,0,1,3.89-6,11.45,11.45,0,0,1,6-2.55c2.4-.35,5.66.18,9.77,1.49,3.28,1,7.94,2.95,14,5.53q-2.47,4.45-4.61,9.22a43.65,43.65,0,0,0-5.4-1.62,6.42,6.42,0,0,0-3.86,0,4.5,4.5,0,0,0-2.09,2.32A19.93,19.93,0,0,0,690.58,248.75Z"/><path d="M745.07,218.76,808.42,239a302.82,302.82,0,0,0-5.79,33.95L781,269.44a328.18,328.18,0,0,0,7.67,113.77l-20.09,6.19A356.07,356.07,0,0,1,759.78,266l-21.63-3.5A386.15,386.15,0,0,1,745.07,218.76Z"/><path d="M819.14,242.41l18.73,6a260.2,260.2,0,0,0-6.62,44c2.9-4.48,5.81-7.43,8.58-9a14,14,0,0,1,9.41-1.51c5.19.81,8.94,3.91,11.48,8.94s3.49,12.14,3.5,21.65a216.47,216.47,0,0,0,5,45.91L851.13,364a241.75,241.75,0,0,1-5.85-44.23c-.2-5.08-.77-8.67-1.92-10.8a5.44,5.44,0,0,0-4.84-3.3c-2.31-.05-4.22,1.39-5.64,4.44s-2.1,8.58-1.57,16.52a261.58,261.58,0,0,0,6.21,41.56l-18,5.56A285.79,285.79,0,0,1,819.14,242.41Z"/><path d="M930.6,321.33l-37.69,4.51c.58,3.66,1.67,6.28,3.14,7.82a7.47,7.47,0,0,0,7.46,2.34,11.19,11.19,0,0,0,5-2.61,16.68,16.68,0,0,0,2.91-3.93q9.26-.65,18.47-1.59a41.4,41.4,0,0,1-8.79,12.35c-3.52,3.2-8.77,6.12-15.93,8.42-6.22,2-11.34,2.48-15.39,1.2s-7.77-4.3-10.94-9.22-5.1-11.34-5.44-18.88c-.47-10.75,2.45-19.53,8-25.34s12.93-7.6,21.69-6.22c7.12,1.11,12.55,3.14,16.38,5.73a24.41,24.41,0,0,1,8.42,9.51c1.84,3.76,2.61,8.31,2.69,14C930.57,320.07,930.58,320.7,930.6,321.33Zm-19.3-7.24c-.33-3.82-1.16-6.57-2.67-8.32a8.38,8.38,0,0,0-6.17-2.89,8.18,8.18,0,0,0-7.52,3.89c-1.22,1.75-2.06,4.44-2.36,8Z"/><path d="M963.15,219l63.46,18.78a391.29,391.29,0,0,0-6.86,43.54l-21.62-3.2a417,417,0,0,0,10.65,142.16l-20.08,5.95A443.83,443.83,0,0,1,976.93,275l-21.62-3.21A476.3,476.3,0,0,1,963.15,219Z"/><path d="M1037.35,241l18.76,5.55a352.59,352.59,0,0,0-7.93,58.69c2.91-6.07,5.87-10.17,8.66-12.46a11.74,11.74,0,0,1,9.46-2.65c5.19.74,8.87,4.72,11.34,11.6s3.39,16.87,3.64,30.26a309.52,309.52,0,0,0,8.1,64.47l-18.13,5.37a334.29,334.29,0,0,1-8.69-60c-.36-6.9-1-11.78-2.18-14.67s-2.79-4.38-4.88-4.41c-2.3,0-4.2,1.93-5.57,6s-1.92,11.43-1.1,22a351.31,351.31,0,0,0,8.81,55.14l-18.05,5.34A376.53,376.53,0,0,1,1037.35,241Z"/><path d="M1101,259.83l18.76,5.55q-2.73,11.37-4.46,22.91l-19-3.46Q1098.09,272.26,1101,259.83Zm-6.13,36.55,19.05,2.5a271.07,271.07,0,0,0,4.95,88.85l-18,5.34A294.65,294.65,0,0,1,1094.86,296.38Z"/><path d="M1179.67,344.07,1142,348.51c.7,4.71,1.91,8.1,3.46,10.15,2.19,3,4.76,4.09,7.63,3.49a9,9,0,0,0,4.91-3.06,19.08,19.08,0,0,0,2.73-5q9.29-.32,18.54-.89c-2.15,6.7-4.7,12.11-8,16s-8.49,7.14-15.66,9.34c-6.21,1.91-11.42,2-15.61.09s-8.13-5.95-11.53-12.23-5.56-14.25-6-23.61c-.69-13.33,2.22-24.21,7.8-31.69s13.06-10.19,21.8-8.93c7.12,1,12.51,3.34,16.29,6.65a29.63,29.63,0,0,1,8.29,12.78c1.83,5.2,2.65,11.68,3,19.76C1179.58,342.3,1179.62,343.18,1179.67,344.07Zm-19.54-10.47c-.4-5.12-1.23-8.8-2.74-11.1a7.51,7.51,0,0,0-6.17-3.67c-3-.14-5.56,1.53-7.49,5.19-1.23,2.27-2,5.73-2.28,10.34Z"/><path d="M1211.27,311.68l9.09,1.2q-1.14,6.18-1.71,12.47l-9.07-.13a149.3,149.3,0,0,0,1.45,35.22l-18.09,5.36A172.62,172.62,0,0,1,1190.5,325l-7.11-.1q.43-8.36,1.66-16.63l7.11.94c.13-.84.27-1.68.41-2.52a36.79,36.79,0,0,1,2.09-7.34,14.26,14.26,0,0,1,4-5.94,11.9,11.9,0,0,1,6.08-2.56c2.42-.35,5.69.15,9.8,1.41,3.28,1,7.93,2.85,14,5.34-1.72,3-3.34,6-4.83,9.18a43.46,43.46,0,0,0-5.38-1.58,6.58,6.58,0,0,0-3.87.08,4.53,4.53,0,0,0-2.14,2.3A20.16,20.16,0,0,0,1211.27,311.68Z"/><path d="M1262.72,275.4l20.84,6.31a477.73,477.73,0,0,0-10.16,76.64l23.18,2.17a449,449,0,0,1,9.76-71.92l20.93,6.33a419.85,419.85,0,0,0,2.44,192.93l-20.17,5.89a444.82,444.82,0,0,1-12.8-82.51l-23,1.12a473.54,473.54,0,0,0,13.87,87.8L1267.51,506A501.89,501.89,0,0,1,1262.72,275.4Z"/><path d="M1340.57,299l18.72,5.67q-3.72,16.29-6,32.79l-19-3.57Q1336.68,316.32,1340.57,299Zm-8.08,51,19,2.61a378.55,378.55,0,0,0,9,126.3l-18,5.27A402.33,402.33,0,0,1,1332.49,349.94Z"/><path d="M1393.84,315.07a337,337,0,0,0-7.16,42.29l10.49,1.44q-1.62,15.09-1.79,30.25l-10.48-.2a334.25,334.25,0,0,0,2,39.75c.52,4.76,1.16,7.87,1.76,9.34.94,2.27,2.19,3.25,3.7,3s3.15-1.49,5.37-3.66q2.65,14.1,6.54,27.88c-4,3.48-7.83,5.89-11.69,7.05-4.48,1.36-8.12,1-10.92-1.22s-5.36-6.1-7.55-11.74-4.49-15.12-6-28.48a357.23,357.23,0,0,1-2.26-42.25l-7-.13q.08-17.31,1.77-34.57l7,1q1.1-11,2.88-22A256.39,256.39,0,0,1,1393.84,315.07Z"/><path d="M1435.66,327.72a280.7,280.7,0,0,0-6.43,35.47l10.48,1.43q-1.51,12.57-1.82,25.23l-10.48-.2a283.59,283.59,0,0,0,1.27,33.48c.4,4,.93,6.64,1.49,7.87.86,1.9,2.07,2.69,3.58,2.42s3.18-1.35,5.46-3.24q2.18,11.79,5.38,23.33a38.1,38.1,0,0,1-11.85,6.52c-4.48,1.36-8.06,1.19-10.73-.6s-5-5.06-7-9.83-3.91-12.87-5.1-24.28a305.48,305.48,0,0,1-1.56-36l-7-.13c.14-9.86.74-19.73,1.8-29.55l7,1q1-9.36,2.64-18.68A219.87,219.87,0,0,1,1435.66,327.72Z"/><path d="M1502,411l-37.63,4.28c.68,4.84,1.89,8.34,3.43,10.47,2.19,3.07,4.76,4.24,7.63,3.66a8.94,8.94,0,0,0,4.91-3.1,20,20,0,0,0,2.74-5.13q9.29-.22,18.54-.73c-2.17,6.91-4.71,12.47-8,16.48s-8.48,7.25-15.65,9.42c-6.21,1.89-11.42,1.95-15.62-.09s-8.15-6.2-11.55-12.67-5.53-14.68-6-24.29c-.63-13.68,2.38-24.82,8-32.49s13.19-10.44,21.92-9.13c7.12,1.06,12.49,3.46,16.22,6.88a30.31,30.31,0,0,1,8.15,13.22c1.77,5.39,2.54,12.1,2.8,20.47C1501.91,409.17,1502,410.09,1502,411Zm-19.47-11c-.36-5.28-1.17-9.08-2.65-11.45a7.42,7.42,0,0,0-6.13-3.81c-3-.16-5.59,1.55-7.55,5.3-1.24,2.34-2.08,5.89-2.35,10.63Z"/><path d="M1512.9,374.65l17.83,2.44q-.75,4.2-1.26,8.43c2.16-3.55,4.36-5.78,6.42-6.85a11.51,11.51,0,0,1,7.12-1,23.32,23.32,0,0,1,8.76,3.58,106,106,0,0,0-7.63,11.62,15.5,15.5,0,0,0-5.21-1.4,6.85,6.85,0,0,0-6,3c-2.15,2.94-3.47,8.66-3.1,17a155.52,155.52,0,0,0,1.77,17.42l-18.13,5.3A178.29,178.29,0,0,1,1512.9,374.65Z"/><ellipse class="cls-3" cx="1390.97" cy="208.02" rx="74.01" ry="90.5" transform="translate(879.83 1518.29) rotate(-77.19)"/><path class="cls-3" d="M1513.94,186.17a432.12,432.12,0,0,1,168.38,44.1c1.73.85,3.25-1.74,1.52-2.59a435.82,435.82,0,0,0-169.9-44.51c-1.93-.1-1.92,2.9,0,3Z"/><path class="cls-3" d="M1503.6,231.68a432.71,432.71,0,0,1,163.07,62c1.64,1,3.14-1.56,1.52-2.59a435,435,0,0,0-163.79-62.29c-1.89-.3-2.7,2.59-.8,2.9Z"/><path class="cls-3" d="M1509.25,207.12a431.9,431.9,0,0,1,165.86,52.79,1.5,1.5,0,0,0,1.52-2.59,435.77,435.77,0,0,0-167.38-53.2c-1.91-.2-1.9,2.8,0,3Z"/><ellipse class="cls-4" cx="564.5" cy="517" rx="92.5" ry="96"/><path class="cls-5" d="M477.87,460.89c0-40.36,37.84-89.37,84.53-89.37s84.52,49,84.52,89.37"/><rect class="cls-6" x="465.05" y="460.89" width="195.72" height="28.41"/><line class="cls-7" x1="485.84" y1="460.03" x2="485.84" y2="490.34"/><line class="cls-7" x1="512.86" y1="460.03" x2="512.86" y2="490.34"/><line class="cls-7" x1="567.59" y1="460.03" x2="567.59" y2="490.34"/><line class="cls-7" x1="594.96" y1="460.03" x2="594.96" y2="490.34"/><line class="cls-7" x1="540.57" y1="460.03" x2="540.57" y2="490.34"/><line class="cls-7" x1="622.33" y1="460.03" x2="622.33" y2="490.34"/><line class="cls-7" x1="650.04" y1="460.03" x2="650.04" y2="490.34"/><rect class="cls-8" x="575.94" y="497.44" width="48.04" height="11.63"/><rect class="cls-8" x="513.07" y="497.44" width="48.04" height="11.63"/><path class="cls-9" d="M557,506.7a16.58,16.58,0,1,1-33.15,0"/><path class="cls-9" d="M611.69,506.7a16.58,16.58,0,0,1-33.16,0"/><line class="cls-10" x1="472.16" y1="491.52" x2="472.16" y2="542.76"/><line class="cls-10" x1="655.83" y1="491.52" x2="655.83" y2="542.76"/><circle class="cls-11" cx="545.58" cy="514.89" r="3.23"/><circle class="cls-11" cx="591.66" cy="514.89" r="3.23"/><path class="cls-12" d="M665.42,541.25c-10.6-13.75-35.15-12.61-54.83,2.56a58,58,0,0,0-18.12,22.73,37.63,37.63,0,0,0-49.06-.7,58.38,58.38,0,0,0-17.61-21.6c-19.69-15.17-44.24-16.31-54.84-2.56s-3.22,37.2,16.46,52.37a62.92,62.92,0,0,0,12.08,7.32,10.39,10.39,0,0,0-.21,2c0,9.28,12.92,16.8,28.85,16.8a48.46,48.46,0,0,0,7.14-.52,7.13,7.13,0,0,0-2.4,5c0,6.06,9.64,11,21.53,11a41.16,41.16,0,0,0,6.9-.58s0,.1,0,.15c0,4.28,6.07,7.75,13.57,7.75s13.56-3.47,13.56-7.75v0c13.28-.49,23.69-5.1,23.69-10.72a6.07,6.07,0,0,0-2.28-4.39c.82,0,1.65.09,2.49.09,13.2,0,23.9-7.52,23.9-16.8a12.82,12.82,0,0,0-.18-2.06,62.88,62.88,0,0,0,12.91-7.7C668.65,578.45,676,555,665.42,541.25Zm-77.09,72.51a32.89,32.89,0,0,0,3-2.3,17.46,17.46,0,0,0,2.73,2.78C592.26,614,590.33,613.83,588.33,613.76Z"/><path class="cls-11" d="M575.94,547c0,13.55-3.56,24.54-8,24.54s-8-11-8-24.54"/><rect class="cls-13" x="982.64" y="505.65" width="144.33" height="168.63"/><rect class="cls-14" x="966.92" y="553.52" width="175.06" height="36.44"/><rect class="cls-14" x="966.92" y="524.23" width="175.06" height="15.72"/><path class="cls-14" d="M974.78,525.65c0-44.59,37-80.74,79.91-80.74s80.62,36.15,80.62,80.74"/><ellipse class="cls-15" cx="1016.93" cy="571.74" rx="17.86" ry="9.65"/><ellipse class="cls-15" cx="1089.81" cy="571.74" rx="17.86" ry="9.65"/><ellipse class="cls-14" cx="1022.65" cy="574.24" rx="5.72" ry="2.86"/><ellipse class="cls-14" cx="1098.39" cy="574.24" rx="5.72" ry="2.86"/><ellipse class="cls-16" cx="1060.52" cy="628.19" rx="25.72" ry="18.22"/><path class="cls-17" d="M885.52,495.39c0,94.4-24.48,170.93-76.34,170.93S726,589.79,726,495.39"/><circle class="cls-18" cx="851.17" cy="541.96" r="29.39"/><circle class="cls-18" cx="783.99" cy="541.96" r="29.39"/><rect class="cls-18" x="811.47" y="539.67" width="11.45" height="4.58"/><ellipse class="cls-19" cx="788.95" cy="548.83" rx="11.83" ry="4.58"/><ellipse class="cls-19" cx="841.62" cy="548.83" rx="11.83" ry="4.58"/><circle cx="796.2" cy="550.35" r="1.53"/><circle cx="835.14" cy="550.35" r="1.53"/><path class="cls-20" d="M841.24,511.8c0-.63-10.25-1.14-22.9-1.14s-22.9.51-22.9,1.14,10.25-.38,22.9-.38S841.24,512.44,841.24,511.8Z"/><path class="cls-20" d="M832.08,514.77c0-.52-5.47-.94-12.21-.94s-12.22.42-12.22.94,5.47-.32,12.22-.32S832.08,515.29,832.08,514.77Z"/><path class="cls-20" d="M842.77,506.35c0-.83-10.25-1.51-22.9-1.51s-22.9.68-22.9,1.51,10.25-.5,22.9-.5S842.77,507.18,842.77,506.35Z"/><path class="cls-21" d="M853,611.1c3.71,4.82-15.53,11-34.69,11s-38.21-6-34.69-11c17.45-24.63,35.71-.15,34.72,1.51C816.06,616.49,832.42,584.3,853,611.1Z"/><path class="cls-22" d="M922.93,473.25c0-11.8-8-21.37-17.94-21.37a15.39,15.39,0,0,0-6.78,1.58c-1.47-9.87-8.61-17.39-17.27-17.6h0c0-11.81-8-21.38-17.94-21.38a15.83,15.83,0,0,0-9.62,3.34c-.85-10.86-8.52-19.37-17.86-19.37a16.35,16.35,0,0,0-11.92,5.4c-3.1-6.42-8.9-10.74-15.56-10.74-7.75,0-14.35,5.85-16.86,14-3.27-5.28-8.52-8.7-14.44-8.7s-11.25,3.47-14.51,8.8c-3.26-5.33-8.54-8.8-14.5-8.8-9.91,0-17.94,9.57-17.94,21.37,0,.21,0,.4,0,.6a15.52,15.52,0,0,0-4.21-.6c-9.91,0-17.94,9.57-17.94,21.38a24.72,24.72,0,0,0,1.75,9.21c-5.17,3.76-8.62,10.53-8.62,18.27,0,8.95,4.62,16.61,11.17,19.8,4.29,7.78,16.63,13.41,31.2,13.41a49.25,49.25,0,0,0,19.17-3.67,65,65,0,0,0,21.29,3.29c10.84,0,20.47-2.21,26.53-5.63,6.77,3.47,16.15,5.63,26.52,5.63a71.47,71.47,0,0,0,11.78-1c6.22,3.87,15.23,6.31,25.25,6.31,14.45,0,26.79-5.08,31.7-12.23C915.11,494.36,922.93,484.9,922.93,473.25Zm-139.32,0h-.37l.11-.26.42.25Z"/></svg>
