<svg id="Layer_1" data-name="Layer 1" xmlns="http://www.w3.org/2000/svg" width="650" height="265" viewBox="0 0 650 265"><defs><style>.cls-1{fill:#ff2c1f;stroke:#ff2c1f;stroke-miterlimit:10;stroke-width:29px;}.cls-2{fill:#fff;}</style></defs><title>Start knap</title><rect class="cls-1" x="51.5" y="67.99" width="530" height="146.01" rx="12" ry="12"/><path class="cls-2" d="M149.27,154.73l24.89-1.56q.81,6.06,3.29,9.24,4.05,5.13,11.55,5.14,5.59,0,8.63-2.63a7.88,7.88,0,0,0,3-6.09,7.78,7.78,0,0,0-2.89-5.89q-2.9-2.59-13.4-4.91-17.2-3.87-24.54-10.28a20.66,20.66,0,0,1-7.39-16.34,22.21,22.21,0,0,1,3.78-12.33A25,25,0,0,1,167.61,100q7.59-3.33,20.81-3.33,16.23,0,24.75,6t10.13,19.2l-24.66,1.44q-1-5.72-4.12-8.31t-8.7-2.6q-4.56,0-6.87,1.93a5.93,5.93,0,0,0-2.31,4.71,4.72,4.72,0,0,0,1.91,3.64q1.84,1.66,8.78,3.12,17.14,3.69,24.57,7.47t10.8,9.39a23.79,23.79,0,0,1,3.37,12.53,26.84,26.84,0,0,1-4.5,15A28.14,28.14,0,0,1,209,180.63q-8.08,3.54-20.38,3.55-21.6,0-29.92-8.32T149.27,154.73Z"/><path class="cls-2" d="M266,98.08v23.33H279v17.21H266v21.72q0,3.93.75,5.19a4.3,4.3,0,0,0,4.05,2,25.78,25.78,0,0,0,7.27-1.5l1.74,16.22a76.69,76.69,0,0,1-16.29,1.91q-8.78,0-12.93-2.25a13.66,13.66,0,0,1-6.15-6.83q-2-4.59-2-14.85V138.62h-8.66V121.41h8.66V110.15Z"/><path class="cls-2" d="M311.6,141.27l-22.47-2.37a25.22,25.22,0,0,1,3.67-9.26,20.12,20.12,0,0,1,6.9-5.86,28.87,28.87,0,0,1,8.89-2.78,72.32,72.32,0,0,1,12.25-1,97,97,0,0,1,17,1.19,21.84,21.84,0,0,1,10.69,4.93,17.33,17.33,0,0,1,4.73,7.37A26.41,26.41,0,0,1,355,142.6v27.08a33.13,33.13,0,0,0,.55,6.79,30.74,30.74,0,0,0,2.4,6.26H335.85a21.68,21.68,0,0,1-1.73-3.61,26.38,26.38,0,0,1-.81-3.89,30.5,30.5,0,0,1-9.18,6.35,38.32,38.32,0,0,1-14.5,2.54q-11,0-16.66-5.08a16.16,16.16,0,0,1-5.69-12.53,16.42,16.42,0,0,1,4.1-11.49q4.11-4.52,15.13-6.7,13.23-2.65,17.15-3.73a78.36,78.36,0,0,0,8.32-2.8q0-4.33-1.79-6.06C329,134.57,326.9,134,323.9,134q-5.77,0-8.67,1.84Q313,137.3,311.6,141.27ZM332,153.63q-4.85,1.74-10.11,3.06-7.15,1.91-9.06,3.75a6,6,0,0,0,0,8.87,8.2,8.2,0,0,0,5.69,1.76,14.6,14.6,0,0,0,7.3-1.91,11.64,11.64,0,0,0,4.8-4.64,15.64,15.64,0,0,0,1.41-7.14Z"/><path class="cls-2" d="M369.28,121.41h22v10.05q3.16-6.53,6.55-9a13.78,13.78,0,0,1,8.34-2.46,24.78,24.78,0,0,1,11.38,3.24L410.28,140a18.53,18.53,0,0,0-6.58-1.73,8.12,8.12,0,0,0-7.16,3.81q-3.63,5.37-3.64,20.1v20.55H369.28Z"/><path class="cls-2" d="M455.79,98.08v23.33h12.93v17.21H455.79v21.72q0,3.93.75,5.19a4.29,4.29,0,0,0,4,2,25.83,25.83,0,0,0,7.28-1.5l1.73,16.22a76.53,76.53,0,0,1-16.28,1.91q-8.79,0-12.94-2.25a13.75,13.75,0,0,1-6.15-6.83q-2-4.59-2-14.85V138.62h-8.66V121.41h8.66V110.15Z"/></svg>
