<svg id="Layer_1" data-name="Layer 1" xmlns="http://www.w3.org/2000/svg" xmlns:xlink="http://www.w3.org/1999/xlink" width="1080" height="1920" viewBox="0 0 1080 1920"><defs><style>.cls-1{fill:url(#linear-gradient);}.cls-2{fill:#b4cfd6;}.cls-3{fill:#020000;}.cls-4{fill:#c1272d;stroke:#c1272d;}.cls-11,.cls-4,.cls-5,.cls-6{stroke-linejoin:round;}.cls-4,.cls-5{stroke-width:5px;}.cls-5{fill:#8a1b00;stroke:#8a0f00;}.cls-27,.cls-6,.cls-8{fill:none;}.cls-6{stroke:#000;stroke-width:15px;}.cls-7{fill:#100015;}.cls-15,.cls-16,.cls-17,.cls-8{stroke:#100015;}.cls-15,.cls-16,.cls-17,.cls-18,.cls-26,.cls-27,.cls-8,.cls-9{stroke-miterlimit:10;}.cls-11,.cls-9{fill:#ffdeaa;stroke:#ffdeaa;}.cls-9{stroke-width:7px;}.cls-10{fill:#df1900;}.cls-11{stroke-width:6px;}.cls-12{fill:#c9f4f3;}.cls-13{fill:#7dadf9;}.cls-14,.cls-15{fill:#5f2000;}.cls-17,.cls-21{fill:#fff;}.cls-18{fill:#940004;}.cls-18,.cls-26{stroke:#ffb1aa;stroke-width:13px;}.cls-19{fill:#e5ad5c;}.cls-20{fill:#ffeb94;}.cls-22{fill:#efbb67;}.cls-23{fill:#ef5b6d;}.cls-24{fill:#b7b4a7;}.cls-25{fill:#d3afce;}.cls-26{fill:#ffb1aa;}.cls-27{stroke:#ff2c1f;stroke-width:29px;}.cls-28{fill:#d7ffff;}</style><linearGradient id="linear-gradient" x1="540" y1="1920.5" x2="540" y2="0.5" gradientUnits="userSpaceOnUse"><stop offset="0" stop-color="#cce0f4"/><stop offset="0.15" stop-color="#c3e0f5"/><stop offset="0.4" stop-color="#a9e0f9"/><stop offset="0.72" stop-color="#80e0ff"/><stop offset="0.73" stop-color="#7fe0ff"/><stop offset="0.89" stop-color="#2ad2ff"/><stop offset="0.99" stop-color="#3fc6ff"/></linearGradient></defs><title>Startskærm lodret</title><rect class="cls-1" y="0.5" width="1080" height="1920"/><ellipse class="cls-2" cx="350.64" cy="955.5" rx="43.36" ry="45"/><circle class="cls-3" cx="236.77" cy="933.88" r="10.44"/><circle class="cls-3" cx="485.73" cy="963.61" r="8.27"/><polyline class="cls-3" points="286.3 945.9 441.34 933.83 341.52 1123.61"/><path class="cls-3" d="M485.62,961c-1.75,7.57-24.34,18.85-54.15,12s-56.41-30.49-54.66-38.06,27.33-12.47,57.13-5.59S487.37,953.42,485.62,961Z"/><path class="cls-3" d="M232.42,929.24c1.11-7,27.52-16.77,56.55-12.18s52.55,28.1,51.43,35.14-43.57,11.51-72.6,6.91S231.3,936.28,232.42,929.24Z"/><path class="cls-4" d="M309.66,869.52c0-19,17.83-42.13,39.83-42.13s39.84,23.1,39.84,42.13"/><rect class="cls-5" x="303.61" y="869.52" width="92.24" height="13.39"/><line class="cls-6" x1="313.41" y1="869.11" x2="313.41" y2="883.39"/><line class="cls-6" x1="326.14" y1="869.11" x2="326.14" y2="883.39"/><line class="cls-6" x1="351.94" y1="869.11" x2="351.94" y2="883.39"/><line class="cls-6" x1="364.84" y1="869.11" x2="364.84" y2="883.39"/><line class="cls-6" x1="339.21" y1="869.11" x2="339.21" y2="883.39"/><line class="cls-6" x1="377.74" y1="869.11" x2="377.74" y2="883.39"/><line class="cls-6" x1="390.8" y1="869.11" x2="390.8" y2="883.39"/><rect class="cls-7" x="355.88" y="886.74" width="22.64" height="5.48"/><rect class="cls-7" x="326.24" y="886.74" width="22.64" height="5.48"/><path class="cls-8" d="M347,891.11a7.82,7.82,0,0,1-15.63,0"/><path class="cls-8" d="M372.72,891.11a7.82,7.82,0,0,1-15.63,0"/><line class="cls-9" x1="306.96" y1="883.95" x2="306.96" y2="908.1"/><line class="cls-9" x1="393.53" y1="883.95" x2="393.53" y2="908.1"/><circle class="cls-10" cx="341.57" cy="894.96" r="1.52"/><circle class="cls-10" cx="363.28" cy="894.96" r="1.52"/><path class="cls-11" d="M398.05,907.39c-5-6.48-16.57-5.94-25.85,1.2a27.27,27.27,0,0,0-8.53,10.72,17.73,17.73,0,0,0-23.13-.33,27.47,27.47,0,0,0-8.3-10.18c-9.28-7.15-20.85-7.69-25.84-1.21s-1.52,17.53,7.76,24.68a29.5,29.5,0,0,0,5.69,3.45,5,5,0,0,0-.1.95c0,4.37,6.09,7.91,13.6,7.91a22.81,22.81,0,0,0,3.36-.24,3.36,3.36,0,0,0-1.13,2.38c0,2.85,4.54,5.17,10.15,5.17a19.79,19.79,0,0,0,3.25-.27v.07c0,2,2.86,3.65,6.39,3.65s6.39-1.63,6.39-3.65v0c6.26-.24,11.16-2.41,11.16-5.06a2.87,2.87,0,0,0-1.07-2.07c.39,0,.78,0,1.18,0,6.22,0,11.26-3.54,11.26-7.91a5.23,5.23,0,0,0-.09-1,30,30,0,0,0,6.09-3.63C399.57,924.92,403,913.87,398.05,907.39Zm-36.33,34.17a17.26,17.26,0,0,0,1.43-1.08,8.85,8.85,0,0,0,1.29,1.31A26,26,0,0,0,361.72,941.56Z"/><path class="cls-10" d="M355.88,910.08c0,6.39-1.68,11.57-3.76,11.57s-3.75-5.18-3.75-11.57"/><path class="cls-3" d="M261.09,892.68c6-25.58,5.05-47.31-1.73-48.9s-26.75,12.91-32.74,38.48-.09,52.26,6.7,53.85S255.1,918.25,261.09,892.68Z"/><ellipse class="cls-4" cx="268.01" cy="837.11" rx="18.56" ry="6.67" transform="translate(-506.55 421.6) rotate(-44.04)"/><ellipse class="cls-4" cx="269.1" cy="850.07" rx="12.91" ry="4.06"/><circle class="cls-12" cx="276.5" cy="841.08" r="9.28"/><path class="cls-3" d="M486.06,960.53c5.77,1.94,8.24,23.78.43,47.1s-22.94,39.26-28.72,37.32-14.36-35.88-6.55-59.19S480.28,958.6,486.06,960.53Z"/><ellipse class="cls-4" cx="454.8" cy="1055.35" rx="18.56" ry="6.67" transform="translate(-690.64 1147.88) rotate(-71.3)"/><ellipse class="cls-4" cx="451.41" cy="1046.67" rx="12.91" ry="4.06" transform="translate(-580.34 562.13) rotate(-41.51)"/><path class="cls-13" d="M400,1095.82c12.81,16.63,9.21,40,.34,46.87s-26.44-1.11-39.25-17.74-16-35.65-7.12-42.48S387.22,1079.19,400,1095.82Z"/><circle class="cls-13" cx="400.39" cy="1141.53" r="13.9"/><ellipse class="cls-13" cx="389.08" cy="1176.91" rx="33.64" ry="12.8" transform="translate(-848.75 1242.26) rotate(-74.73)"/><path class="cls-13" d="M344.65,1128.27c-14.24,18.5-39.81,21.78-49.26,14.5s-5.59-28.18,8.65-46.68,33.45-27.6,42.91-20.33S358.89,1109.77,344.65,1128.27Z"/><circle class="cls-13" cx="296.91" cy="1146.28" r="13.9"/><ellipse class="cls-13" cx="268.01" cy="1131.41" rx="12.8" ry="33.64" transform="translate(-845.82 797.8) rotate(-60)"/><ellipse class="cls-4" cx="236.84" cy="1127.52" rx="17.92" ry="8.16" transform="translate(-819.85 668.39) rotate(-54.65)"/><ellipse class="cls-4" cx="393.99" cy="1204.39" rx="17.92" ry="8.16"/><rect class="cls-4" x="324.83" y="1070.15" width="44.9" height="7.26"/><path class="cls-14" d="M382.86,363.51c3.07-.4,6.24,3.35,8.14,9.05,6.38-10.8,14.43-17.77,18.14-15.63s1.62,13-4.81,24.12-14.71,18.41-18.48,16.23a3.19,3.19,0,0,1-1.18-1.28c-3.26-1.78-6.21-7.7-7.15-15C376.34,371.87,378.73,364,382.86,363.51Z"/><rect class="cls-15" x="228.47" y="401.98" width="79.75" height="93.17"/><rect class="cls-16" x="219.78" y="428.43" width="96.72" height="20.13"/><rect class="cls-16" x="219.78" y="412.24" width="96.72" height="8.69"/><path class="cls-16" d="M224.13,413c0-24.64,20.42-44.61,44.15-44.61s44.54,20,44.54,44.61"/><ellipse class="cls-17" cx="247.42" cy="438.49" rx="9.87" ry="5.33"/><ellipse class="cls-17" cx="287.69" cy="438.49" rx="9.87" ry="5.33"/><ellipse class="cls-16" cx="250.58" cy="439.88" rx="3.16" ry="1.58"/><ellipse class="cls-16" cx="292.42" cy="439.88" rx="3.16" ry="1.58"/><ellipse class="cls-18" cx="271.5" cy="469.68" rx="14.21" ry="10.07"/><rect class="cls-16" x="195.7" y="495.14" width="146.07" height="124.36"/><path class="cls-14" d="M158.62,363.9c-3.07-.39-6.24,3.36-8.14,9.06-6.38-10.8-14.43-17.77-18.14-15.63s-1.62,13,4.81,24.12,14.71,18.4,18.48,16.22a3.1,3.1,0,0,0,1.18-1.27c3.26-1.79,6.21-7.71,7.15-15C165.14,372.26,162.75,364.44,158.62,363.9Z"/><rect class="cls-16" x="169.25" y="384.21" width="23.29" height="132.25" transform="translate(-161.44 106.35) rotate(-22.98)"/><rect class="cls-16" x="346.51" y="384.61" width="23.29" height="132.25" transform="translate(228.57 -110.2) rotate(25.46)"/><path class="cls-19" d="M757.39,400.65c0,45.26-11.74,82-36.61,82s-39.9-36.7-39.9-82"/><circle class="cls-20" cx="740.92" cy="422.98" r="14.09"/><circle class="cls-20" cx="708.7" cy="422.98" r="14.09"/><rect class="cls-20" x="721.88" y="421.88" width="5.49" height="2.2"/><ellipse class="cls-21" cx="711.08" cy="426.27" rx="5.67" ry="2.2"/><ellipse class="cls-21" cx="736.34" cy="426.27" rx="5.67" ry="2.2"/><circle cx="714.56" cy="427" r="0.73"/><circle cx="733.23" cy="427" r="0.73"/><path class="cls-22" d="M736.16,408.52c0-.31-4.92-.55-11-.55s-11,.24-11,.55,4.91-.19,11-.19S736.16,408.82,736.16,408.52Z"/><path class="cls-22" d="M731.77,409.94c0-.25-2.63-.45-5.86-.45s-5.86.2-5.86.45,2.62-.15,5.86-.15S731.77,410.19,731.77,409.94Z"/><path class="cls-22" d="M736.89,405.9c0-.4-4.92-.72-11-.72s-11,.32-11,.72,4.91-.24,11-.24S736.89,406.3,736.89,405.9Z"/><path class="cls-23" d="M741.81,456.13c1.78,2.32-7.45,5.28-16.63,5.28s-18.32-2.9-16.64-5.28c8.37-11.81,17.13-.07,16.65.73C724.08,458.72,731.93,443.28,741.81,456.13Z"/><path class="cls-24" d="M775.33,390c0-5.66-3.85-10.25-8.61-10.25a7.35,7.35,0,0,0-3.24.76c-.71-4.73-4.13-8.34-8.29-8.44h0c0-5.67-3.85-10.25-8.6-10.25a7.52,7.52,0,0,0-4.61,1.6c-.41-5.21-4.09-9.29-8.57-9.29a7.84,7.84,0,0,0-5.71,2.59,8.48,8.48,0,0,0-7.46-5.15c-3.72,0-6.88,2.8-8.09,6.73a7.84,7.84,0,0,0-13.88.05,8.23,8.23,0,0,0-6.95-4.22c-4.75,0-8.61,4.59-8.61,10.25,0,.09,0,.19,0,.28a7.52,7.52,0,0,0-2-.28c-4.75,0-8.6,4.59-8.6,10.25a11.83,11.83,0,0,0,.84,4.42,10.78,10.78,0,0,0-4.14,8.76c0,4.29,2.22,8,5.36,9.49,2.06,3.73,8,6.43,15,6.43a23.52,23.52,0,0,0,9.19-1.76,31.33,31.33,0,0,0,10.21,1.58c5.2,0,9.82-1.06,12.72-2.7a28.66,28.66,0,0,0,12.72,2.7,33.91,33.91,0,0,0,5.65-.47,23.38,23.38,0,0,0,12.11,3c6.93,0,12.85-2.44,15.2-5.86C771.58,400.15,775.33,395.62,775.33,390Zm-66.81,0h-.17l0-.12.2.12Z"/><rect class="cls-15" x="824.2" y="508.82" width="6.22" height="130.68"/><path class="cls-19" d="M828.2,516.52c1.24-1.18.74-3.84-1-6.64,6.84,1,12.62,0,13-2.31s-5-5.22-12-6.35-13-.12-13.38,2.25a1.76,1.76,0,0,0,.13.95c-.37,2,1.14,5.34,3.93,8.29C822.35,516.39,826.54,518.1,828.2,516.52Z"/><ellipse class="cls-25" cx="778.26" cy="497.29" rx="9.15" ry="43.19" transform="translate(139.37 1164.22) rotate(-78.81)"/><path class="cls-19" d="M588.83,520.91c-1.24-1.18-.74-3.84,1-6.64-6.85,1-12.63,0-13-2.31s5-5.22,12-6.35,13-.12,13.38,2.26a1.74,1.74,0,0,1-.13.94c.37,2-1.14,5.34-3.93,8.29C594.68,520.79,590.5,522.49,588.83,520.91Z"/><ellipse class="cls-25" cx="639.15" cy="497.29" rx="43.19" ry="9.15" transform="translate(-107.51 183.75) rotate(-15.11)"/><rect class="cls-26" x="691.68" y="551.28" width="6.22" height="72.48"/><rect class="cls-26" x="728.65" y="551.28" width="6.22" height="72.48"/><ellipse class="cls-25" cx="708.7" cy="526.21" rx="60.77" ry="54.18"/><rect class="cls-26" x="725.36" y="623.76" width="27.82" height="14.28"/><rect class="cls-26" x="674.84" y="623.76" width="27.82" height="14.28"/><path class="cls-27" d="M207.62,788.67C483.92,788,726.51,856,913.46,973.1q61.63-119,134.44-241.76C803.06,631,506.77,587.84,182.56,620.27A1451.38,1451.38,0,0,0,207.62,788.67Z"/><path d="M271.51,759.76a252.66,252.66,0,0,1-2.42-114.17l22.26,6.84c4.13,1.27,7.11,3.05,9,5.23s3.06,5.49,3.74,9.87a62.8,62.8,0,0,1,.13,15.18,64.38,64.38,0,0,1-2.32,13,29.84,29.84,0,0,1-4.31,9.06,14.2,14.2,0,0,1-4.63,3.91,14.31,14.31,0,0,1,3.68,3.39,36.37,36.37,0,0,1,2.5,4.82c1.14,2.44,2,4.29,2.42,5.59a192.66,192.66,0,0,0,10.87,24.68l-14.51,4.47a212.71,212.71,0,0,1-12.32-28.79c-1.33-3.93-2.33-6.53-3.13-7.71-1.08-1.54-2.23-2.3-3.46-2.23l-1.2.07a233.62,233.62,0,0,0,6.63,42.8Zm5.91-66.94,5.74.33A10.45,10.45,0,0,0,286.8,692c.91-.35,1.68-1.35,2.34-3a19.26,19.26,0,0,0,1.21-5.69,18.23,18.23,0,0,0-.67-7.61c-.71-1.87-2.28-3.05-4.75-3.5l-6-1.08Q277.7,682,277.42,692.82Z"/><path d="M307.89,715.41c-.71-9.81,1.06-18,4.67-23.85s8.45-8.1,14-7.27c6.39,1,10.79,4.81,13.69,10.83,2.35,4.88,3.52,10.41,3.86,17,.4,7.45-.33,13.72-2.56,19.43s-5.76,9.66-11.18,11.4c-4.81,1.55-9.33.49-13.38-3.69C312,734.14,308.66,726,307.89,715.41Zm12.12-1c.36,5.26,1.4,9.06,2.85,11.34s3.05,3.21,4.74,2.87,2.92-1.78,3.73-4.25.94-6.15.64-11.14c-.28-4.65-.87-8.1-2-10.42s-2.5-3.55-4.18-3.6-3.28,1.11-4.44,3.62S319.66,709.18,320,714.36Z"/><path d="M354.21,671.76l12,3.7A122.87,122.87,0,0,0,365,731l-11.57,3.56A138.92,138.92,0,0,1,354.21,671.76Z"/><path d="M384.73,693.52l5.82.79q-.65,4-.92,8l-5.82-.08a96.2,96.2,0,0,0,1.37,22.56l-11.57,3.56a111.48,111.48,0,0,1-2-26.3L367,702c.14-3.6.44-7.2.9-10.77l4.56.63.24-1.64a23.52,23.52,0,0,1,1.26-4.75,9,9,0,0,1,2.49-3.85,7.37,7.37,0,0,1,3.85-1.63,15,15,0,0,1,6.25,1c2.1.66,5.08,1.88,9,3.53q-1.59,2.85-3,5.9a28.61,28.61,0,0,0-3.46-1,4.13,4.13,0,0,0-2.46,0,2.84,2.84,0,0,0-1.34,1.49A12.55,12.55,0,0,0,384.73,693.52Z"/><path d="M419.58,674.33l40.53,12.94A192.1,192.1,0,0,0,456.4,709l-13.84-2.24a209.83,209.83,0,0,0,4.9,72.78l-12.85,4A227.83,227.83,0,0,1,429,704.55l-13.84-2.24A249.63,249.63,0,0,1,419.58,674.33Z"/><path d="M467,689.46l12,3.82a166.29,166.29,0,0,0-4.23,28.15,17.34,17.34,0,0,1,5.48-5.76,9,9,0,0,1,6-1c3.32.52,5.71,2.5,7.34,5.72s2.23,7.77,2.24,13.85A138.79,138.79,0,0,0,499,763.64l-11.6,3.57a154.07,154.07,0,0,1-3.75-28.29c-.13-3.25-.49-5.54-1.22-6.91a3.51,3.51,0,0,0-3.1-2.11c-1.48,0-2.7.89-3.61,2.84s-1.34,5.49-1,10.57a166.68,166.68,0,0,0,4,26.59l-11.55,3.55A182.9,182.9,0,0,1,467,689.46Z"/><path d="M538.26,739.94l-24.11,2.89a9.35,9.35,0,0,0,2,5,4.77,4.77,0,0,0,4.77,1.5,7.17,7.17,0,0,0,3.2-1.67,10.63,10.63,0,0,0,1.86-2.51q5.93-.42,11.82-1a26.58,26.58,0,0,1-5.63,7.89A27.44,27.44,0,0,1,522,757.41c-4,1.28-7.25,1.59-9.85.77s-5-2.75-7-5.9a24.17,24.17,0,0,1-3.48-12.07c-.3-6.88,1.57-12.49,5.11-16.21s8.26-4.86,13.87-4a25.77,25.77,0,0,1,10.48,3.66,15.59,15.59,0,0,1,5.38,6.09,20.75,20.75,0,0,1,1.72,9Zm-12.35-4.63c-.21-2.44-.74-4.2-1.7-5.32a5.38,5.38,0,0,0-4-1.85,5.24,5.24,0,0,0-4.81,2.49,10.74,10.74,0,0,0-1.51,5.14Z"/><path d="M559.09,674.51l40.59,12a252.06,252.06,0,0,0-4.39,27.86l-13.83-2a266.78,266.78,0,0,0,6.81,90.94l-12.84,3.8a283.75,283.75,0,0,1-7.53-96.75l-13.83-2.05A303.07,303.07,0,0,1,559.09,674.51Z"/><path d="M606.55,688.56l12,3.55a225.2,225.2,0,0,0-5.07,37.54c1.86-3.88,3.75-6.5,5.54-8a7.47,7.47,0,0,1,6.05-1.69c3.32.47,5.67,3,7.25,7.41s2.17,10.8,2.33,19.36A197.61,197.61,0,0,0,639.83,788l-11.6,3.44a214.25,214.25,0,0,1-5.56-38.38c-.22-4.42-.64-7.54-1.39-9.39s-1.78-2.8-3.12-2.82-2.69,1.24-3.56,3.84-1.23,7.3-.71,14A226.13,226.13,0,0,0,619.52,794L608,797.43A241,241,0,0,1,606.55,688.56Z"/><path d="M647.26,700.6l12,3.55q-1.75,7.29-2.86,14.66l-12.15-2.21Q645.41,708.55,647.26,700.6ZM643.33,724l12.19,1.61a173.35,173.35,0,0,0,3.17,56.83l-11.54,3.42A188.6,188.6,0,0,1,643.33,724Z"/><path d="M697.59,754.49l-24.07,2.84a14.61,14.61,0,0,0,2.21,6.5c1.4,1.89,3,2.61,4.88,2.23a5.76,5.76,0,0,0,3.14-2,12.5,12.5,0,0,0,1.75-3.2q5.94-.2,11.86-.57a30,30,0,0,1-5.15,10.27c-2.14,2.5-5.44,4.56-10,6-4,1.23-7.3,1.3-10,.06s-5.2-3.81-7.37-7.82A35.63,35.63,0,0,1,661,753.7c-.45-8.52,1.42-15.48,5-20.27a13.79,13.79,0,0,1,13.94-5.71c4.55.65,8,2.13,10.42,4.25a18.94,18.94,0,0,1,5.31,8.18c1.17,3.33,1.69,7.47,1.89,12.64C697.53,753.36,697.56,753.92,697.59,754.49Zm-12.51-6.7c-.25-3.27-.78-5.62-1.75-7.1a4.79,4.79,0,0,0-3.94-2.34c-1.93-.09-3.56,1-4.8,3.31a16.22,16.22,0,0,0-1.45,6.62Z"/><path d="M717.8,733.77l5.81.77q-.74,3.94-1.09,8l-5.8-.08a95.74,95.74,0,0,0,.92,22.53l-11.57,3.43a110.92,110.92,0,0,1-1.56-26.13L700,742.2c.19-3.56.55-7.11,1.06-10.63l4.56.6c.08-.54.17-1.08.26-1.62a23.5,23.5,0,0,1,1.33-4.69,9.1,9.1,0,0,1,2.55-3.8,7.68,7.68,0,0,1,3.89-1.64,15.29,15.29,0,0,1,6.27.9c2.09.64,5.07,1.82,9,3.42q-1.67,2.84-3.09,5.87a27.08,27.08,0,0,0-3.45-1,4.14,4.14,0,0,0-2.47,0,2.91,2.91,0,0,0-1.37,1.47A13.08,13.08,0,0,0,717.8,733.77Z"/><path d="M750.71,710.57l13.33,4a305.39,305.39,0,0,0-6.5,49L772.37,765a287.13,287.13,0,0,1,6.24-46l13.39,4a268.67,268.67,0,0,0,1.56,123.41l-12.9,3.77a284.51,284.51,0,0,1-8.19-52.78l-14.73.72a303.09,303.09,0,0,0,8.88,56.16l-12.85,3.75A321,321,0,0,1,750.71,710.57Z"/><path d="M800.51,725.63l12,3.62q-2.37,10.43-3.82,21L796.51,748Q798,736.73,800.51,725.63Zm-5.17,32.62,12.19,1.67a242.06,242.06,0,0,0,5.77,80.79l-11.54,3.37A257.62,257.62,0,0,1,795.34,758.25Z"/><path d="M834.59,735.94A213.39,213.39,0,0,0,830,763l6.7.92q-1,9.66-1.14,19.35l-6.71-.12a216.06,216.06,0,0,0,1.27,25.42,26.28,26.28,0,0,0,1.13,6c.6,1.45,1.4,2.07,2.37,1.9a7.93,7.93,0,0,0,3.43-2.34q1.7,9,4.18,17.83a20.7,20.7,0,0,1-7.48,4.51c-2.86.87-5.19.63-7-.78s-3.43-3.91-4.83-7.51-2.87-9.67-3.84-18.22a228.11,228.11,0,0,1-1.45-27l-4.49-.08q0-11.07,1.13-22.11l4.49.61q.71-7.05,1.85-14.06A163.17,163.17,0,0,1,834.59,735.94Z"/><path d="M861.34,744a179.71,179.71,0,0,0-4.12,22.69l6.7.92q-1,8-1.16,16.14l-6.7-.13a182.28,182.28,0,0,0,.81,21.41,19.61,19.61,0,0,0,1,5c.56,1.21,1.33,1.72,2.3,1.54a8.69,8.69,0,0,0,3.48-2.07q1.39,7.54,3.45,14.92a24.31,24.31,0,0,1-7.58,4.18c-2.87.86-5.16.76-6.86-.39s-3.24-3.23-4.5-6.28-2.5-8.24-3.26-15.53a197.31,197.31,0,0,1-1-23.05l-4.48-.09q.12-9.47,1.15-18.9l4.48.62q.66-6,1.7-11.95A139,139,0,0,1,861.34,744Z"/><path d="M903.77,797.31,879.7,800a15.27,15.27,0,0,0,2.19,6.7c1.4,2,3,2.72,4.88,2.35a5.71,5.71,0,0,0,3.14-2,12.27,12.27,0,0,0,1.75-3.28q5.94-.14,11.86-.46c-1.38,4.42-3,8-5.15,10.54s-5.42,4.63-10,6c-4,1.21-7.3,1.25-10,0s-5.21-4-7.39-8.11a37.24,37.24,0,0,1-3.82-15.54c-.41-8.75,1.52-15.88,5.14-20.78a13.76,13.76,0,0,1,14-5.84c4.55.67,8,2.21,10.37,4.4a19.35,19.35,0,0,1,5.21,8.46c1.14,3.45,1.62,7.74,1.8,13.09C903.72,796.14,903.74,796.72,903.77,797.31Zm-12.46-7c-.23-3.38-.75-5.81-1.7-7.33a4.75,4.75,0,0,0-3.92-2.43c-1.93-.1-3.57,1-4.82,3.39a17,17,0,0,0-1.51,6.8Z"/><path d="M910.74,774.05l11.41,1.56q-.48,2.68-.81,5.4a11.58,11.58,0,0,1,4.11-4.39A7.41,7.41,0,0,1,930,776a15.17,15.17,0,0,1,5.6,2.29,69.12,69.12,0,0,0-4.89,7.43,10,10,0,0,0-3.33-.89,4.36,4.36,0,0,0-3.86,1.92c-1.37,1.87-2.22,5.53-2,10.86a97.71,97.71,0,0,0,1.13,11.15l-11.6,3.38A114.38,114.38,0,0,1,910.74,774.05Z"/><ellipse class="cls-28" cx="832.75" cy="667.46" rx="47.34" ry="57.89" transform="translate(-2.68 1331.56) rotate(-77.19)"/><path class="cls-28" d="M911.41,654a277.1,277.1,0,0,1,107.44,28.13c1.72.85,3.24-1.74,1.51-2.59a280.7,280.7,0,0,0-109-28.54c-1.93-.11-1.92,2.89,0,3Z"/><path class="cls-28" d="M904.65,683.12a277.75,277.75,0,0,1,104.19,39.59c1.63,1,3.14-1.56,1.51-2.59a280,280,0,0,0-104.9-39.9c-1.89-.3-2.7,2.59-.8,2.9Z"/><path class="cls-28" d="M908.41,667.43a276.88,276.88,0,0,1,105.82,33.69c1.69,1,3.21-1.64,1.52-2.59a280.75,280.75,0,0,0-107.34-34.1c-1.92-.21-1.9,2.79,0,3Z"/></svg>
