<svg id="Layer_1" data-name="Layer 1" xmlns="http://www.w3.org/2000/svg" width="280" height="275" viewBox="0 0 280 275"><defs><style>.cls-1,.cls-2{fill:#5f2000;}.cls-2,.cls-3,.cls-4{stroke:#100015;}.cls-2,.cls-3,.cls-4,.cls-5{stroke-miterlimit:10;}.cls-4{fill:#fff;}.cls-5{fill:#940004;stroke:#ffb1aa;stroke-width:13px;}</style></defs><title>Tyv</title><path class="cls-1" d="M199,67.05c1.81-.23,3.67,2,4.79,5.33,3.75-6.35,8.48-10.45,10.67-9.19s1,7.63-2.83,14.19-8.65,10.82-10.87,9.54a1.88,1.88,0,0,1-.7-.75c-1.91-1-3.65-4.53-4.2-8.83C195.11,72,196.52,67.37,199,67.05Z"/><rect class="cls-2" x="108.14" y="89.68" width="46.91" height="54.8"/><rect class="cls-3" x="103.03" y="105.24" width="56.89" height="11.84"/><rect class="cls-3" x="103.03" y="95.72" width="56.89" height="5.11"/><path class="cls-3" d="M105.58,96.18a26.09,26.09,0,1,1,52.17,0"/><ellipse class="cls-4" cx="119.28" cy="111.16" rx="5.81" ry="3.13"/><ellipse class="cls-4" cx="142.97" cy="111.16" rx="5.81" ry="3.13"/><ellipse class="cls-3" cx="121.14" cy="111.97" rx="1.86" ry="0.93"/><ellipse class="cls-3" cx="145.75" cy="111.97" rx="1.86" ry="0.93"/><ellipse class="cls-5" cx="133.45" cy="129.51" rx="8.36" ry="5.92"/><rect class="cls-3" x="88.86" y="144.48" width="85.92" height="73.15"/><path class="cls-1" d="M67.05,67.29c-1.81-.24-3.67,2-4.79,5.32-3.75-6.35-8.48-10.45-10.67-9.19s-1,7.63,2.83,14.19,8.65,10.82,10.87,9.54a1.88,1.88,0,0,0,.7-.75c1.91-1.05,3.65-4.53,4.2-8.83C70.89,72.2,69.48,67.6,67.05,67.29Z"/><rect class="cls-3" x="73.31" y="79.23" width="13.7" height="77.79" transform="translate(-39.75 40.66) rotate(-22.98)"/><rect class="cls-3" x="177.57" y="79.46" width="13.7" height="77.79" transform="translate(68.8 -67.79) rotate(25.46)"/></svg>
