<svg id="Layer_1" data-name="Layer 1" xmlns="http://www.w3.org/2000/svg" width="460" height="430" viewBox="0 0 460 430"><defs><style>.cls-1{fill:#5f2000;}.cls-1,.cls-2,.cls-3{stroke:#100015;}.cls-1,.cls-2,.cls-3,.cls-4{stroke-miterlimit:10;}.cls-3{fill:#fff;}.cls-4{fill:#940004;stroke:#ffb1aa;stroke-width:13px;}</style></defs><title>Tyv hoved</title><rect class="cls-1" x="121.52" y="108.33" width="213.15" height="249.02" transform="translate(92.05 -63.36) rotate(19.74)"/><rect class="cls-2" x="107.42" y="180.43" width="258.52" height="53.81" transform="translate(83.94 -67.76) rotate(19.74)"/><path class="cls-2" d="M148.93,103.54c22.25-62,91.65-93.8,151.35-72.37s94,90.46,71.79,152.44"/><ellipse class="cls-3" cx="184.54" cy="188.62" rx="14.24" ry="26.38" transform="translate(-55.33 298.61) rotate(-70.26)"/><ellipse class="cls-3" cx="285.85" cy="224.98" rx="14.24" ry="26.38" transform="translate(-22.46 418.04) rotate(-70.26)"/><ellipse class="cls-2" cx="191.24" cy="194.95" rx="4.22" ry="8.44" transform="translate(-56.85 309.11) rotate(-70.26)"/><ellipse class="cls-2" cx="296.52" cy="232.73" rx="4.22" ry="8.44" transform="translate(-22.69 433.21) rotate(-70.26)"/><path class="cls-4" d="M348.53,300.1c-5.76,19.14-79.62,45.45-154.2,23S73.94,233.73,79.7,214.59s51,52.35,125.55,74.79S354.28,281,348.53,300.1Z"/><rect class="cls-2" x="127.2" y="140.61" width="258.52" height="23.21" transform="translate(66.48 -77.68) rotate(19.74)"/></svg>
